<svg xmlns="http://www.w3.org/2000/svg" width="1200" height="300"><path d="M593,153L585,138L548,171Z" fill="#ab7250" stroke="#ab7250" stroke-width="1.51"/><path d="M585,138L569,114L548,171Z" fill="#ad7650" stroke="#ad7650" stroke-width="1.51"/><path d="M569,114L489,138L548,171Z" fill="#ae7850" stroke="#ae7850" stroke-width="1.51"/><path d="M609,205L631,161L593,153Z" fill="#a66b50" stroke="#a66b50" stroke-width="1.51"/><path d="M593,153L631,161L585,138Z" fill="#aa7150" stroke="#aa7150" stroke-width="1.51"/><path d="M585,138L590,74L569,114Z" fill="#b17e50" stroke="#b17e50" stroke-width="1.51"/><path d="M569,114L590,74L557,96Z" fill="#b38250" stroke="#b38250" stroke-width="1.51"/><path d="M548,171L609,205L593,153Z" fill="#a76c50" stroke="#a76c50" stroke-width="1.51"/><path d="M489,138L513,187L548,171Z" fill="#ab7350" stroke="#ab7350" stroke-width="1.51"/><path d="M513,187L547,216L548,171Z" fill="#a76b50" stroke="#a76b50" stroke-width="1.51"/><path d="M547,216L609,205L548,171Z" fill="#a46750" stroke="#a46750" stroke-width="1.51"/><path d="M557,96L489,138L569,114Z" fill="#b27f50" stroke="#b27f50" stroke-width="1.51"/><path d="M647,95L590,74L585,138Z" fill="#b17e50" stroke="#b17e50" stroke-width="1.51"/><path d="M557,96L525,62L489,138Z" fill="#b58450" stroke="#b58450" stroke-width="1.51"/><path d="M631,161L647,95L585,138Z" fill="#ad7550" stroke="#ad7550" stroke-width="1.51"/><path d="M691,167L658,112L631,161Z" fill="#a96f50" stroke="#a96f50" stroke-width="1.51"/><path d="M631,161L658,112L647,95Z" fill="#ad7650" stroke="#ad7650" stroke-width="1.51"/><path d="M615,271L633,243L609,205Z" fill="#9c5850" stroke="#9c5850" stroke-width="1.51"/><path d="M513,187L527,251L547,216Z" fill="#a26450" stroke="#a26450" stroke-width="1.51"/><path d="M483,241L527,251L513,187Z" fill="#a26450" stroke="#a26450" stroke-width="1.51"/><path d="M540,48L525,62L557,96Z" fill="#b88b4f" stroke="#b88b4f" stroke-width="1.51"/><path d="M609,205L701,210L631,161Z" fill="#a26350" stroke="#a26350" stroke-width="1.51"/><path d="M615,271L609,205L547,216Z" fill="#9f5d50" stroke="#9f5d50" stroke-width="1.51"/><path d="M489,138L466,201L513,187Z" fill="#ab7250" stroke="#ab7250" stroke-width="1.51"/><path d="M577,18L540,48L590,74Z" fill="#ba8f4f" stroke="#ba8f4f" stroke-width="1.51"/><path d="M590,74L540,48L557,96Z" fill="#b78950" stroke="#b78950" stroke-width="1.51"/><path d="M466,201L483,241L513,187Z" fill="#a56a50" stroke="#a56a50" stroke-width="1.51"/><path d="M701,210L691,167L631,161Z" fill="#a36550" stroke="#a36550" stroke-width="1.51"/><path d="M527,251L615,271L547,216Z" fill="#9d5b50" stroke="#9d5b50" stroke-width="1.51"/><path d="M633,243L701,210L609,205Z" fill="#9e5c50" stroke="#9e5c50" stroke-width="1.51"/><path d="M489,138L436,185L466,201Z" fill="#ac7550" stroke="#ac7550" stroke-width="1.51"/><path d="M461,56L449,123L489,138Z" fill="#b68650" stroke="#b68650" stroke-width="1.51"/><path d="M461,56L489,138L525,62Z" fill="#b88a50" stroke="#b88a50" stroke-width="1.51"/><path d="M527,251L528,277L615,271Z" fill="#9a5550" stroke="#9a5550" stroke-width="1.51"/><path d="M483,241L528,277L527,251Z" fill="#9d5b50" stroke="#9d5b50" stroke-width="1.51"/><path d="M540,48L510,43L525,62Z" fill="#bb914f" stroke="#bb914f" stroke-width="1.51"/><path d="M691,167L694,127L658,112Z" fill="#a97050" stroke="#a97050" stroke-width="1.51"/><path d="M658,112L690,67L647,95Z" fill="#b07d50" stroke="#b07d50" stroke-width="1.51"/><path d="M615,271L644,266L633,243Z" fill="#98534f" stroke="#98534f" stroke-width="1.51"/><path d="M431,153L436,185L489,138Z" fill="#af7950" stroke="#af7950" stroke-width="1.51"/><path d="M466,201L461,265L483,241Z" fill="#a26450" stroke="#a26450" stroke-width="1.51"/><path d="M449,123L431,153L489,138Z" fill="#b27e50" stroke="#b27e50" stroke-width="1.51"/><path d="M650,7L577,18L590,74Z" fill="#bb904f" stroke="#bb904f" stroke-width="1.51"/><path d="M540,48L502,-6L510,43Z" fill="#be984f" stroke="#be984f" stroke-width="1.51"/><path d="M650,7L590,74L647,95Z" fill="#b68850" stroke="#b68850" stroke-width="1.51"/><path d="M644,266L701,210L633,243Z" fill="#9b5650" stroke="#9b5650" stroke-width="1.51"/><path d="M691,167L737,128L694,127Z" fill="#a86d50" stroke="#a86d50" stroke-width="1.51"/><path d="M510,43L461,56L525,62Z" fill="#bc924f" stroke="#bc924f" stroke-width="1.51"/><path d="M449,123L408,141L431,153Z" fill="#b27f50" stroke="#b27f50" stroke-width="1.51"/><path d="M456,51L461,56L510,43Z" fill="#bd944f" stroke="#bd944f" stroke-width="1.51"/><path d="M694,127L690,67L658,112Z" fill="#ae7950" stroke="#ae7950" stroke-width="1.51"/><path d="M748,97L690,67L694,127Z" fill="#ae7850" stroke="#ae7850" stroke-width="1.51"/><path d="M483,241L461,265L528,277Z" fill="#9e5b50" stroke="#9e5b50" stroke-width="1.51"/><path d="M436,185L461,265L466,201Z" fill="#a66a50" stroke="#a66a50" stroke-width="1.51"/><path d="M461,56L420,91L449,123Z" fill="#b88b50" stroke="#b88b50" stroke-width="1.51"/><path d="M502,-6L456,51L510,43Z" fill="#bf994f" stroke="#bf994f" stroke-width="1.51"/><path d="M420,91L408,141L449,123Z" fill="#b58550" stroke="#b58550" stroke-width="1.51"/><path d="M380,166L386,199L436,185Z" fill="#ad7650" stroke="#ad7650" stroke-width="1.51"/><path d="M436,185L386,199L461,265Z" fill="#a76b50" stroke="#a76b50" stroke-width="1.51"/><path d="M456,51L420,91L461,56Z" fill="#bc924f" stroke="#bc924f" stroke-width="1.51"/><path d="M528,277L577,321L615,271Z" fill="#964e4f" stroke="#964e4f" stroke-width="1.51"/><path d="M640,320L679,287L644,266Z" fill="#93484f" stroke="#93484f" stroke-width="1.51"/><path d="M529,332L577,321L528,277Z" fill="#954d4f" stroke="#954d4f" stroke-width="1.51"/><path d="M690,67L650,7L647,95Z" fill="#b58650" stroke="#b58650" stroke-width="1.51"/><path d="M767,161L737,128L691,167Z" fill="#a56950" stroke="#a56950" stroke-width="1.51"/><path d="M690,67L698,16L650,7Z" fill="#b98c4f" stroke="#b98c4f" stroke-width="1.51"/><path d="M644,266L679,287L701,210Z" fill="#98514f" stroke="#98514f" stroke-width="1.51"/><path d="M701,210L743,210L691,167Z" fill="#9f5e50" stroke="#9f5e50" stroke-width="1.51"/><path d="M640,320L644,266L615,271Z" fill="#954b4f" stroke="#954b4f" stroke-width="1.51"/><path d="M577,18L502,-6L540,48Z" fill="#bf984f" stroke="#bf984f" stroke-width="1.51"/><path d="M456,51L422,33L420,91Z" fill="#bd954f" stroke="#bd954f" stroke-width="1.51"/><path d="M562,-37L502,-6L577,18Z" fill="#c19d4e" stroke="#c19d4e" stroke-width="1.51"/><path d="M577,321L640,320L615,271Z" fill="#93494f" stroke="#93494f" stroke-width="1.51"/><path d="M461,265L475,310L528,277Z" fill="#9a5550" stroke="#9a5550" stroke-width="1.51"/><path d="M422,289L475,310L461,265Z" fill="#9b5750" stroke="#9b5750" stroke-width="1.51"/><path d="M482,316L529,332L528,277Z" fill="#964f4f" stroke="#964f4f" stroke-width="1.51"/><path d="M577,321L619,343L640,320Z" fill="#93494f" stroke="#93494f" stroke-width="1.51"/><path d="M475,310L482,316L528,277Z" fill="#98514f" stroke="#98514f" stroke-width="1.51"/><path d="M747,260L743,210L701,210Z" fill="#9a5550" stroke="#9a5550" stroke-width="1.51"/><path d="M650,7L580,-27L577,18Z" fill="#c0994f" stroke="#c0994f" stroke-width="1.51"/><path d="M380,166L436,185L431,153Z" fill="#ae7950" stroke="#ae7950" stroke-width="1.51"/><path d="M380,166L431,153L408,141Z" fill="#b17d50" stroke="#b17d50" stroke-width="1.51"/><path d="M348,102L380,166L408,141Z" fill="#b48450" stroke="#b48450" stroke-width="1.51"/><path d="M737,128L748,97L694,127Z" fill="#ab7250" stroke="#ab7250" stroke-width="1.51"/><path d="M808,108L748,97L737,128Z" fill="#aa7150" stroke="#aa7150" stroke-width="1.51"/><path d="M650,7L660,-26L580,-27Z" fill="#bf984f" stroke="#bf984f" stroke-width="1.51"/><path d="M723,44L698,16L690,67Z" fill="#b68750" stroke="#b68750" stroke-width="1.51"/><path d="M748,97L723,44L690,67Z" fill="#b17f50" stroke="#b17f50" stroke-width="1.51"/><path d="M440,1L422,33L456,51Z" fill="#c19d4f" stroke="#c19d4f" stroke-width="1.51"/><path d="M420,91L348,102L408,141Z" fill="#b78950" stroke="#b78950" stroke-width="1.51"/><path d="M729,310L747,260L679,287Z" fill="#91454f" stroke="#91454f" stroke-width="1.51"/><path d="M540,371L619,343L577,321Z" fill="#944b4f" stroke="#944b4f" stroke-width="1.51"/><path d="M580,-27L562,-37L577,18Z" fill="#c19b4f" stroke="#c19b4f" stroke-width="1.51"/><path d="M502,-6L440,1L456,51Z" fill="#c29e4e" stroke="#c29e4e" stroke-width="1.51"/><path d="M622,-65L562,-37L580,-27Z" fill="#c09a4f" stroke="#c09a4f" stroke-width="1.51"/><path d="M441,386L500,365L482,316Z" fill="#985250" stroke="#985250" stroke-width="1.51"/><path d="M386,199L422,289L461,265Z" fill="#a26350" stroke="#a26350" stroke-width="1.51"/><path d="M743,210L767,161L691,167Z" fill="#a16150" stroke="#a16150" stroke-width="1.51"/><path d="M451,-55L440,1L502,-6Z" fill="#c4a34e" stroke="#c4a34e" stroke-width="1.51"/><path d="M698,16L679,-13L650,7Z" fill="#bc944f" stroke="#bc944f" stroke-width="1.51"/><path d="M754,-18L679,-13L698,16Z" fill="#bc924f" stroke="#bc924f" stroke-width="1.51"/><path d="M679,-13L660,-26L650,7Z" fill="#bd954f" stroke="#bd954f" stroke-width="1.51"/><path d="M743,210L796,176L767,161Z" fill="#9f5e50" stroke="#9f5e50" stroke-width="1.51"/><path d="M679,287L747,260L701,210Z" fill="#974f4f" stroke="#974f4f" stroke-width="1.51"/><path d="M664,344L679,287L640,320Z" fill="#91454f" stroke="#91454f" stroke-width="1.51"/><path d="M619,343L664,344L640,320Z" fill="#92474f" stroke="#92474f" stroke-width="1.51"/><path d="M529,332L540,371L577,321Z" fill="#954d4f" stroke="#954d4f" stroke-width="1.51"/><path d="M619,343L694,383L664,344Z" fill="#91454f" stroke="#91454f" stroke-width="1.51"/><path d="M500,365L540,371L529,332Z" fill="#964f4f" stroke="#964f4f" stroke-width="1.51"/><path d="M500,365L529,332L482,316Z" fill="#97504f" stroke="#97504f" stroke-width="1.51"/><path d="M441,386L482,316L475,310Z" fill="#995250" stroke="#995250" stroke-width="1.51"/><path d="M699,339L729,310L679,287Z" fill="#8f424f" stroke="#8f424f" stroke-width="1.51"/><path d="M562,-37L501,-57L502,-6Z" fill="#c29f4e" stroke="#c29f4e" stroke-width="1.51"/><path d="M528,-88L501,-57L562,-37Z" fill="#c29e4e" stroke="#c29e4e" stroke-width="1.51"/><path d="M664,344L699,339L679,287Z" fill="#90444f" stroke="#90444f" stroke-width="1.51"/><path d="M728,359L699,339L694,383Z" fill="#8f424f" stroke="#8f424f" stroke-width="1.51"/><path d="M660,-26L635,-58L580,-27Z" fill="#bf984f" stroke="#bf984f" stroke-width="1.51"/><path d="M702,-68L635,-58L660,-26Z" fill="#bd954f" stroke="#bd954f" stroke-width="1.51"/><path d="M396,359L441,386L475,310Z" fill="#9a5450" stroke="#9a5450" stroke-width="1.51"/><path d="M380,303L396,304L422,289Z" fill="#9b5750" stroke="#9b5750" stroke-width="1.51"/><path d="M350,239L422,289L386,199Z" fill="#a56750" stroke="#a56750" stroke-width="1.51"/><path d="M361,37L420,91L422,33Z" fill="#bf984f" stroke="#bf984f" stroke-width="1.51"/><path d="M361,37L348,102L420,91Z" fill="#bd944f" stroke="#bd944f" stroke-width="1.51"/><path d="M311,181L350,239L386,199Z" fill="#ab7450" stroke="#ab7450" stroke-width="1.51"/><path d="M635,-58L622,-65L580,-27Z" fill="#bf994f" stroke="#bf994f" stroke-width="1.51"/><path d="M767,161L808,108L737,128Z" fill="#a66b50" stroke="#a66b50" stroke-width="1.51"/><path d="M748,97L787,52L723,44Z" fill="#b17e50" stroke="#b17e50" stroke-width="1.51"/><path d="M800,227L796,176L743,210Z" fill="#9c5850" stroke="#9c5850" stroke-width="1.51"/><path d="M800,227L743,210L747,260Z" fill="#985150" stroke="#985150" stroke-width="1.51"/><path d="M311,181L386,199L380,166Z" fill="#ae7950" stroke="#ae7950" stroke-width="1.51"/><path d="M350,239L380,303L422,289Z" fill="#9f5e50" stroke="#9f5e50" stroke-width="1.51"/><path d="M396,359L475,310L422,289Z" fill="#9a5550" stroke="#9a5550" stroke-width="1.51"/><path d="M399,-21L361,37L422,33Z" fill="#c5a34e" stroke="#c5a34e" stroke-width="1.51"/><path d="M399,-21L422,33L440,1Z" fill="#c5a44e" stroke="#c5a44e" stroke-width="1.51"/><path d="M348,102L328,140L380,166Z" fill="#b58650" stroke="#b58650" stroke-width="1.51"/><path d="M315,67L328,140L348,102Z" fill="#bb9050" stroke="#bb9050" stroke-width="1.51"/><path d="M501,-57L451,-55L502,-6Z" fill="#c4a14e" stroke="#c4a14e" stroke-width="1.51"/><path d="M528,-88L451,-55L501,-57Z" fill="#c3a14e" stroke="#c3a14e" stroke-width="1.51"/><path d="M814,281L800,227L747,260Z" fill="#93494f" stroke="#93494f" stroke-width="1.51"/><path d="M723,44L754,-18L698,16Z" fill="#b98d4f" stroke="#b98d4f" stroke-width="1.51"/><path d="M679,-13L702,-68L660,-26Z" fill="#bd944f" stroke="#bd944f" stroke-width="1.51"/><path d="M808,108L787,52L748,97Z" fill="#ad7750" stroke="#ad7750" stroke-width="1.51"/><path d="M808,108L767,161L796,176Z" fill="#a46550" stroke="#a46550" stroke-width="1.51"/><path d="M825,115L808,108L796,176Z" fill="#a56950" stroke="#a56950" stroke-width="1.51"/><path d="M451,-55L399,-21L440,1Z" fill="#c5a54e" stroke="#c5a54e" stroke-width="1.51"/><path d="M622,-65L528,-88L562,-37Z" fill="#c19b4f" stroke="#c19b4f" stroke-width="1.51"/><path d="M361,37L340,58L348,102Z" fill="#bf984f" stroke="#bf984f" stroke-width="1.51"/><path d="M315,67L340,58L312,9Z" fill="#c3a04e" stroke="#c3a04e" stroke-width="1.51"/><path d="M350,239L357,292L380,303Z" fill="#a05f50" stroke="#a05f50" stroke-width="1.51"/><path d="M396,359L422,289L396,304Z" fill="#9b5750" stroke="#9b5750" stroke-width="1.51"/><path d="M325,246L357,292L350,239Z" fill="#a36650" stroke="#a36650" stroke-width="1.51"/><path d="M787,52L754,-18L723,44Z" fill="#b78850" stroke="#b78850" stroke-width="1.51"/><path d="M635,-58L702,-68L622,-65Z" fill="#be964f" stroke="#be964f" stroke-width="1.51"/><path d="M728,359L772,314L729,310Z" fill="#8d404f" stroke="#8d404f" stroke-width="1.51"/><path d="M729,310L772,314L747,260Z" fill="#8e414e" stroke="#8e414e" stroke-width="1.51"/><path d="M699,339L728,359L729,310Z" fill="#8f414f" stroke="#8f414f" stroke-width="1.51"/><path d="M694,383L699,339L664,344Z" fill="#90434f" stroke="#90434f" stroke-width="1.51"/><path d="M328,140L311,181L380,166Z" fill="#b27f50" stroke="#b27f50" stroke-width="1.51"/><path d="M284,141L311,181L328,140Z" fill="#b48350" stroke="#b48350" stroke-width="1.51"/><path d="M540,371L694,383L619,343Z" fill="#93484f" stroke="#93484f" stroke-width="1.51"/><path d="M309,223L325,246L350,239Z" fill="#a86d50" stroke="#a86d50" stroke-width="1.51"/><path d="M808,108L813,56L787,52Z" fill="#ae7950" stroke="#ae7950" stroke-width="1.51"/><path d="M787,52L782,-33L754,-18Z" fill="#b98e50" stroke="#b98e50" stroke-width="1.51"/><path d="M838,154L825,115L796,176Z" fill="#a36350" stroke="#a36350" stroke-width="1.51"/><path d="M754,-18L702,-68L679,-13Z" fill="#bc924f" stroke="#bc924f" stroke-width="1.51"/><path d="M622,-65L702,-68L528,-88Z" fill="#bf984f" stroke="#bf984f" stroke-width="1.51"/><path d="M396,359L396,304L380,303Z" fill="#9b574f" stroke="#9b574f" stroke-width="1.51"/><path d="M500,365L441,386L540,371Z" fill="#98514f" stroke="#98514f" stroke-width="1.51"/><path d="M540,371L441,386L694,383Z" fill="#954c4f" stroke="#954c4f" stroke-width="1.51"/><path d="M820,60L813,56L808,108Z" fill="#ad7850" stroke="#ad7850" stroke-width="1.51"/><path d="M357,365L380,303L357,292Z" fill="#9c5950" stroke="#9c5950" stroke-width="1.51"/><path d="M357,365L396,359L380,303Z" fill="#9c5850" stroke="#9c5850" stroke-width="1.51"/><path d="M800,227L828,217L796,176Z" fill="#9a5550" stroke="#9a5550" stroke-width="1.51"/><path d="M834,255L828,217L800,227Z" fill="#954d50" stroke="#954d50" stroke-width="1.51"/><path d="M311,181L309,223L350,239Z" fill="#ab7350" stroke="#ab7350" stroke-width="1.51"/><path d="M319,351L357,365L357,292Z" fill="#9d5b50" stroke="#9d5b50" stroke-width="1.51"/><path d="M340,58L315,67L348,102Z" fill="#be974f" stroke="#be974f" stroke-width="1.51"/><path d="M311,181L277,211L309,223Z" fill="#ad7751" stroke="#ad7751" stroke-width="1.51"/><path d="M312,9L340,58L361,37Z" fill="#c4a14e" stroke="#c4a14e" stroke-width="1.51"/><path d="M782,-33L756,-57L754,-18Z" fill="#ba8f50" stroke="#ba8f50" stroke-width="1.51"/><path d="M825,115L820,60L808,108Z" fill="#aa7250" stroke="#aa7250" stroke-width="1.51"/><path d="M825,115L879,93L820,60Z" fill="#aa7250" stroke="#aa7250" stroke-width="1.51"/><path d="M828,217L838,154L796,176Z" fill="#9d5a50" stroke="#9d5a50" stroke-width="1.51"/><path d="M772,314L814,281L747,260Z" fill="#8f414f" stroke="#8f414f" stroke-width="1.51"/><path d="M847,329L814,281L772,314Z" fill="#8b3b4e" stroke="#8b3b4e" stroke-width="1.51"/><path d="M373,-43L342,-6L399,-21Z" fill="#c8a94d" stroke="#c8a94d" stroke-width="1.51"/><path d="M399,-21L342,-6L361,37Z" fill="#c7a84d" stroke="#c7a84d" stroke-width="1.51"/><path d="M388,-76L373,-43L399,-21Z" fill="#c7a84d" stroke="#c7a84d" stroke-width="1.51"/><path d="M388,-76L399,-21L451,-55Z" fill="#c6a64e" stroke="#c6a64e" stroke-width="1.51"/><path d="M814,281L834,255L800,227Z" fill="#92474f" stroke="#92474f" stroke-width="1.51"/><path d="M828,217L870,163L838,154Z" fill="#9d5a50" stroke="#9d5a50" stroke-width="1.51"/><path d="M754,-18L756,-57L702,-68Z" fill="#bb904f" stroke="#bb904f" stroke-width="1.51"/><path d="M782,-33L787,52L813,56Z" fill="#b58650" stroke="#b58650" stroke-width="1.51"/><path d="M260,93L284,141L315,67Z" fill="#bd9350" stroke="#bd9350" stroke-width="1.51"/><path d="M315,67L284,141L328,140Z" fill="#ba8e50" stroke="#ba8e50" stroke-width="1.51"/><path d="M787,-44L782,-33L817,-45Z" fill="#b98d50" stroke="#b98d50" stroke-width="1.51"/><path d="M289,-35L312,9L342,-6Z" fill="#caad4d" stroke="#caad4d" stroke-width="1.51"/><path d="M528,-88L388,-76L451,-55Z" fill="#c5a34e" stroke="#c5a34e" stroke-width="1.51"/><path d="M342,-6L312,9L361,37Z" fill="#c7a74d" stroke="#c7a74d" stroke-width="1.51"/><path d="M281,16L312,9L269,-9Z" fill="#caad4d" stroke="#caad4d" stroke-width="1.51"/><path d="M256,175L277,211L311,181Z" fill="#b07c50" stroke="#b07c50" stroke-width="1.51"/><path d="M309,223L275,258L325,246Z" fill="#a76d51" stroke="#a76d51" stroke-width="1.51"/><path d="M782,-33L787,-44L756,-57Z" fill="#b98e50" stroke="#b98e50" stroke-width="1.51"/><path d="M856,26L782,-33L813,56Z" fill="#b68750" stroke="#b68750" stroke-width="1.51"/><path d="M396,359L357,365L441,386Z" fill="#9b5750" stroke="#9b5750" stroke-width="1.51"/><path d="M308,305L357,292L325,246Z" fill="#a16150" stroke="#a16150" stroke-width="1.51"/><path d="M728,359L783,364L772,314Z" fill="#8d3e4e" stroke="#8d3e4e" stroke-width="1.51"/><path d="M814,281L867,316L834,255Z" fill="#8c3d4e" stroke="#8c3d4e" stroke-width="1.51"/><path d="M694,383L783,364L728,359Z" fill="#8e404f" stroke="#8e404f" stroke-width="1.51"/><path d="M275,258L308,305L325,246Z" fill="#a36650" stroke="#a36650" stroke-width="1.51"/><path d="M905,218L870,163L828,217Z" fill="#995350" stroke="#995350" stroke-width="1.51"/><path d="M838,154L873,116L825,115Z" fill="#a46750" stroke="#a46750" stroke-width="1.51"/><path d="M820,60L856,26L813,56Z" fill="#b17d50" stroke="#b17d50" stroke-width="1.51"/><path d="M870,163L873,116L838,154Z" fill="#a16250" stroke="#a16250" stroke-width="1.51"/><path d="M277,211L275,258L309,223Z" fill="#aa7150" stroke="#aa7150" stroke-width="1.51"/><path d="M277,211L234,244L275,258Z" fill="#a97150" stroke="#a97150" stroke-width="1.51"/><path d="M284,141L256,175L311,181Z" fill="#b38250" stroke="#b38250" stroke-width="1.51"/><path d="M217,100L256,175L284,141Z" fill="#b88c4f" stroke="#b88c4f" stroke-width="1.51"/><path d="M281,16L260,93L315,67Z" fill="#c39e4f" stroke="#c39e4f" stroke-width="1.51"/><path d="M879,93L856,26L820,60Z" fill="#ae7950" stroke="#ae7950" stroke-width="1.51"/><path d="M267,325L319,351L308,305Z" fill="#9f5e50" stroke="#9f5e50" stroke-width="1.51"/><path d="M308,305L319,351L357,292Z" fill="#9e5c50" stroke="#9e5c50" stroke-width="1.51"/><path d="M873,116L879,93L825,115Z" fill="#a66c50" stroke="#a66c50" stroke-width="1.51"/><path d="M938,103L879,93L873,116Z" fill="#a66a50" stroke="#a66a50" stroke-width="1.51"/><path d="M312,9L281,16L315,67Z" fill="#c6a54e" stroke="#c6a54e" stroke-width="1.51"/><path d="M289,-35L342,-6L311,-69Z" fill="#caad4d" stroke="#caad4d" stroke-width="1.51"/><path d="M787,-44L817,-45L756,-57Z" fill="#b98d50" stroke="#b98d50" stroke-width="1.51"/><path d="M756,-57L996,-90L702,-68Z" fill="#b88b50" stroke="#b88b50" stroke-width="1.51"/><path d="M847,-27L817,-45L782,-33Z" fill="#b88b50" stroke="#b88b50" stroke-width="1.51"/><path d="M834,255L905,218L828,217Z" fill="#954b4f" stroke="#954b4f" stroke-width="1.51"/><path d="M783,364L847,329L772,314Z" fill="#8b3b4e" stroke="#8b3b4e" stroke-width="1.51"/><path d="M856,26L847,-27L782,-33Z" fill="#b88a50" stroke="#b88a50" stroke-width="1.51"/><path d="M879,93L875,27L856,26Z" fill="#af7b50" stroke="#af7b50" stroke-width="1.51"/><path d="M868,-18L847,-27L856,26Z" fill="#b78850" stroke="#b78850" stroke-width="1.51"/><path d="M847,329L867,316L814,281Z" fill="#8a384e" stroke="#8a384e" stroke-width="1.51"/><path d="M870,163L938,103L873,116Z" fill="#a36450" stroke="#a36450" stroke-width="1.51"/><path d="M230,10L217,100L260,93Z" fill="#c39f4e" stroke="#c39f4e" stroke-width="1.51"/><path d="M311,-69L342,-6L373,-43Z" fill="#c9ab4d" stroke="#c9ab4d" stroke-width="1.51"/><path d="M289,-35L269,-9L312,9Z" fill="#caae4d" stroke="#caae4d" stroke-width="1.51"/><path d="M388,-76L311,-69L373,-43Z" fill="#c8aa4d" stroke="#c8aa4d" stroke-width="1.51"/><path d="M237,-29L230,10L269,-9Z" fill="#ccb14c" stroke="#ccb14c" stroke-width="1.51"/><path d="M892,279L905,218L834,255Z" fill="#90444f" stroke="#90444f" stroke-width="1.51"/><path d="M879,93L915,22L875,27Z" fill="#ae7a50" stroke="#ae7a50" stroke-width="1.51"/><path d="M275,258L267,325L308,305Z" fill="#a06050" stroke="#a06050" stroke-width="1.51"/><path d="M228,320L267,325L275,258Z" fill="#a16050" stroke="#a16050" stroke-width="1.51"/><path d="M210,191L234,244L277,211Z" fill="#ae7850" stroke="#ae7850" stroke-width="1.51"/><path d="M210,191L277,211L256,175Z" fill="#b07d50" stroke="#b07d50" stroke-width="1.51"/><path d="M217,100L284,141L260,93Z" fill="#bc934f" stroke="#bc934f" stroke-width="1.51"/><path d="M867,316L892,279L834,255Z" fill="#8c3b4e" stroke="#8c3b4e" stroke-width="1.51"/><path d="M234,244L235,251L275,258Z" fill="#a86e50" stroke="#a86e50" stroke-width="1.51"/><path d="M875,27L868,-18L856,26Z" fill="#b58550" stroke="#b58550" stroke-width="1.51"/><path d="M847,-27L876,-44L817,-45Z" fill="#b7894f" stroke="#b7894f" stroke-width="1.51"/><path d="M876,-44L868,-18L937,-26Z" fill="#b58650" stroke="#b58650" stroke-width="1.51"/><path d="M905,218L912,216L870,163Z" fill="#985150" stroke="#985150" stroke-width="1.51"/><path d="M914,271L912,216L905,218Z" fill="#91464f" stroke="#91464f" stroke-width="1.51"/><path d="M783,364L840,386L847,329Z" fill="#8a3a4e" stroke="#8a3a4e" stroke-width="1.51"/><path d="M847,329L896,365L867,316Z" fill="#89374e" stroke="#89374e" stroke-width="1.51"/><path d="M933,317L914,271L892,279Z" fill="#89374e" stroke="#89374e" stroke-width="1.51"/><path d="M694,383L840,386L783,364Z" fill="#8c3e4e" stroke="#8c3e4e" stroke-width="1.51"/><path d="M441,386L840,386L694,383Z" fill="#91454f" stroke="#91454f" stroke-width="1.51"/><path d="M230,10L260,93L281,16Z" fill="#c6a54e" stroke="#c6a54e" stroke-width="1.51"/><path d="M234,244L160,227L235,251Z" fill="#ab7451" stroke="#ab7451" stroke-width="1.51"/><path d="M194,136L210,191L256,175Z" fill="#b58650" stroke="#b58650" stroke-width="1.51"/><path d="M267,325L284,378L319,351Z" fill="#9f5e50" stroke="#9f5e50" stroke-width="1.51"/><path d="M319,351L284,378L357,365Z" fill="#9e5c50" stroke="#9e5c50" stroke-width="1.51"/><path d="M357,365L284,378L441,386Z" fill="#9c5950" stroke="#9c5950" stroke-width="1.51"/><path d="M210,351L284,378L267,325Z" fill="#a16150" stroke="#a16150" stroke-width="1.51"/><path d="M228,320L275,258L235,251Z" fill="#a46850" stroke="#a46850" stroke-width="1.51"/><path d="M892,279L914,271L905,218Z" fill="#8e414f" stroke="#8e414f" stroke-width="1.51"/><path d="M933,317L892,279L867,316Z" fill="#87344e" stroke="#87344e" stroke-width="1.51"/><path d="M868,-18L876,-44L847,-27Z" fill="#b68850" stroke="#b68850" stroke-width="1.51"/><path d="M817,-45L996,-90L756,-57Z" fill="#b78850" stroke="#b78850" stroke-width="1.51"/><path d="M915,22L868,-18L875,27Z" fill="#b48350" stroke="#b48350" stroke-width="1.51"/><path d="M269,-9L230,10L281,16Z" fill="#caaf4d" stroke="#caaf4d" stroke-width="1.51"/><path d="M237,-29L269,-9L289,-35Z" fill="#cbb04c" stroke="#cbb04c" stroke-width="1.51"/><path d="M912,216L936,197L870,163Z" fill="#985250" stroke="#985250" stroke-width="1.51"/><path d="M976,265L936,197L912,216Z" fill="#92474f" stroke="#92474f" stroke-width="1.51"/><path d="M938,103L915,22L879,93Z" fill="#aa7250" stroke="#aa7250" stroke-width="1.51"/><path d="M936,197L938,103L870,163Z" fill="#9e5b50" stroke="#9e5b50" stroke-width="1.51"/><path d="M311,-69L283,-85L289,-35Z" fill="#caae4d" stroke="#caae4d" stroke-width="1.51"/><path d="M388,-76L283,-85L311,-69Z" fill="#c9ac4d" stroke="#c9ac4d" stroke-width="1.51"/><path d="M528,-88L283,-85L388,-76Z" fill="#c7a74e" stroke="#c7a74e" stroke-width="1.51"/><path d="M217,100L194,136L256,175Z" fill="#ba8e4f" stroke="#ba8e4f" stroke-width="1.51"/><path d="M171,148L194,136L149,95Z" fill="#bd944f" stroke="#bd944f" stroke-width="1.51"/><path d="M228,320L235,251L145,252Z" fill="#a66b50" stroke="#a66b50" stroke-width="1.51"/><path d="M210,351L228,320L144,323Z" fill="#a36550" stroke="#a36550" stroke-width="1.51"/><path d="M149,95L194,136L217,100Z" fill="#bf984f" stroke="#bf984f" stroke-width="1.51"/><path d="M283,-85L237,-29L289,-35Z" fill="#cbb04c" stroke="#cbb04c" stroke-width="1.51"/><path d="M938,103L950,92L915,22Z" fill="#a97050" stroke="#a97050" stroke-width="1.51"/><path d="M979,130L950,92L938,103Z" fill="#a36550" stroke="#a36550" stroke-width="1.51"/><path d="M914,271L976,265L912,216Z" fill="#8e404f" stroke="#8e404f" stroke-width="1.51"/><path d="M840,386L896,365L847,329Z" fill="#89374e" stroke="#89374e" stroke-width="1.51"/><path d="M194,136L171,148L210,191Z" fill="#b88a4f" stroke="#b88a4f" stroke-width="1.51"/><path d="M180,25L217,100L230,10Z" fill="#c7a84e" stroke="#c7a84e" stroke-width="1.51"/><path d="M924,353L933,317L867,316Z" fill="#87334e" stroke="#87334e" stroke-width="1.51"/><path d="M936,197L968,167L938,103Z" fill="#9c5950" stroke="#9c5950" stroke-width="1.51"/><path d="M990,199L968,167L936,197Z" fill="#974f50" stroke="#974f50" stroke-width="1.51"/><path d="M896,365L924,353L867,316Z" fill="#88344e" stroke="#88344e" stroke-width="1.51"/><path d="M228,320L210,351L267,325Z" fill="#a16250" stroke="#a16250" stroke-width="1.51"/><path d="M160,227L234,244L210,191Z" fill="#ae7a50" stroke="#ae7a50" stroke-width="1.51"/><path d="M171,148L161,189L210,191Z" fill="#b58650" stroke="#b58650" stroke-width="1.51"/><path d="M171,-12L180,25L230,10Z" fill="#cdb34d" stroke="#cdb34d" stroke-width="1.51"/><path d="M171,148L140,138L161,189Z" fill="#b98d4f" stroke="#b98d4f" stroke-width="1.51"/><path d="M171,-12L230,10L237,-29Z" fill="#cdb34c" stroke="#cdb34c" stroke-width="1.51"/><path d="M915,22L937,-26L868,-18Z" fill="#b58550" stroke="#b58550" stroke-width="1.51"/><path d="M997,20L937,-26L915,22Z" fill="#b28150" stroke="#b28150" stroke-width="1.51"/><path d="M997,20L915,22L950,92Z" fill="#ad7650" stroke="#ad7650" stroke-width="1.51"/><path d="M968,167L979,130L938,103Z" fill="#9f5e50" stroke="#9f5e50" stroke-width="1.51"/><path d="M1049,179L979,130L968,167Z" fill="#9a554f" stroke="#9a554f" stroke-width="1.51"/><path d="M161,189L160,227L210,191Z" fill="#b28050" stroke="#b28050" stroke-width="1.51"/><path d="M933,317L976,265L914,271Z" fill="#88364e" stroke="#88364e" stroke-width="1.51"/><path d="M979,319L976,265L933,317Z" fill="#85304e" stroke="#85304e" stroke-width="1.51"/><path d="M937,-26L938,-50L876,-44Z" fill="#b48450" stroke="#b48450" stroke-width="1.51"/><path d="M876,-44L996,-90L817,-45Z" fill="#b58650" stroke="#b58650" stroke-width="1.51"/><path d="M702,-68L996,-90L528,-88Z" fill="#ba904f" stroke="#ba904f" stroke-width="1.51"/><path d="M992,-19L938,-50L937,-26Z" fill="#b38250" stroke="#b38250" stroke-width="1.51"/><path d="M180,25L149,95L217,100Z" fill="#c4a14e" stroke="#c4a14e" stroke-width="1.51"/><path d="M96,230L145,252L160,227Z" fill="#af7a50" stroke="#af7a50" stroke-width="1.51"/><path d="M976,265L990,199L936,197Z" fill="#92464f" stroke="#92464f" stroke-width="1.51"/><path d="M149,95L140,138L171,148Z" fill="#be954f" stroke="#be954f" stroke-width="1.51"/><path d="M180,25L122,52L149,95Z" fill="#c8a84e" stroke="#c8a84e" stroke-width="1.51"/><path d="M149,95L99,91L140,138Z" fill="#c19c4f" stroke="#c19c4f" stroke-width="1.51"/><path d="M169,-71L171,-12L237,-29Z" fill="#ceb54c" stroke="#ceb54c" stroke-width="1.51"/><path d="M96,230L160,227L161,189Z" fill="#b17f50" stroke="#b17f50" stroke-width="1.51"/><path d="M160,227L145,252L235,251Z" fill="#ac7550" stroke="#ac7550" stroke-width="1.51"/><path d="M528,-88L206,-89L283,-85Z" fill="#c9ab4d" stroke="#c9ab4d" stroke-width="1.51"/><path d="M283,-85L206,-89L237,-29Z" fill="#ccb14c" stroke="#ccb14c" stroke-width="1.51"/><path d="M924,353L979,319L933,317Z" fill="#86314e" stroke="#86314e" stroke-width="1.51"/><path d="M976,265L1024,214L990,199Z" fill="#90434f" stroke="#90434f" stroke-width="1.51"/><path d="M979,130L1007,77L950,92Z" fill="#a46550" stroke="#a46550" stroke-width="1.51"/><path d="M1021,115L1007,77L979,130Z" fill="#a16250" stroke="#a16250" stroke-width="1.51"/><path d="M1021,115L979,130L1049,179Z" fill="#9c5850" stroke="#9c5850" stroke-width="1.51"/><path d="M1007,77L997,20L950,92Z" fill="#a96f50" stroke="#a96f50" stroke-width="1.51"/><path d="M145,252L132,281L228,320Z" fill="#a66a50" stroke="#a66a50" stroke-width="1.51"/><path d="M96,230L132,281L145,252Z" fill="#ac7550" stroke="#ac7550" stroke-width="1.51"/><path d="M1007,77L1020,65L997,20Z" fill="#a97050" stroke="#a97050" stroke-width="1.51"/><path d="M1049,179L968,167L990,199Z" fill="#964e4f" stroke="#964e4f" stroke-width="1.51"/><path d="M132,281L144,323L228,320Z" fill="#a46650" stroke="#a46650" stroke-width="1.51"/><path d="M140,138L97,174L161,189Z" fill="#b88c50" stroke="#b88c50" stroke-width="1.51"/><path d="M171,-12L122,52L180,25Z" fill="#ccb14d" stroke="#ccb14d" stroke-width="1.51"/><path d="M139,-26L122,52L171,-12Z" fill="#cfb64c" stroke="#cfb64c" stroke-width="1.51"/><path d="M997,20L992,-19L937,-26Z" fill="#b28050" stroke="#b28050" stroke-width="1.51"/><path d="M1026,13L992,-19L997,20Z" fill="#b17d50" stroke="#b17d50" stroke-width="1.51"/><path d="M1032,272L1024,214L976,265Z" fill="#8b3b4e" stroke="#8b3b4e" stroke-width="1.51"/><path d="M206,-89L169,-71L237,-29Z" fill="#cdb44c" stroke="#cdb44c" stroke-width="1.51"/><path d="M1021,115L1020,65L1007,77Z" fill="#a46750" stroke="#a46750" stroke-width="1.51"/><path d="M1026,13L1020,65L1083,8Z" fill="#ac7450" stroke="#ac7450" stroke-width="1.51"/><path d="M169,-71L139,-26L171,-12Z" fill="#cfb74c" stroke="#cfb74c" stroke-width="1.51"/><path d="M979,319L1032,272L976,265Z" fill="#86314e" stroke="#86314e" stroke-width="1.51"/><path d="M924,353L995,349L979,319Z" fill="#852f4e" stroke="#852f4e" stroke-width="1.51"/><path d="M896,365L995,349L924,353Z" fill="#86314e" stroke="#86314e" stroke-width="1.51"/><path d="M1022,350L995,349L1067,385Z" fill="#822a4d" stroke="#822a4d" stroke-width="1.51"/><path d="M144,323L158,385L210,351Z" fill="#a46650" stroke="#a46650" stroke-width="1.51"/><path d="M210,351L158,385L284,378Z" fill="#a26350" stroke="#a26350" stroke-width="1.51"/><path d="M284,378L158,385L441,386Z" fill="#9f5e50" stroke="#9f5e50" stroke-width="1.51"/><path d="M133,338L158,385L144,323Z" fill="#a56850" stroke="#a56850" stroke-width="1.51"/><path d="M86,295L144,323L132,281Z" fill="#a66a50" stroke="#a66a50" stroke-width="1.51"/><path d="M86,295L133,338L144,323Z" fill="#a66a50" stroke="#a66a50" stroke-width="1.51"/><path d="M74,130L97,174L140,138Z" fill="#bc934f" stroke="#bc934f" stroke-width="1.51"/><path d="M122,52L99,91L149,95Z" fill="#c5a44e" stroke="#c5a44e" stroke-width="1.51"/><path d="M65,89L99,91L122,52Z" fill="#c7a64e" stroke="#c7a64e" stroke-width="1.51"/><path d="M1024,214L1049,179L990,199Z" fill="#93484f" stroke="#93484f" stroke-width="1.51"/><path d="M1039,325L1032,272L979,319Z" fill="#832b4d" stroke="#832b4d" stroke-width="1.51"/><path d="M97,174L96,230L161,189Z" fill="#b58550" stroke="#b58550" stroke-width="1.51"/><path d="M1068,105L1020,65L1021,115Z" fill="#a26350" stroke="#a26350" stroke-width="1.51"/><path d="M1020,65L1026,13L997,20Z" fill="#ac7550" stroke="#ac7550" stroke-width="1.51"/><path d="M1062,198L1049,179L1024,214Z" fill="#92474f" stroke="#92474f" stroke-width="1.51"/><path d="M139,-26L67,-23L122,52Z" fill="#d1ba4b" stroke="#d1ba4b" stroke-width="1.51"/><path d="M169,-71L129,-43L139,-26Z" fill="#cfb84c" stroke="#cfb84c" stroke-width="1.51"/><path d="M1062,198L1060,153L1049,179Z" fill="#954c4f" stroke="#954c4f" stroke-width="1.51"/><path d="M1049,179L1060,153L1021,115Z" fill="#995450" stroke="#995450" stroke-width="1.51"/><path d="M133,338L125,371L158,385Z" fill="#a56850" stroke="#a56850" stroke-width="1.51"/><path d="M68,367L125,371L133,338Z" fill="#a66a50" stroke="#a66a50" stroke-width="1.51"/><path d="M995,349L1039,325L979,319Z" fill="#832c4d" stroke="#832c4d" stroke-width="1.51"/><path d="M1032,272L1062,198L1024,214Z" fill="#8d3f4f" stroke="#8d3f4f" stroke-width="1.51"/><path d="M1067,385L995,349L896,365Z" fill="#842d4d" stroke="#842d4d" stroke-width="1.51"/><path d="M1023,-67L996,-90L992,-19Z" fill="#b17f50" stroke="#b17f50" stroke-width="1.51"/><path d="M992,-19L996,-90L938,-50Z" fill="#b28050" stroke="#b28050" stroke-width="1.51"/><path d="M938,-50L996,-90L876,-44Z" fill="#b38350" stroke="#b38350" stroke-width="1.51"/><path d="M528,-88L996,-90L206,-89Z" fill="#c19b4f" stroke="#c19b4f" stroke-width="1.51"/><path d="M99,91L74,130L140,138Z" fill="#c09b4f" stroke="#c09b4f" stroke-width="1.51"/><path d="M97,174L63,186L96,230Z" fill="#b68750" stroke="#b68750" stroke-width="1.51"/><path d="M96,230L86,295L132,281Z" fill="#ab7350" stroke="#ab7350" stroke-width="1.51"/><path d="M65,89L74,130L99,91Z" fill="#c4a04f" stroke="#c4a04f" stroke-width="1.51"/><path d="M1099,249L1062,198L1032,272Z" fill="#8b3a4f" stroke="#8b3a4f" stroke-width="1.51"/><path d="M1022,350L1039,325L995,349Z" fill="#832b4d" stroke="#832b4d" stroke-width="1.51"/><path d="M67,251L86,295L96,230Z" fill="#ad7750" stroke="#ad7750" stroke-width="1.51"/><path d="M1060,153L1068,105L1021,115Z" fill="#9d5a50" stroke="#9d5a50" stroke-width="1.51"/><path d="M1052,-38L1023,-67L992,-19Z" fill="#b17d50" stroke="#b17d50" stroke-width="1.51"/><path d="M1080,81L1068,105L1106,80Z" fill="#a16250" stroke="#a16250" stroke-width="1.51"/><path d="M74,130L63,186L97,174Z" fill="#bb914f" stroke="#bb914f" stroke-width="1.51"/><path d="M1052,-38L992,-19L1026,13Z" fill="#b07d50" stroke="#b07d50" stroke-width="1.51"/><path d="M74,130L44,165L63,186Z" fill="#bc934f" stroke="#bc934f" stroke-width="1.51"/><path d="M41,26L65,89L122,52Z" fill="#caae4d" stroke="#caae4d" stroke-width="1.51"/><path d="M53,209L67,251L96,230Z" fill="#b27f50" stroke="#b27f50" stroke-width="1.51"/><path d="M1068,105L1080,81L1020,65Z" fill="#a36550" stroke="#a36550" stroke-width="1.51"/><path d="M1106,80L1068,105L1122,147Z" fill="#9d5b50" stroke="#9d5b50" stroke-width="1.51"/><path d="M63,186L53,209L96,230Z" fill="#b48550" stroke="#b48550" stroke-width="1.51"/><path d="M44,165L53,209L63,186Z" fill="#b88c50" stroke="#b88c50" stroke-width="1.51"/><path d="M1083,8L1052,-38L1026,13Z" fill="#af7b50" stroke="#af7b50" stroke-width="1.51"/><path d="M16,100L45,148L74,130Z" fill="#c19d4f" stroke="#c19d4f" stroke-width="1.51"/><path d="M45,148L44,165L74,130Z" fill="#be974f" stroke="#be974f" stroke-width="1.51"/><path d="M129,-43L67,-23L139,-26Z" fill="#d1ba4b" stroke="#d1ba4b" stroke-width="1.51"/><path d="M65,89L16,100L74,130Z" fill="#c4a24e" stroke="#c4a24e" stroke-width="1.51"/><path d="M74,-44L67,-23L129,-43Z" fill="#d1bc4b" stroke="#d1bc4b" stroke-width="1.51"/><path d="M74,-44L129,-43L169,-71Z" fill="#d0b94b" stroke="#d0b94b" stroke-width="1.51"/><path d="M19,-70L74,-44L169,-71Z" fill="#d1bc4b" stroke="#d1bc4b" stroke-width="1.51"/><path d="M41,26L55,7L28,-33Z" fill="#d3bf4b" stroke="#d3bf4b" stroke-width="1.51"/><path d="M67,-23L55,7L122,52Z" fill="#d0b94c" stroke="#d0b94c" stroke-width="1.51"/><path d="M1080,81L1083,8L1020,65Z" fill="#a76d51" stroke="#a76d51" stroke-width="1.51"/><path d="M8,203L40,253L53,209Z" fill="#b48450" stroke="#b48450" stroke-width="1.51"/><path d="M53,209L40,253L67,251Z" fill="#b17f50" stroke="#b17f50" stroke-width="1.51"/><path d="M67,251L40,253L86,295Z" fill="#ad7650" stroke="#ad7650" stroke-width="1.51"/><path d="M86,295L68,367L133,338Z" fill="#a76b50" stroke="#a76b50" stroke-width="1.51"/><path d="M1062,198L1122,147L1060,153Z" fill="#954d4f" stroke="#954d4f" stroke-width="1.51"/><path d="M1080,81L1106,80L1083,8Z" fill="#a66a50" stroke="#a66a50" stroke-width="1.51"/><path d="M1094,338L1099,249L1032,272Z" fill="#832b4e" stroke="#832b4e" stroke-width="1.51"/><path d="M1114,249L1099,249L1114,331Z" fill="#832c4d" stroke="#832c4d" stroke-width="1.51"/><path d="M29,320L68,367L86,295Z" fill="#a86e50" stroke="#a86e50" stroke-width="1.51"/><path d="M125,371L68,367L158,385Z" fill="#a66a50" stroke="#a66a50" stroke-width="1.51"/><path d="M1122,147L1068,105L1060,153Z" fill="#9a564f" stroke="#9a564f" stroke-width="1.51"/><path d="M-3,184L8,203L44,165Z" fill="#ba904f" stroke="#ba904f" stroke-width="1.51"/><path d="M44,165L8,203L53,209Z" fill="#b88c50" stroke="#b88c50" stroke-width="1.51"/><path d="M55,7L41,26L122,52Z" fill="#ceb54c" stroke="#ceb54c" stroke-width="1.51"/><path d="M28,-33L55,7L67,-23Z" fill="#d3be4b" stroke="#d3be4b" stroke-width="1.51"/><path d="M1022,350L1067,385L1039,325Z" fill="#82294d" stroke="#82294d" stroke-width="1.51"/><path d="M840,386L1067,385L896,365Z" fill="#86324e" stroke="#86324e" stroke-width="1.51"/><path d="M1099,249L1113,226L1062,198Z" fill="#8c3c4e" stroke="#8c3c4e" stroke-width="1.51"/><path d="M1114,249L1113,226L1099,249Z" fill="#89364e" stroke="#89364e" stroke-width="1.51"/><path d="M1094,338L1032,272L1039,325Z" fill="#81284d" stroke="#81284d" stroke-width="1.51"/><path d="M1150,159L1122,147L1157,180Z" fill="#944a4f" stroke="#944a4f" stroke-width="1.51"/><path d="M1113,226L1122,147L1062,198Z" fill="#91454f" stroke="#91454f" stroke-width="1.51"/><path d="M41,26L16,100L65,89Z" fill="#c9ab4d" stroke="#c9ab4d" stroke-width="1.51"/><path d="M1067,385L1094,338L1039,325Z" fill="#81274d" stroke="#81274d" stroke-width="1.51"/><path d="M1083,8L1098,-29L1052,-38Z" fill="#ae7a50" stroke="#ae7a50" stroke-width="1.51"/><path d="M1052,-38L1082,-90L1023,-67Z" fill="#af7b50" stroke="#af7b50" stroke-width="1.51"/><path d="M1023,-67L1082,-90L996,-90Z" fill="#b07d50" stroke="#b07d50" stroke-width="1.51"/><path d="M1130,35L1098,-29L1083,8Z" fill="#ad7750" stroke="#ad7750" stroke-width="1.51"/><path d="M1130,35L1083,8L1106,80Z" fill="#a86d50" stroke="#a86d50" stroke-width="1.51"/><path d="M40,253L29,320L86,295Z" fill="#aa7150" stroke="#aa7150" stroke-width="1.51"/><path d="M-3,184L44,165L45,148Z" fill="#bc934f" stroke="#bc934f" stroke-width="1.51"/><path d="M-8,277L29,320L40,253Z" fill="#ac7550" stroke="#ac7550" stroke-width="1.51"/><path d="M1098,-29L1082,-90L1052,-38Z" fill="#ae7a50" stroke="#ae7a50" stroke-width="1.51"/><path d="M-20,242L-8,277L40,253Z" fill="#b07c50" stroke="#b07c50" stroke-width="1.51"/><path d="M-35,134L-3,184L45,148Z" fill="#bf984f" stroke="#bf984f" stroke-width="1.51"/><path d="M74,-44L28,-33L67,-23Z" fill="#d2be4b" stroke="#d2be4b" stroke-width="1.51"/><path d="M41,26L-8,51L16,100Z" fill="#ccb14c" stroke="#ccb14c" stroke-width="1.51"/><path d="M16,100L-35,134L45,148Z" fill="#c29f4e" stroke="#c29f4e" stroke-width="1.51"/><path d="M19,-70L28,-33L74,-44Z" fill="#d3bf4b" stroke="#d3bf4b" stroke-width="1.51"/><path d="M1118,364L1114,331L1094,338Z" fill="#7f234d" stroke="#7f234d" stroke-width="1.51"/><path d="M1094,338L1114,331L1099,249Z" fill="#7f244d" stroke="#7f244d" stroke-width="1.51"/><path d="M1157,180L1122,147L1113,226Z" fill="#91444f" stroke="#91444f" stroke-width="1.51"/><path d="M1157,93L1130,35L1106,80Z" fill="#a26450" stroke="#a26450" stroke-width="1.51"/><path d="M1098,-29L1133,-53L1082,-90Z" fill="#ae7850" stroke="#ae7850" stroke-width="1.51"/><path d="M1153,131L1106,80L1122,147Z" fill="#9b5750" stroke="#9b5750" stroke-width="1.51"/><path d="M29,320L24,350L68,367Z" fill="#a86f50" stroke="#a86f50" stroke-width="1.51"/><path d="M-20,314L24,350L29,320Z" fill="#aa7150" stroke="#aa7150" stroke-width="1.51"/><path d="M1157,180L1113,226L1199,222Z" fill="#8c3c4e" stroke="#8c3c4e" stroke-width="1.51"/><path d="M1150,159L1153,131L1122,147Z" fill="#964f4f" stroke="#964f4f" stroke-width="1.51"/><path d="M-30,-10L-8,51L41,26Z" fill="#d1bc4b" stroke="#d1bc4b" stroke-width="1.51"/><path d="M1170,277L1113,226L1114,249Z" fill="#86314e" stroke="#86314e" stroke-width="1.51"/><path d="M1067,385L1118,364L1094,338Z" fill="#80254d" stroke="#80254d" stroke-width="1.51"/><path d="M-20,242L40,253L8,203Z" fill="#b38350" stroke="#b38350" stroke-width="1.51"/><path d="M-20,242L8,203L-3,184Z" fill="#b78a4f" stroke="#b78a4f" stroke-width="1.51"/><path d="M1150,159L1224,115L1153,131Z" fill="#96504f" stroke="#96504f" stroke-width="1.51"/><path d="M1170,277L1114,249L1114,331Z" fill="#81264d" stroke="#81264d" stroke-width="1.51"/><path d="M1153,131L1157,93L1106,80Z" fill="#9d5a50" stroke="#9d5a50" stroke-width="1.51"/><path d="M1130,35L1129,-40L1098,-29Z" fill="#ad7750" stroke="#ad7750" stroke-width="1.51"/><path d="M1224,115L1157,93L1153,131Z" fill="#9a5550" stroke="#9a5550" stroke-width="1.51"/><path d="M1133,-53L1129,-40L1165,-70Z" fill="#ac7650" stroke="#ac7650" stroke-width="1.51"/><path d="M28,-33L-30,-10L41,26Z" fill="#d4c14a" stroke="#d4c14a" stroke-width="1.51"/><path d="M206,-89L19,-70L169,-71Z" fill="#d0b94c" stroke="#d0b94c" stroke-width="1.51"/><path d="M-58,225L-20,242L-3,184Z" fill="#b68850" stroke="#b68850" stroke-width="1.51"/><path d="M-8,51L-22,64L16,100Z" fill="#cbae4d" stroke="#cbae4d" stroke-width="1.51"/><path d="M-57,56L-22,64L-53,21Z" fill="#ceb54c" stroke="#ceb54c" stroke-width="1.51"/><path d="M1129,-40L1133,-53L1098,-29Z" fill="#ad7750" stroke="#ad7750" stroke-width="1.51"/><path d="M1174,26L1129,-40L1130,35Z" fill="#ab7350" stroke="#ab7350" stroke-width="1.51"/><path d="M-22,64L-35,134L16,100Z" fill="#c7a74e" stroke="#c7a74e" stroke-width="1.51"/><path d="M-61,332L-20,314L-96,266Z" fill="#aa7250" stroke="#aa7250" stroke-width="1.51"/><path d="M-8,277L-20,314L29,320Z" fill="#aa7250" stroke="#aa7250" stroke-width="1.51"/><path d="M-96,266L-8,277L-20,242Z" fill="#b07c50" stroke="#b07c50" stroke-width="1.51"/><path d="M1193,0L1174,26L1203,10Z" fill="#a96f50" stroke="#a96f50" stroke-width="1.51"/><path d="M1198,325L1170,277L1114,331Z" fill="#7d1f4d" stroke="#7d1f4d" stroke-width="1.51"/><path d="M24,350L-10,371L68,367Z" fill="#a97050" stroke="#a97050" stroke-width="1.51"/><path d="M68,367L-10,371L158,385Z" fill="#a76d50" stroke="#a76d50" stroke-width="1.51"/><path d="M-20,314L-10,371L24,350Z" fill="#aa7250" stroke="#aa7250" stroke-width="1.51"/><path d="M1157,93L1174,26L1130,35Z" fill="#a46750" stroke="#a46750" stroke-width="1.51"/><path d="M1224,115L1150,159L1228,183Z" fill="#93494f" stroke="#93494f" stroke-width="1.51"/><path d="M19,-70L-30,-10L28,-33Z" fill="#d4c24a" stroke="#d4c24a" stroke-width="1.51"/><path d="M-22,64L-77,104L-35,134Z" fill="#c6a74e" stroke="#c6a74e" stroke-width="1.51"/><path d="M-20,314L-61,332L-10,371Z" fill="#aa7250" stroke="#aa7250" stroke-width="1.51"/><path d="M-78,163L-58,225L-3,184Z" fill="#ba8f50" stroke="#ba8f50" stroke-width="1.51"/><path d="M-78,163L-3,184L-35,134Z" fill="#be974f" stroke="#be974f" stroke-width="1.51"/><path d="M-53,21L-22,64L-8,51Z" fill="#ceb54c" stroke="#ceb54c" stroke-width="1.51"/><path d="M1170,277L1199,222L1113,226Z" fill="#86324e" stroke="#86324e" stroke-width="1.51"/><path d="M-30,-10L-53,21L-8,51Z" fill="#d1bc4b" stroke="#d1bc4b" stroke-width="1.51"/><path d="M1133,-53L1165,-70L1082,-90Z" fill="#ad7650" stroke="#ad7650" stroke-width="1.51"/><path d="M1193,0L1165,-70L1129,-40Z" fill="#ab7450" stroke="#ab7450" stroke-width="1.51"/><path d="M1193,0L1129,-40L1174,26Z" fill="#ab7450" stroke="#ab7450" stroke-width="1.51"/><path d="M19,-70L-29,-84L-30,-10Z" fill="#d4c24a" stroke="#d4c24a" stroke-width="1.51"/><path d="M-30,-10L-69,-21L-53,21Z" fill="#d4c24a" stroke="#d4c24a" stroke-width="1.51"/><path d="M206,-89L-29,-84L19,-70Z" fill="#d2bd4b" stroke="#d2bd4b" stroke-width="1.51"/><path d="M1203,10L1174,26L1227,67Z" fill="#a56850" stroke="#a56850" stroke-width="1.51"/><path d="M-77,104L-22,64L-57,56Z" fill="#caae4d" stroke="#caae4d" stroke-width="1.51"/><path d="M-77,104L-78,163L-35,134Z" fill="#c29e4e" stroke="#c29e4e" stroke-width="1.51"/><path d="M-69,-21L-77,104L-57,56Z" fill="#ceb54c" stroke="#ceb54c" stroke-width="1.51"/><path d="M-69,-21L-57,56L-53,21Z" fill="#d2bd4b" stroke="#d2bd4b" stroke-width="1.51"/><path d="M1199,222L1215,210L1157,180Z" fill="#8b3b4e" stroke="#8b3b4e" stroke-width="1.51"/><path d="M1242,274L1215,210L1199,222Z" fill="#86314e" stroke="#86314e" stroke-width="1.51"/><path d="M1242,274L1199,222L1170,277Z" fill="#822a4d" stroke="#822a4d" stroke-width="1.51"/><path d="M1193,0L1228,-46L1165,-70Z" fill="#aa7250" stroke="#aa7250" stroke-width="1.51"/><path d="M1227,67L1174,26L1157,93Z" fill="#a16250" stroke="#a16250" stroke-width="1.51"/><path d="M1190,372L1198,325L1114,331Z" fill="#7d1e4c" stroke="#7d1e4c" stroke-width="1.51"/><path d="M-96,266L-20,242L-58,225Z" fill="#b28050" stroke="#b28050" stroke-width="1.51"/><path d="M-96,266L-20,314L-8,277Z" fill="#ac7550" stroke="#ac7550" stroke-width="1.51"/><path d="M1228,183L1150,159L1157,180Z" fill="#90444f" stroke="#90444f" stroke-width="1.51"/><path d="M1118,364L1190,372L1114,331Z" fill="#7e214d" stroke="#7e214d" stroke-width="1.51"/><path d="M1067,385L1190,372L1118,364Z" fill="#7e224d" stroke="#7e224d" stroke-width="1.51"/><path d="M1215,210L1228,183L1157,180Z" fill="#8d3e4e" stroke="#8d3e4e" stroke-width="1.51"/><path d="M1256,192L1228,183L1215,210Z" fill="#8c3d4e" stroke="#8c3d4e" stroke-width="1.51"/><path d="M1242,274L1170,277L1237,308Z" fill="#7e204d" stroke="#7e204d" stroke-width="1.51"/><path d="M-29,-84L-69,-21L-30,-10Z" fill="#d4c24a" stroke="#d4c24a" stroke-width="1.51"/><path d="M1224,115L1227,67L1157,93Z" fill="#9c5950" stroke="#9c5950" stroke-width="1.51"/><path d="M1284,79L1227,67L1224,115Z" fill="#9d5a50" stroke="#9d5a50" stroke-width="1.51"/><path d="M-10,371L-63,367L158,385Z" fill="#a97050" stroke="#a97050" stroke-width="1.51"/><path d="M-61,332L-63,367L-10,371Z" fill="#aa7250" stroke="#aa7250" stroke-width="1.51"/><path d="M-96,266L-63,367L-61,332Z" fill="#aa7250" stroke="#aa7250" stroke-width="1.51"/><path d="M1190,372L1200,374L1198,325Z" fill="#7b1c4c" stroke="#7b1c4c" stroke-width="1.51"/><path d="M1067,385L1200,374L1190,372Z" fill="#7d204d" stroke="#7d204d" stroke-width="1.51"/><path d="M-78,163L-96,266L-58,225Z" fill="#b68750" stroke="#b68750" stroke-width="1.51"/><path d="M-77,104L-96,266L-78,163Z" fill="#bc924f" stroke="#bc924f" stroke-width="1.51"/><path d="M-83,-67L-96,266L-77,104Z" fill="#c6a74e" stroke="#c6a74e" stroke-width="1.51"/><path d="M1228,183L1291,146L1224,115Z" fill="#944a4f" stroke="#944a4f" stroke-width="1.51"/><path d="M1237,308L1170,277L1198,325Z" fill="#7b1b4c" stroke="#7b1b4c" stroke-width="1.51"/><path d="M1250,357L1237,308L1198,325Z" fill="#7b1b4c" stroke="#7b1b4c" stroke-width="1.51"/><path d="M1263,253L1215,210L1242,274Z" fill="#842e4d" stroke="#842e4d" stroke-width="1.51"/><path d="M1263,253L1256,192L1215,210Z" fill="#88364e" stroke="#88364e" stroke-width="1.51"/><path d="M-29,-84L-83,-67L-69,-21Z" fill="#d4c24a" stroke="#d4c24a" stroke-width="1.51"/><path d="M-69,-21L-83,-67L-77,104Z" fill="#d4c04a" stroke="#d4c04a" stroke-width="1.51"/><path d="M1245,0L1203,10L1227,67Z" fill="#a66b50" stroke="#a66b50" stroke-width="1.51"/><path d="M1245,0L1193,0L1203,10Z" fill="#aa7150" stroke="#aa7150" stroke-width="1.51"/><path d="M1245,0L1228,-46L1193,0Z" fill="#aa7250" stroke="#aa7250" stroke-width="1.51"/><path d="M1254,2L1245,0L1227,67Z" fill="#a76b50" stroke="#a76b50" stroke-width="1.51"/><path d="M1279,28L1254,2L1227,67Z" fill="#a56950" stroke="#a56950" stroke-width="1.51"/><path d="M1277,297L1263,253L1242,274Z" fill="#7f254d" stroke="#7f254d" stroke-width="1.51"/><path d="M1245,0L1254,2L1228,-46Z" fill="#aa7250" stroke="#aa7250" stroke-width="1.51"/><path d="M1284,79L1224,115L1291,146Z" fill="#995350" stroke="#995350" stroke-width="1.51"/><path d="M1200,374L1250,357L1198,325Z" fill="#7b1b4c" stroke="#7b1b4c" stroke-width="1.51"/><path d="M1237,308L1277,297L1242,274Z" fill="#7c1e4c" stroke="#7c1e4c" stroke-width="1.51"/><path d="M1291,146L1228,183L1256,192Z" fill="#90434f" stroke="#90434f" stroke-width="1.51"/><path d="M1263,253L1289,199L1256,192Z" fill="#89374e" stroke="#89374e" stroke-width="1.51"/><path d="M1277,297L1289,199L1263,253Z" fill="#832d4d" stroke="#832d4d" stroke-width="1.51"/><path d="M1284,79L1279,28L1227,67Z" fill="#a16250" stroke="#a16250" stroke-width="1.51"/><path d="M1254,2L1264,-86L1228,-46Z" fill="#aa7250" stroke="#aa7250" stroke-width="1.51"/><path d="M1250,357L1277,297L1237,308Z" fill="#7b1b4c" stroke="#7b1b4c" stroke-width="1.51"/><path d="M1284,79L1291,146L1279,28Z" fill="#9d5b50" stroke="#9d5b50" stroke-width="1.51"/><path d="M1289,199L1291,146L1256,192Z" fill="#8f414f" stroke="#8f414f" stroke-width="1.51"/><path d="M1228,-46L1264,-86L1165,-70Z" fill="#aa7250" stroke="#aa7250" stroke-width="1.51"/><path d="M1165,-70L1264,-86L1082,-90Z" fill="#ab7450" stroke="#ab7450" stroke-width="1.51"/><path d="M1279,28L1264,-86L1254,2Z" fill="#aa7250" stroke="#aa7250" stroke-width="1.51"/></svg>