<svg xmlns="http://www.w3.org/2000/svg" width="1200" height="300"><path d="M593,153L585,138L548,171Z" fill="#8a243f" stroke="#8a243f" stroke-width="1.51"/><path d="M585,138L569,114L548,171Z" fill="#872241" stroke="#872241" stroke-width="1.51"/><path d="M569,114L489,138L548,171Z" fill="#862142" stroke="#862142" stroke-width="1.51"/><path d="M609,205L631,161L593,153Z" fill="#8e273c" stroke="#8e273c" stroke-width="1.51"/><path d="M593,153L631,161L585,138Z" fill="#8a243f" stroke="#8a243f" stroke-width="1.51"/><path d="M585,138L590,74L569,114Z" fill="#831f45" stroke="#831f45" stroke-width="1.51"/><path d="M569,114L590,74L557,96Z" fill="#801d47" stroke="#801d47" stroke-width="1.51"/><path d="M548,171L609,205L593,153Z" fill="#8e263c" stroke="#8e263c" stroke-width="1.51"/><path d="M489,138L513,187L548,171Z" fill="#8a2340" stroke="#8a2340" stroke-width="1.51"/><path d="M513,187L547,216L548,171Z" fill="#8e263b" stroke="#8e263b" stroke-width="1.51"/><path d="M547,216L609,205L548,171Z" fill="#91283a" stroke="#91283a" stroke-width="1.51"/><path d="M557,96L489,138L569,114Z" fill="#821f46" stroke="#821f46" stroke-width="1.51"/><path d="M647,95L590,74L585,138Z" fill="#831f45" stroke="#831f45" stroke-width="1.51"/><path d="M557,96L525,62L489,138Z" fill="#7f1d48" stroke="#7f1d48" stroke-width="1.51"/><path d="M631,161L647,95L585,138Z" fill="#882241" stroke="#882241" stroke-width="1.51"/><path d="M691,167L658,112L631,161Z" fill="#8c253e" stroke="#8c253e" stroke-width="1.51"/><path d="M631,161L658,112L647,95Z" fill="#882241" stroke="#882241" stroke-width="1.51"/><path d="M615,271L633,243L609,205Z" fill="#992d32" stroke="#992d32" stroke-width="1.51"/><path d="M513,187L527,251L547,216Z" fill="#922938" stroke="#922938" stroke-width="1.51"/><path d="M483,241L527,251L513,187Z" fill="#932938" stroke="#932938" stroke-width="1.51"/><path d="M540,48L525,62L557,96Z" fill="#7b1a4b" stroke="#7b1a4b" stroke-width="1.51"/><path d="M609,205L701,210L631,161Z" fill="#932938" stroke="#932938" stroke-width="1.51"/><path d="M615,271L609,205L547,216Z" fill="#972c34" stroke="#972c34" stroke-width="1.51"/><path d="M489,138L466,201L513,187Z" fill="#8a233f" stroke="#8a233f" stroke-width="1.51"/><path d="M577,18L540,48L590,74Z" fill="#78184d" stroke="#78184d" stroke-width="1.51"/><path d="M590,74L540,48L557,96Z" fill="#7c1b4a" stroke="#7c1b4a" stroke-width="1.51"/><path d="M466,201L483,241L513,187Z" fill="#8f273b" stroke="#8f273b" stroke-width="1.51"/><path d="M701,210L691,167L631,161Z" fill="#922939" stroke="#922939" stroke-width="1.51"/><path d="M527,251L615,271L547,216Z" fill="#972d33" stroke="#972d33" stroke-width="1.51"/><path d="M633,243L701,210L609,205Z" fill="#972c34" stroke="#972c34" stroke-width="1.51"/><path d="M489,138L436,185L466,201Z" fill="#892340" stroke="#892340" stroke-width="1.51"/><path d="M461,56L449,123L489,138Z" fill="#7e1c49" stroke="#7e1c49" stroke-width="1.51"/><path d="M461,56L489,138L525,62Z" fill="#7c1a4b" stroke="#7c1a4b" stroke-width="1.51"/><path d="M527,251L528,277L615,271Z" fill="#9b2f30" stroke="#9b2f30" stroke-width="1.51"/><path d="M483,241L528,277L527,251Z" fill="#972c33" stroke="#972c33" stroke-width="1.51"/><path d="M540,48L510,43L525,62Z" fill="#77184e" stroke="#77184e" stroke-width="1.51"/><path d="M691,167L694,127L658,112Z" fill="#8c243e" stroke="#8c243e" stroke-width="1.51"/><path d="M658,112L690,67L647,95Z" fill="#831f44" stroke="#831f44" stroke-width="1.51"/><path d="M615,271L644,266L633,243Z" fill="#9c302f" stroke="#9c302f" stroke-width="1.51"/><path d="M431,153L436,185L489,138Z" fill="#862143" stroke="#862143" stroke-width="1.51"/><path d="M466,201L461,265L483,241Z" fill="#932a38" stroke="#932a38" stroke-width="1.51"/><path d="M449,123L431,153L489,138Z" fill="#831f45" stroke="#831f45" stroke-width="1.51"/><path d="M650,7L577,18L590,74Z" fill="#77184d" stroke="#77184d" stroke-width="1.51"/><path d="M540,48L502,-6L510,43Z" fill="#731551" stroke="#731551" stroke-width="1.51"/><path d="M650,7L590,74L647,95Z" fill="#7d1b4a" stroke="#7d1b4a" stroke-width="1.51"/><path d="M644,266L701,210L633,243Z" fill="#9b2e30" stroke="#9b2e30" stroke-width="1.51"/><path d="M691,167L737,128L694,127Z" fill="#8d253d" stroke="#8d253d" stroke-width="1.51"/><path d="M510,43L461,56L525,62Z" fill="#76184e" stroke="#76184e" stroke-width="1.51"/><path d="M449,123L408,141L431,153Z" fill="#821f46" stroke="#821f46" stroke-width="1.51"/><path d="M456,51L461,56L510,43Z" fill="#741650" stroke="#741650" stroke-width="1.51"/><path d="M694,127L690,67L658,112Z" fill="#862142" stroke="#862142" stroke-width="1.51"/><path d="M748,97L690,67L694,127Z" fill="#862242" stroke="#862242" stroke-width="1.51"/><path d="M483,241L461,265L528,277Z" fill="#972c33" stroke="#972c33" stroke-width="1.51"/><path d="M436,185L461,265L466,201Z" fill="#8f273b" stroke="#8f273b" stroke-width="1.51"/><path d="M461,56L420,91L449,123Z" fill="#7a1a4c" stroke="#7a1a4c" stroke-width="1.51"/><path d="M502,-6L456,51L510,43Z" fill="#711452" stroke="#711452" stroke-width="1.51"/><path d="M420,91L408,141L449,123Z" fill="#7e1c49" stroke="#7e1c49" stroke-width="1.51"/><path d="M380,166L386,199L436,185Z" fill="#882241" stroke="#882241" stroke-width="1.51"/><path d="M436,185L386,199L461,265Z" fill="#8e263c" stroke="#8e263c" stroke-width="1.51"/><path d="M456,51L420,91L461,56Z" fill="#76174f" stroke="#76174f" stroke-width="1.51"/><path d="M528,277L577,321L615,271Z" fill="#9f312c" stroke="#9f312c" stroke-width="1.51"/><path d="M640,320L679,287L644,266Z" fill="#a23428" stroke="#a23428" stroke-width="1.51"/><path d="M529,332L577,321L528,277Z" fill="#9f322b" stroke="#9f322b" stroke-width="1.51"/><path d="M690,67L650,7L647,95Z" fill="#7d1c49" stroke="#7d1c49" stroke-width="1.51"/><path d="M767,161L737,128L691,167Z" fill="#90283a" stroke="#90283a" stroke-width="1.51"/><path d="M690,67L698,16L650,7Z" fill="#7a194c" stroke="#7a194c" stroke-width="1.51"/><path d="M644,266L679,287L701,210Z" fill="#9d302e" stroke="#9d302e" stroke-width="1.51"/><path d="M701,210L743,210L691,167Z" fill="#962b35" stroke="#962b35" stroke-width="1.51"/><path d="M640,320L644,266L615,271Z" fill="#a0332a" stroke="#a0332a" stroke-width="1.51"/><path d="M577,18L502,-6L540,48Z" fill="#721551" stroke="#721551" stroke-width="1.51"/><path d="M456,51L422,33L420,91Z" fill="#741650" stroke="#741650" stroke-width="1.51"/><path d="M562,-37L502,-6L577,18Z" fill="#6f1353" stroke="#6f1353" stroke-width="1.51"/><path d="M577,321L640,320L615,271Z" fill="#a23329" stroke="#a23329" stroke-width="1.51"/><path d="M461,265L475,310L528,277Z" fill="#9a2f30" stroke="#9a2f30" stroke-width="1.51"/><path d="M422,289L475,310L461,265Z" fill="#9a2e31" stroke="#9a2e31" stroke-width="1.51"/><path d="M482,316L529,332L528,277Z" fill="#9e312c" stroke="#9e312c" stroke-width="1.51"/><path d="M577,321L619,343L640,320Z" fill="#a23329" stroke="#a23329" stroke-width="1.51"/><path d="M475,310L482,316L528,277Z" fill="#9d302e" stroke="#9d302e" stroke-width="1.51"/><path d="M747,260L743,210L701,210Z" fill="#9b2f30" stroke="#9b2f30" stroke-width="1.51"/><path d="M650,7L580,-27L577,18Z" fill="#711552" stroke="#711552" stroke-width="1.51"/><path d="M380,166L436,185L431,153Z" fill="#862143" stroke="#862143" stroke-width="1.51"/><path d="M380,166L431,153L408,141Z" fill="#832045" stroke="#832045" stroke-width="1.51"/><path d="M348,102L380,166L408,141Z" fill="#7f1d48" stroke="#7f1d48" stroke-width="1.51"/><path d="M737,128L748,97L694,127Z" fill="#8a233f" stroke="#8a233f" stroke-width="1.51"/><path d="M808,108L748,97L737,128Z" fill="#8b243f" stroke="#8b243f" stroke-width="1.51"/><path d="M650,7L660,-26L580,-27Z" fill="#721551" stroke="#721551" stroke-width="1.51"/><path d="M723,44L698,16L690,67Z" fill="#7d1b49" stroke="#7d1b49" stroke-width="1.51"/><path d="M748,97L723,44L690,67Z" fill="#821e45" stroke="#821e45" stroke-width="1.51"/><path d="M440,1L422,33L456,51Z" fill="#6f1453" stroke="#6f1453" stroke-width="1.51"/><path d="M420,91L348,102L408,141Z" fill="#7c1b4b" stroke="#7c1b4b" stroke-width="1.51"/><path d="M729,310L747,260L679,287Z" fill="#a43527" stroke="#a43527" stroke-width="1.51"/><path d="M540,371L619,343L577,321Z" fill="#a1332a" stroke="#a1332a" stroke-width="1.51"/><path d="M580,-27L562,-37L577,18Z" fill="#701353" stroke="#701353" stroke-width="1.51"/><path d="M502,-6L440,1L456,51Z" fill="#6d1254" stroke="#6d1254" stroke-width="1.51"/><path d="M622,-65L562,-37L580,-27Z" fill="#701452" stroke="#701452" stroke-width="1.51"/><path d="M441,386L500,365L482,316Z" fill="#9d302e" stroke="#9d302e" stroke-width="1.51"/><path d="M386,199L422,289L461,265Z" fill="#932a37" stroke="#932a37" stroke-width="1.51"/><path d="M743,210L767,161L691,167Z" fill="#942a37" stroke="#942a37" stroke-width="1.51"/><path d="M451,-55L440,1L502,-6Z" fill="#6a1156" stroke="#6a1156" stroke-width="1.51"/><path d="M698,16L679,-13L650,7Z" fill="#75174f" stroke="#75174f" stroke-width="1.51"/><path d="M754,-18L679,-13L698,16Z" fill="#76184e" stroke="#76184e" stroke-width="1.51"/><path d="M679,-13L660,-26L650,7Z" fill="#741650" stroke="#741650" stroke-width="1.51"/><path d="M743,210L796,176L767,161Z" fill="#962c35" stroke="#962c35" stroke-width="1.51"/><path d="M679,287L747,260L701,210Z" fill="#9e312c" stroke="#9e312c" stroke-width="1.51"/><path d="M664,344L679,287L640,320Z" fill="#a33527" stroke="#a33527" stroke-width="1.51"/><path d="M619,343L664,344L640,320Z" fill="#a33428" stroke="#a33428" stroke-width="1.51"/><path d="M529,332L540,371L577,321Z" fill="#9f322b" stroke="#9f322b" stroke-width="1.51"/><path d="M619,343L694,383L664,344Z" fill="#a33527" stroke="#a33527" stroke-width="1.51"/><path d="M500,365L540,371L529,332Z" fill="#9e312c" stroke="#9e312c" stroke-width="1.51"/><path d="M500,365L529,332L482,316Z" fill="#9e312d" stroke="#9e312d" stroke-width="1.51"/><path d="M441,386L482,316L475,310Z" fill="#9c302e" stroke="#9c302e" stroke-width="1.51"/><path d="M699,339L729,310L679,287Z" fill="#a53625" stroke="#a53625" stroke-width="1.51"/><path d="M562,-37L501,-57L502,-6Z" fill="#6d1354" stroke="#6d1354" stroke-width="1.51"/><path d="M528,-88L501,-57L562,-37Z" fill="#6e1254" stroke="#6e1254" stroke-width="1.51"/><path d="M664,344L699,339L679,287Z" fill="#a43526" stroke="#a43526" stroke-width="1.51"/><path d="M728,359L699,339L694,383Z" fill="#a53625" stroke="#a53625" stroke-width="1.51"/><path d="M660,-26L635,-58L580,-27Z" fill="#721551" stroke="#721551" stroke-width="1.51"/><path d="M702,-68L635,-58L660,-26Z" fill="#741650" stroke="#741650" stroke-width="1.51"/><path d="M396,359L441,386L475,310Z" fill="#9b2f2f" stroke="#9b2f2f" stroke-width="1.51"/><path d="M380,303L396,304L422,289Z" fill="#9a2e31" stroke="#9a2e31" stroke-width="1.51"/><path d="M350,239L422,289L386,199Z" fill="#902839" stroke="#902839" stroke-width="1.51"/><path d="M361,37L420,91L422,33Z" fill="#721552" stroke="#721552" stroke-width="1.51"/><path d="M361,37L348,102L420,91Z" fill="#75164f" stroke="#75164f" stroke-width="1.51"/><path d="M311,181L350,239L386,199Z" fill="#892340" stroke="#892340" stroke-width="1.51"/><path d="M635,-58L622,-65L580,-27Z" fill="#711451" stroke="#711451" stroke-width="1.51"/><path d="M767,161L808,108L737,128Z" fill="#8f273b" stroke="#8f273b" stroke-width="1.51"/><path d="M748,97L787,52L723,44Z" fill="#831f45" stroke="#831f45" stroke-width="1.51"/><path d="M800,227L796,176L743,210Z" fill="#9a2e31" stroke="#9a2e31" stroke-width="1.51"/><path d="M800,227L743,210L747,260Z" fill="#9d312e" stroke="#9d312e" stroke-width="1.51"/><path d="M311,181L386,199L380,166Z" fill="#862042" stroke="#862042" stroke-width="1.51"/><path d="M350,239L380,303L422,289Z" fill="#952b35" stroke="#952b35" stroke-width="1.51"/><path d="M396,359L475,310L422,289Z" fill="#9b2f30" stroke="#9b2f30" stroke-width="1.51"/><path d="M399,-21L361,37L422,33Z" fill="#6a1156" stroke="#6a1156" stroke-width="1.51"/><path d="M399,-21L422,33L440,1Z" fill="#6a1157" stroke="#6a1157" stroke-width="1.51"/><path d="M348,102L328,140L380,166Z" fill="#7e1c49" stroke="#7e1c49" stroke-width="1.51"/><path d="M315,67L328,140L348,102Z" fill="#78184e" stroke="#78184e" stroke-width="1.51"/><path d="M501,-57L451,-55L502,-6Z" fill="#6c1255" stroke="#6c1255" stroke-width="1.51"/><path d="M528,-88L451,-55L501,-57Z" fill="#6c1155" stroke="#6c1155" stroke-width="1.51"/><path d="M814,281L800,227L747,260Z" fill="#a23429" stroke="#a23429" stroke-width="1.51"/><path d="M723,44L754,-18L698,16Z" fill="#79194c" stroke="#79194c" stroke-width="1.51"/><path d="M679,-13L702,-68L660,-26Z" fill="#75164f" stroke="#75164f" stroke-width="1.51"/><path d="M808,108L787,52L748,97Z" fill="#872241" stroke="#872241" stroke-width="1.51"/><path d="M808,108L767,161L796,176Z" fill="#922939" stroke="#922939" stroke-width="1.51"/><path d="M825,115L808,108L796,176Z" fill="#90283a" stroke="#90283a" stroke-width="1.51"/><path d="M451,-55L399,-21L440,1Z" fill="#691057" stroke="#691057" stroke-width="1.51"/><path d="M622,-65L528,-88L562,-37Z" fill="#701353" stroke="#701353" stroke-width="1.51"/><path d="M361,37L340,58L348,102Z" fill="#721552" stroke="#721552" stroke-width="1.51"/><path d="M315,67L340,58L312,9Z" fill="#6c1255" stroke="#6c1255" stroke-width="1.51"/><path d="M350,239L357,292L380,303Z" fill="#952b35" stroke="#952b35" stroke-width="1.51"/><path d="M396,359L422,289L396,304Z" fill="#9a2e31" stroke="#9a2e31" stroke-width="1.51"/><path d="M325,246L357,292L350,239Z" fill="#912839" stroke="#912839" stroke-width="1.51"/><path d="M787,52L754,-18L723,44Z" fill="#7c1b4a" stroke="#7c1b4a" stroke-width="1.51"/><path d="M635,-58L702,-68L622,-65Z" fill="#731650" stroke="#731650" stroke-width="1.51"/><path d="M728,359L772,314L729,310Z" fill="#a63723" stroke="#a63723" stroke-width="1.51"/><path d="M729,310L772,314L747,260Z" fill="#a63724" stroke="#a63724" stroke-width="1.51"/><path d="M699,339L728,359L729,310Z" fill="#a63624" stroke="#a63624" stroke-width="1.51"/><path d="M694,383L699,339L664,344Z" fill="#a43526" stroke="#a43526" stroke-width="1.51"/><path d="M328,140L311,181L380,166Z" fill="#821e46" stroke="#821e46" stroke-width="1.51"/><path d="M284,141L311,181L328,140Z" fill="#7f1d48" stroke="#7f1d48" stroke-width="1.51"/><path d="M540,371L694,383L619,343Z" fill="#a23429" stroke="#a23429" stroke-width="1.51"/><path d="M309,223L325,246L350,239Z" fill="#8d263d" stroke="#8d263d" stroke-width="1.51"/><path d="M808,108L813,56L787,52Z" fill="#862143" stroke="#862143" stroke-width="1.51"/><path d="M787,52L782,-33L754,-18Z" fill="#79194c" stroke="#79194c" stroke-width="1.51"/><path d="M838,154L825,115L796,176Z" fill="#932938" stroke="#932938" stroke-width="1.51"/><path d="M754,-18L702,-68L679,-13Z" fill="#76184e" stroke="#76184e" stroke-width="1.51"/><path d="M622,-65L702,-68L528,-88Z" fill="#721551" stroke="#721551" stroke-width="1.51"/><path d="M396,359L396,304L380,303Z" fill="#992e31" stroke="#992e31" stroke-width="1.51"/><path d="M500,365L441,386L540,371Z" fill="#9d302e" stroke="#9d302e" stroke-width="1.51"/><path d="M540,371L441,386L694,383Z" fill="#a0322b" stroke="#a0322b" stroke-width="1.51"/><path d="M820,60L813,56L808,108Z" fill="#872142" stroke="#872142" stroke-width="1.51"/><path d="M357,365L380,303L357,292Z" fill="#992d32" stroke="#992d32" stroke-width="1.51"/><path d="M357,365L396,359L380,303Z" fill="#992d32" stroke="#992d32" stroke-width="1.51"/><path d="M800,227L828,217L796,176Z" fill="#9b2f30" stroke="#9b2f30" stroke-width="1.51"/><path d="M834,255L828,217L800,227Z" fill="#a0322b" stroke="#a0322b" stroke-width="1.51"/><path d="M311,181L309,223L350,239Z" fill="#89233f" stroke="#89233f" stroke-width="1.51"/><path d="M319,351L357,365L357,292Z" fill="#982d33" stroke="#982d33" stroke-width="1.51"/><path d="M340,58L315,67L348,102Z" fill="#731551" stroke="#731551" stroke-width="1.51"/><path d="M311,181L277,211L309,223Z" fill="#872141" stroke="#872141" stroke-width="1.51"/><path d="M312,9L340,58L361,37Z" fill="#6b1156" stroke="#6b1156" stroke-width="1.51"/><path d="M782,-33L756,-57L754,-18Z" fill="#78184d" stroke="#78184d" stroke-width="1.51"/><path d="M825,115L820,60L808,108Z" fill="#8a243f" stroke="#8a243f" stroke-width="1.51"/><path d="M825,115L879,93L820,60Z" fill="#8a233f" stroke="#8a233f" stroke-width="1.51"/><path d="M828,217L838,154L796,176Z" fill="#982d33" stroke="#982d33" stroke-width="1.51"/><path d="M772,314L814,281L747,260Z" fill="#a63624" stroke="#a63624" stroke-width="1.51"/><path d="M847,329L814,281L772,314Z" fill="#a93920" stroke="#a93920" stroke-width="1.51"/><path d="M373,-43L342,-6L399,-21Z" fill="#660f59" stroke="#660f59" stroke-width="1.51"/><path d="M399,-21L342,-6L361,37Z" fill="#670f59" stroke="#670f59" stroke-width="1.51"/><path d="M388,-76L373,-43L399,-21Z" fill="#670f58" stroke="#670f58" stroke-width="1.51"/><path d="M388,-76L399,-21L451,-55Z" fill="#681058" stroke="#681058" stroke-width="1.51"/><path d="M814,281L834,255L800,227Z" fill="#a33428" stroke="#a33428" stroke-width="1.51"/><path d="M828,217L870,163L838,154Z" fill="#982d33" stroke="#982d33" stroke-width="1.51"/><path d="M754,-18L756,-57L702,-68Z" fill="#77184d" stroke="#77184d" stroke-width="1.51"/><path d="M782,-33L787,52L813,56Z" fill="#7e1c48" stroke="#7e1c48" stroke-width="1.51"/><path d="M260,93L284,141L315,67Z" fill="#751750" stroke="#751750" stroke-width="1.51"/><path d="M315,67L284,141L328,140Z" fill="#79194d" stroke="#79194d" stroke-width="1.51"/><path d="M787,-44L782,-33L817,-45Z" fill="#79194c" stroke="#79194c" stroke-width="1.51"/><path d="M289,-35L312,9L342,-6Z" fill="#630d5b" stroke="#630d5b" stroke-width="1.51"/><path d="M528,-88L388,-76L451,-55Z" fill="#6a1056" stroke="#6a1056" stroke-width="1.51"/><path d="M342,-6L312,9L361,37Z" fill="#670f58" stroke="#670f58" stroke-width="1.51"/><path d="M281,16L312,9L269,-9Z" fill="#630d5b" stroke="#630d5b" stroke-width="1.51"/><path d="M256,175L277,211L311,181Z" fill="#832044" stroke="#832044" stroke-width="1.51"/><path d="M309,223L275,258L325,246Z" fill="#8d263c" stroke="#8d263c" stroke-width="1.51"/><path d="M782,-33L787,-44L756,-57Z" fill="#79194c" stroke="#79194c" stroke-width="1.51"/><path d="M856,26L782,-33L813,56Z" fill="#7d1c49" stroke="#7d1c49" stroke-width="1.51"/><path d="M396,359L357,365L441,386Z" fill="#9a2e31" stroke="#9a2e31" stroke-width="1.51"/><path d="M308,305L357,292L325,246Z" fill="#952a36" stroke="#952a36" stroke-width="1.51"/><path d="M728,359L783,364L772,314Z" fill="#a73722" stroke="#a73722" stroke-width="1.51"/><path d="M814,281L867,316L834,255Z" fill="#a83822" stroke="#a83822" stroke-width="1.51"/><path d="M694,383L783,364L728,359Z" fill="#a63724" stroke="#a63724" stroke-width="1.51"/><path d="M275,258L308,305L325,246Z" fill="#912939" stroke="#912939" stroke-width="1.51"/><path d="M905,218L870,163L828,217Z" fill="#9d302f" stroke="#9d302f" stroke-width="1.51"/><path d="M838,154L873,116L825,115Z" fill="#902739" stroke="#902739" stroke-width="1.51"/><path d="M820,60L856,26L813,56Z" fill="#831f45" stroke="#831f45" stroke-width="1.51"/><path d="M870,163L873,116L838,154Z" fill="#932a36" stroke="#932a36" stroke-width="1.51"/><path d="M277,211L275,258L309,223Z" fill="#8b243f" stroke="#8b243f" stroke-width="1.51"/><path d="M277,211L234,244L275,258Z" fill="#8b243e" stroke="#8b243e" stroke-width="1.51"/><path d="M284,141L256,175L311,181Z" fill="#801d47" stroke="#801d47" stroke-width="1.51"/><path d="M217,100L256,175L284,141Z" fill="#7a194c" stroke="#7a194c" stroke-width="1.51"/><path d="M281,16L260,93L315,67Z" fill="#6e1355" stroke="#6e1355" stroke-width="1.51"/><path d="M879,93L856,26L820,60Z" fill="#862143" stroke="#862143" stroke-width="1.51"/><path d="M267,325L319,351L308,305Z" fill="#962b35" stroke="#962b35" stroke-width="1.51"/><path d="M308,305L319,351L357,292Z" fill="#972c34" stroke="#972c34" stroke-width="1.51"/><path d="M873,116L879,93L825,115Z" fill="#8e263c" stroke="#8e263c" stroke-width="1.51"/><path d="M938,103L879,93L873,116Z" fill="#8f263b" stroke="#8f263b" stroke-width="1.51"/><path d="M312,9L281,16L315,67Z" fill="#691058" stroke="#691058" stroke-width="1.51"/><path d="M289,-35L342,-6L311,-69Z" fill="#630d5b" stroke="#630d5b" stroke-width="1.51"/><path d="M787,-44L817,-45L756,-57Z" fill="#79194c" stroke="#79194c" stroke-width="1.51"/><path d="M756,-57L996,-90L702,-68Z" fill="#7a1a4b" stroke="#7a1a4b" stroke-width="1.51"/><path d="M847,-27L817,-45L782,-33Z" fill="#7a1a4b" stroke="#7a1a4b" stroke-width="1.51"/><path d="M834,255L905,218L828,217Z" fill="#a1322b" stroke="#a1322b" stroke-width="1.51"/><path d="M783,364L847,329L772,314Z" fill="#a93821" stroke="#a93821" stroke-width="1.51"/><path d="M856,26L847,-27L782,-33Z" fill="#7b1a4b" stroke="#7b1a4b" stroke-width="1.51"/><path d="M879,93L875,27L856,26Z" fill="#852043" stroke="#852043" stroke-width="1.51"/><path d="M868,-18L847,-27L856,26Z" fill="#7c1b4a" stroke="#7c1b4a" stroke-width="1.51"/><path d="M847,329L867,316L814,281Z" fill="#aa391f" stroke="#aa391f" stroke-width="1.51"/><path d="M870,163L938,103L873,116Z" fill="#922938" stroke="#922938" stroke-width="1.51"/><path d="M230,10L217,100L260,93Z" fill="#6d1255" stroke="#6d1255" stroke-width="1.51"/><path d="M311,-69L342,-6L373,-43Z" fill="#650e5a" stroke="#650e5a" stroke-width="1.51"/><path d="M289,-35L269,-9L312,9Z" fill="#620d5b" stroke="#620d5b" stroke-width="1.51"/><path d="M388,-76L311,-69L373,-43Z" fill="#650e59" stroke="#650e59" stroke-width="1.51"/><path d="M237,-29L230,10L269,-9Z" fill="#600c5d" stroke="#600c5d" stroke-width="1.51"/><path d="M892,279L905,218L834,255Z" fill="#a53626" stroke="#a53626" stroke-width="1.51"/><path d="M879,93L915,22L875,27Z" fill="#852143" stroke="#852143" stroke-width="1.51"/><path d="M275,258L267,325L308,305Z" fill="#952b36" stroke="#952b36" stroke-width="1.51"/><path d="M228,320L267,325L275,258Z" fill="#942a36" stroke="#942a36" stroke-width="1.51"/><path d="M210,191L234,244L277,211Z" fill="#862142" stroke="#862142" stroke-width="1.51"/><path d="M210,191L277,211L256,175Z" fill="#831f45" stroke="#831f45" stroke-width="1.51"/><path d="M217,100L284,141L260,93Z" fill="#76174f" stroke="#76174f" stroke-width="1.51"/><path d="M867,316L892,279L834,255Z" fill="#a93921" stroke="#a93921" stroke-width="1.51"/><path d="M234,244L235,251L275,258Z" fill="#8c253d" stroke="#8c253d" stroke-width="1.51"/><path d="M875,27L868,-18L856,26Z" fill="#7f1d48" stroke="#7f1d48" stroke-width="1.51"/><path d="M847,-27L876,-44L817,-45Z" fill="#7c1b4a" stroke="#7c1b4a" stroke-width="1.51"/><path d="M876,-44L868,-18L937,-26Z" fill="#7e1c49" stroke="#7e1c49" stroke-width="1.51"/><path d="M905,218L912,216L870,163Z" fill="#9d302e" stroke="#9d302e" stroke-width="1.51"/><path d="M914,271L912,216L905,218Z" fill="#a33427" stroke="#a33427" stroke-width="1.51"/><path d="M783,364L840,386L847,329Z" fill="#aa391f" stroke="#aa391f" stroke-width="1.51"/><path d="M847,329L896,365L867,316Z" fill="#ab3a1d" stroke="#ab3a1d" stroke-width="1.51"/><path d="M933,317L914,271L892,279Z" fill="#ab3a1d" stroke="#ab3a1d" stroke-width="1.51"/><path d="M694,383L840,386L783,364Z" fill="#a83822" stroke="#a83822" stroke-width="1.51"/><path d="M441,386L840,386L694,383Z" fill="#a33527" stroke="#a33527" stroke-width="1.51"/><path d="M230,10L260,93L281,16Z" fill="#680f57" stroke="#680f57" stroke-width="1.51"/><path d="M234,244L160,227L235,251Z" fill="#892340" stroke="#892340" stroke-width="1.51"/><path d="M194,136L210,191L256,175Z" fill="#7e1b49" stroke="#7e1b49" stroke-width="1.51"/><path d="M267,325L284,378L319,351Z" fill="#962b35" stroke="#962b35" stroke-width="1.51"/><path d="M319,351L284,378L357,365Z" fill="#972c34" stroke="#972c34" stroke-width="1.51"/><path d="M357,365L284,378L441,386Z" fill="#982d32" stroke="#982d32" stroke-width="1.51"/><path d="M210,351L284,378L267,325Z" fill="#942a36" stroke="#942a36" stroke-width="1.51"/><path d="M228,320L275,258L235,251Z" fill="#90283a" stroke="#90283a" stroke-width="1.51"/><path d="M892,279L914,271L905,218Z" fill="#a63724" stroke="#a63724" stroke-width="1.51"/><path d="M933,317L892,279L867,316Z" fill="#ac3b1b" stroke="#ac3b1b" stroke-width="1.51"/><path d="M868,-18L876,-44L847,-27Z" fill="#7d1b4a" stroke="#7d1b4a" stroke-width="1.51"/><path d="M817,-45L996,-90L756,-57Z" fill="#7c1b4a" stroke="#7c1b4a" stroke-width="1.51"/><path d="M915,22L868,-18L875,27Z" fill="#7f1d48" stroke="#7f1d48" stroke-width="1.51"/><path d="M269,-9L230,10L281,16Z" fill="#620c5c" stroke="#620c5c" stroke-width="1.51"/><path d="M237,-29L269,-9L289,-35Z" fill="#610c5c" stroke="#610c5c" stroke-width="1.51"/><path d="M912,216L936,197L870,163Z" fill="#9d302e" stroke="#9d302e" stroke-width="1.51"/><path d="M976,265L936,197L912,216Z" fill="#a33428" stroke="#a33428" stroke-width="1.51"/><path d="M938,103L915,22L879,93Z" fill="#8a243e" stroke="#8a243e" stroke-width="1.51"/><path d="M936,197L938,103L870,163Z" fill="#972c34" stroke="#972c34" stroke-width="1.51"/><path d="M311,-69L283,-85L289,-35Z" fill="#620d5b" stroke="#620d5b" stroke-width="1.51"/><path d="M388,-76L283,-85L311,-69Z" fill="#640e5a" stroke="#640e5a" stroke-width="1.51"/><path d="M528,-88L283,-85L388,-76Z" fill="#681058" stroke="#681058" stroke-width="1.51"/><path d="M217,100L194,136L256,175Z" fill="#79194d" stroke="#79194d" stroke-width="1.51"/><path d="M171,148L194,136L149,95Z" fill="#751650" stroke="#751650" stroke-width="1.51"/><path d="M228,320L235,251L145,252Z" fill="#8f263c" stroke="#8f263c" stroke-width="1.51"/><path d="M210,351L228,320L144,323Z" fill="#922938" stroke="#922938" stroke-width="1.51"/><path d="M149,95L194,136L217,100Z" fill="#721551" stroke="#721551" stroke-width="1.51"/><path d="M283,-85L237,-29L289,-35Z" fill="#610c5c" stroke="#610c5c" stroke-width="1.51"/><path d="M938,103L950,92L915,22Z" fill="#8b243e" stroke="#8b243e" stroke-width="1.51"/><path d="M979,130L950,92L938,103Z" fill="#922839" stroke="#922839" stroke-width="1.51"/><path d="M914,271L976,265L912,216Z" fill="#a73723" stroke="#a73723" stroke-width="1.51"/><path d="M840,386L896,365L847,329Z" fill="#ab3a1d" stroke="#ab3a1d" stroke-width="1.51"/><path d="M194,136L171,148L210,191Z" fill="#7b1b4b" stroke="#7b1b4b" stroke-width="1.51"/><path d="M180,25L217,100L230,10Z" fill="#670f58" stroke="#670f58" stroke-width="1.51"/><path d="M924,353L933,317L867,316Z" fill="#ad3b1b" stroke="#ad3b1b" stroke-width="1.51"/><path d="M936,197L968,167L938,103Z" fill="#992d32" stroke="#992d32" stroke-width="1.51"/><path d="M990,199L968,167L936,197Z" fill="#9e312d" stroke="#9e312d" stroke-width="1.51"/><path d="M896,365L924,353L867,316Z" fill="#ac3b1c" stroke="#ac3b1c" stroke-width="1.51"/><path d="M228,320L210,351L267,325Z" fill="#942a37" stroke="#942a37" stroke-width="1.51"/><path d="M160,227L234,244L210,191Z" fill="#862043" stroke="#862043" stroke-width="1.51"/><path d="M171,148L161,189L210,191Z" fill="#7d1c49" stroke="#7d1c49" stroke-width="1.51"/><path d="M171,-12L180,25L230,10Z" fill="#5f0b5d" stroke="#5f0b5d" stroke-width="1.51"/><path d="M171,148L140,138L161,189Z" fill="#79194c" stroke="#79194c" stroke-width="1.51"/><path d="M171,-12L230,10L237,-29Z" fill="#5e0b5e" stroke="#5e0b5e" stroke-width="1.51"/><path d="M915,22L937,-26L868,-18Z" fill="#7e1c48" stroke="#7e1c48" stroke-width="1.51"/><path d="M997,20L937,-26L915,22Z" fill="#811e46" stroke="#811e46" stroke-width="1.51"/><path d="M997,20L915,22L950,92Z" fill="#872241" stroke="#872241" stroke-width="1.51"/><path d="M968,167L979,130L938,103Z" fill="#962c35" stroke="#962c35" stroke-width="1.51"/><path d="M1049,179L979,130L968,167Z" fill="#9b2f30" stroke="#9b2f30" stroke-width="1.51"/><path d="M161,189L160,227L210,191Z" fill="#811e45" stroke="#811e45" stroke-width="1.51"/><path d="M933,317L976,265L914,271Z" fill="#ac3a1d" stroke="#ac3a1d" stroke-width="1.51"/><path d="M979,319L976,265L933,317Z" fill="#af3d18" stroke="#af3d18" stroke-width="1.51"/><path d="M937,-26L938,-50L876,-44Z" fill="#7f1c48" stroke="#7f1c48" stroke-width="1.51"/><path d="M876,-44L996,-90L817,-45Z" fill="#7e1c49" stroke="#7e1c49" stroke-width="1.51"/><path d="M702,-68L996,-90L528,-88Z" fill="#77184d" stroke="#77184d" stroke-width="1.51"/><path d="M992,-19L938,-50L937,-26Z" fill="#801d47" stroke="#801d47" stroke-width="1.51"/><path d="M180,25L149,95L217,100Z" fill="#6b1156" stroke="#6b1156" stroke-width="1.51"/><path d="M96,230L145,252L160,227Z" fill="#862143" stroke="#862143" stroke-width="1.51"/><path d="M976,265L990,199L936,197Z" fill="#a33528" stroke="#a33528" stroke-width="1.51"/><path d="M149,95L140,138L171,148Z" fill="#741650" stroke="#741650" stroke-width="1.51"/><path d="M180,25L122,52L149,95Z" fill="#670f59" stroke="#670f59" stroke-width="1.51"/><path d="M149,95L99,91L140,138Z" fill="#6f1353" stroke="#6f1353" stroke-width="1.51"/><path d="M169,-71L171,-12L237,-29Z" fill="#5d0a5e" stroke="#5d0a5e" stroke-width="1.51"/><path d="M96,230L160,227L161,189Z" fill="#821e45" stroke="#821e45" stroke-width="1.51"/><path d="M160,227L145,252L235,251Z" fill="#892240" stroke="#892240" stroke-width="1.51"/><path d="M528,-88L206,-89L283,-85Z" fill="#640e5a" stroke="#640e5a" stroke-width="1.51"/><path d="M283,-85L206,-89L237,-29Z" fill="#600b5d" stroke="#600b5d" stroke-width="1.51"/><path d="M924,353L979,319L933,317Z" fill="#ae3c19" stroke="#ae3c19" stroke-width="1.51"/><path d="M976,265L1024,214L990,199Z" fill="#a53625" stroke="#a53625" stroke-width="1.51"/><path d="M979,130L1007,77L950,92Z" fill="#912839" stroke="#912839" stroke-width="1.51"/><path d="M1021,115L1007,77L979,130Z" fill="#932a37" stroke="#932a37" stroke-width="1.51"/><path d="M1021,115L979,130L1049,179Z" fill="#992d32" stroke="#992d32" stroke-width="1.51"/><path d="M1007,77L997,20L950,92Z" fill="#8c253e" stroke="#8c253e" stroke-width="1.51"/><path d="M145,252L132,281L228,320Z" fill="#8f273c" stroke="#8f273c" stroke-width="1.51"/><path d="M96,230L132,281L145,252Z" fill="#882241" stroke="#882241" stroke-width="1.51"/><path d="M1007,77L1020,65L997,20Z" fill="#8b243e" stroke="#8b243e" stroke-width="1.51"/><path d="M1049,179L968,167L990,199Z" fill="#9f312c" stroke="#9f312c" stroke-width="1.51"/><path d="M132,281L144,323L228,320Z" fill="#912839" stroke="#912839" stroke-width="1.51"/><path d="M140,138L97,174L161,189Z" fill="#7a194b" stroke="#7a194b" stroke-width="1.51"/><path d="M171,-12L122,52L180,25Z" fill="#600b5d" stroke="#600b5d" stroke-width="1.51"/><path d="M139,-26L122,52L171,-12Z" fill="#5b095f" stroke="#5b095f" stroke-width="1.51"/><path d="M997,20L992,-19L937,-26Z" fill="#811e46" stroke="#811e46" stroke-width="1.51"/><path d="M1026,13L992,-19L997,20Z" fill="#831f45" stroke="#831f45" stroke-width="1.51"/><path d="M1032,272L1024,214L976,265Z" fill="#a93920" stroke="#a93920" stroke-width="1.51"/><path d="M206,-89L169,-71L237,-29Z" fill="#5e0b5e" stroke="#5e0b5e" stroke-width="1.51"/><path d="M1021,115L1020,65L1007,77Z" fill="#912839" stroke="#912839" stroke-width="1.51"/><path d="M1026,13L1020,65L1083,8Z" fill="#892340" stroke="#892340" stroke-width="1.51"/><path d="M169,-71L139,-26L171,-12Z" fill="#5b095f" stroke="#5b095f" stroke-width="1.51"/><path d="M979,319L1032,272L976,265Z" fill="#ae3c1a" stroke="#ae3c1a" stroke-width="1.51"/><path d="M924,353L995,349L979,319Z" fill="#af3d18" stroke="#af3d18" stroke-width="1.51"/><path d="M896,365L995,349L924,353Z" fill="#ae3c19" stroke="#ae3c19" stroke-width="1.51"/><path d="M1022,350L995,349L1067,385Z" fill="#b13e14" stroke="#b13e14" stroke-width="1.51"/><path d="M144,323L158,385L210,351Z" fill="#912839" stroke="#912839" stroke-width="1.51"/><path d="M210,351L158,385L284,378Z" fill="#932938" stroke="#932938" stroke-width="1.51"/><path d="M284,378L158,385L441,386Z" fill="#962b35" stroke="#962b35" stroke-width="1.51"/><path d="M133,338L158,385L144,323Z" fill="#90283a" stroke="#90283a" stroke-width="1.51"/><path d="M86,295L144,323L132,281Z" fill="#8f273b" stroke="#8f273b" stroke-width="1.51"/><path d="M86,295L133,338L144,323Z" fill="#8f273b" stroke="#8f273b" stroke-width="1.51"/><path d="M74,130L97,174L140,138Z" fill="#75174f" stroke="#75174f" stroke-width="1.51"/><path d="M122,52L99,91L149,95Z" fill="#6a1057" stroke="#6a1057" stroke-width="1.51"/><path d="M65,89L99,91L122,52Z" fill="#680f58" stroke="#680f58" stroke-width="1.51"/><path d="M1024,214L1049,179L990,199Z" fill="#a23429" stroke="#a23429" stroke-width="1.51"/><path d="M1039,325L1032,272L979,319Z" fill="#b13e15" stroke="#b13e15" stroke-width="1.51"/><path d="M97,174L96,230L161,189Z" fill="#7e1c48" stroke="#7e1c48" stroke-width="1.51"/><path d="M1068,105L1020,65L1021,115Z" fill="#932938" stroke="#932938" stroke-width="1.51"/><path d="M1020,65L1026,13L997,20Z" fill="#882240" stroke="#882240" stroke-width="1.51"/><path d="M1062,198L1049,179L1024,214Z" fill="#a33428" stroke="#a33428" stroke-width="1.51"/><path d="M139,-26L67,-23L122,52Z" fill="#580861" stroke="#580861" stroke-width="1.51"/><path d="M169,-71L129,-43L139,-26Z" fill="#5a0960" stroke="#5a0960" stroke-width="1.51"/><path d="M1062,198L1060,153L1049,179Z" fill="#a0332b" stroke="#a0332b" stroke-width="1.51"/><path d="M1049,179L1060,153L1021,115Z" fill="#9b2f2f" stroke="#9b2f2f" stroke-width="1.51"/><path d="M133,338L125,371L158,385Z" fill="#90273a" stroke="#90273a" stroke-width="1.51"/><path d="M68,367L125,371L133,338Z" fill="#8e273b" stroke="#8e273b" stroke-width="1.51"/><path d="M995,349L1039,325L979,319Z" fill="#b03e15" stroke="#b03e15" stroke-width="1.51"/><path d="M1032,272L1062,198L1024,214Z" fill="#a73823" stroke="#a73823" stroke-width="1.51"/><path d="M1067,385L995,349L896,365Z" fill="#b03d17" stroke="#b03d17" stroke-width="1.51"/><path d="M1023,-67L996,-90L992,-19Z" fill="#821f45" stroke="#821f45" stroke-width="1.51"/><path d="M992,-19L996,-90L938,-50Z" fill="#811e46" stroke="#811e46" stroke-width="1.51"/><path d="M938,-50L996,-90L876,-44Z" fill="#801d47" stroke="#801d47" stroke-width="1.51"/><path d="M528,-88L996,-90L206,-89Z" fill="#701452" stroke="#701452" stroke-width="1.51"/><path d="M99,91L74,130L140,138Z" fill="#701453" stroke="#701453" stroke-width="1.51"/><path d="M97,174L63,186L96,230Z" fill="#7d1b49" stroke="#7d1b49" stroke-width="1.51"/><path d="M96,230L86,295L132,281Z" fill="#8a2340" stroke="#8a2340" stroke-width="1.51"/><path d="M65,89L74,130L99,91Z" fill="#6c1155" stroke="#6c1155" stroke-width="1.51"/><path d="M1099,249L1062,198L1032,272Z" fill="#aa391f" stroke="#aa391f" stroke-width="1.51"/><path d="M1022,350L1039,325L995,349Z" fill="#b13e15" stroke="#b13e15" stroke-width="1.51"/><path d="M67,251L86,295L96,230Z" fill="#872141" stroke="#872141" stroke-width="1.51"/><path d="M1060,153L1068,105L1021,115Z" fill="#982d33" stroke="#982d33" stroke-width="1.51"/><path d="M1052,-38L1023,-67L992,-19Z" fill="#831f44" stroke="#831f44" stroke-width="1.51"/><path d="M1080,81L1068,105L1106,80Z" fill="#942a37" stroke="#942a37" stroke-width="1.51"/><path d="M74,130L63,186L97,174Z" fill="#77184d" stroke="#77184d" stroke-width="1.51"/><path d="M1052,-38L992,-19L1026,13Z" fill="#831f44" stroke="#831f44" stroke-width="1.51"/><path d="M74,130L44,165L63,186Z" fill="#76174e" stroke="#76174e" stroke-width="1.51"/><path d="M41,26L65,89L122,52Z" fill="#630c5b" stroke="#630c5b" stroke-width="1.51"/><path d="M53,209L67,251L96,230Z" fill="#821e46" stroke="#821e46" stroke-width="1.51"/><path d="M1068,105L1080,81L1020,65Z" fill="#922839" stroke="#922839" stroke-width="1.51"/><path d="M1106,80L1068,105L1122,147Z" fill="#972d33" stroke="#972d33" stroke-width="1.51"/><path d="M63,186L53,209L96,230Z" fill="#7e1c48" stroke="#7e1c48" stroke-width="1.51"/><path d="M44,165L53,209L63,186Z" fill="#7a194c" stroke="#7a194c" stroke-width="1.51"/><path d="M1083,8L1052,-38L1026,13Z" fill="#842043" stroke="#842043" stroke-width="1.51"/><path d="M16,100L45,148L74,130Z" fill="#6f1353" stroke="#6f1353" stroke-width="1.51"/><path d="M45,148L44,165L74,130Z" fill="#731550" stroke="#731550" stroke-width="1.51"/><path d="M129,-43L67,-23L139,-26Z" fill="#590861" stroke="#590861" stroke-width="1.51"/><path d="M65,89L16,100L74,130Z" fill="#6b1156" stroke="#6b1156" stroke-width="1.51"/><path d="M74,-44L67,-23L129,-43Z" fill="#570862" stroke="#570862" stroke-width="1.51"/><path d="M74,-44L129,-43L169,-71Z" fill="#590861" stroke="#590861" stroke-width="1.51"/><path d="M19,-70L74,-44L169,-71Z" fill="#570862" stroke="#570862" stroke-width="1.51"/><path d="M41,26L55,7L28,-33Z" fill="#550763" stroke="#550763" stroke-width="1.51"/><path d="M67,-23L55,7L122,52Z" fill="#5a0860" stroke="#5a0860" stroke-width="1.51"/><path d="M1080,81L1083,8L1020,65Z" fill="#8d263d" stroke="#8d263d" stroke-width="1.51"/><path d="M8,203L40,253L53,209Z" fill="#7f1d48" stroke="#7f1d48" stroke-width="1.51"/><path d="M53,209L40,253L67,251Z" fill="#821f45" stroke="#821f45" stroke-width="1.51"/><path d="M67,251L40,253L86,295Z" fill="#872241" stroke="#872241" stroke-width="1.51"/><path d="M86,295L68,367L133,338Z" fill="#8e263c" stroke="#8e263c" stroke-width="1.51"/><path d="M1062,198L1122,147L1060,153Z" fill="#9f322c" stroke="#9f322c" stroke-width="1.51"/><path d="M1080,81L1106,80L1083,8Z" fill="#8f273b" stroke="#8f273b" stroke-width="1.51"/><path d="M1094,338L1099,249L1032,272Z" fill="#b13e14" stroke="#b13e14" stroke-width="1.51"/><path d="M1114,249L1099,249L1114,331Z" fill="#b03e15" stroke="#b03e15" stroke-width="1.51"/><path d="M29,320L68,367L86,295Z" fill="#8d253d" stroke="#8d253d" stroke-width="1.51"/><path d="M125,371L68,367L158,385Z" fill="#8f273b" stroke="#8f273b" stroke-width="1.51"/><path d="M1122,147L1068,105L1060,153Z" fill="#9b2f30" stroke="#9b2f30" stroke-width="1.51"/><path d="M-3,184L8,203L44,165Z" fill="#78194d" stroke="#78194d" stroke-width="1.51"/><path d="M44,165L8,203L53,209Z" fill="#7a1a4b" stroke="#7a1a4b" stroke-width="1.51"/><path d="M55,7L41,26L122,52Z" fill="#5d0a5f" stroke="#5d0a5f" stroke-width="1.51"/><path d="M28,-33L55,7L67,-23Z" fill="#550763" stroke="#550763" stroke-width="1.51"/><path d="M1022,350L1067,385L1039,325Z" fill="#b23f13" stroke="#b23f13" stroke-width="1.51"/><path d="M840,386L1067,385L896,365Z" fill="#ae3c19" stroke="#ae3c19" stroke-width="1.51"/><path d="M1099,249L1113,226L1062,198Z" fill="#a83821" stroke="#a83821" stroke-width="1.51"/><path d="M1114,249L1113,226L1099,249Z" fill="#ab3a1d" stroke="#ab3a1d" stroke-width="1.51"/><path d="M1094,338L1032,272L1039,325Z" fill="#b23f12" stroke="#b23f12" stroke-width="1.51"/><path d="M1150,159L1122,147L1157,180Z" fill="#a1332a" stroke="#a1332a" stroke-width="1.51"/><path d="M1113,226L1122,147L1062,198Z" fill="#a43527" stroke="#a43527" stroke-width="1.51"/><path d="M41,26L16,100L65,89Z" fill="#640e5b" stroke="#640e5b" stroke-width="1.51"/><path d="M1067,385L1094,338L1039,325Z" fill="#b23f11" stroke="#b23f11" stroke-width="1.51"/><path d="M1083,8L1098,-29L1052,-38Z" fill="#852143" stroke="#852143" stroke-width="1.51"/><path d="M1052,-38L1082,-90L1023,-67Z" fill="#842043" stroke="#842043" stroke-width="1.51"/><path d="M1023,-67L1082,-90L996,-90Z" fill="#841f44" stroke="#841f44" stroke-width="1.51"/><path d="M1130,35L1098,-29L1083,8Z" fill="#872241" stroke="#872241" stroke-width="1.51"/><path d="M1130,35L1083,8L1106,80Z" fill="#8d253c" stroke="#8d253c" stroke-width="1.51"/><path d="M40,253L29,320L86,295Z" fill="#8b243e" stroke="#8b243e" stroke-width="1.51"/><path d="M-3,184L44,165L45,148Z" fill="#75174f" stroke="#75174f" stroke-width="1.51"/><path d="M-8,277L29,320L40,253Z" fill="#882340" stroke="#882340" stroke-width="1.51"/><path d="M1098,-29L1082,-90L1052,-38Z" fill="#852143" stroke="#852143" stroke-width="1.51"/><path d="M-20,242L-8,277L40,253Z" fill="#841f44" stroke="#841f44" stroke-width="1.51"/><path d="M-35,134L-3,184L45,148Z" fill="#721551" stroke="#721551" stroke-width="1.51"/><path d="M74,-44L28,-33L67,-23Z" fill="#560763" stroke="#560763" stroke-width="1.51"/><path d="M41,26L-8,51L16,100Z" fill="#600c5d" stroke="#600c5d" stroke-width="1.51"/><path d="M16,100L-35,134L45,148Z" fill="#6d1254" stroke="#6d1254" stroke-width="1.51"/><path d="M19,-70L28,-33L74,-44Z" fill="#550763" stroke="#550763" stroke-width="1.51"/><path d="M1118,364L1114,331L1094,338Z" fill="#b4400e" stroke="#b4400e" stroke-width="1.51"/><path d="M1094,338L1114,331L1099,249Z" fill="#b4400e" stroke="#b4400e" stroke-width="1.51"/><path d="M1157,180L1122,147L1113,226Z" fill="#a43526" stroke="#a43526" stroke-width="1.51"/><path d="M1157,93L1130,35L1106,80Z" fill="#922938" stroke="#922938" stroke-width="1.51"/><path d="M1098,-29L1133,-53L1082,-90Z" fill="#862142" stroke="#862142" stroke-width="1.51"/><path d="M1153,131L1106,80L1122,147Z" fill="#9a2e31" stroke="#9a2e31" stroke-width="1.51"/><path d="M29,320L24,350L68,367Z" fill="#8c253e" stroke="#8c253e" stroke-width="1.51"/><path d="M-20,314L24,350L29,320Z" fill="#8b243e" stroke="#8b243e" stroke-width="1.51"/><path d="M1157,180L1113,226L1199,222Z" fill="#a93821" stroke="#a93821" stroke-width="1.51"/><path d="M1150,159L1153,131L1122,147Z" fill="#9f312c" stroke="#9f312c" stroke-width="1.51"/><path d="M-30,-10L-8,51L41,26Z" fill="#570862" stroke="#570862" stroke-width="1.51"/><path d="M1170,277L1113,226L1114,249Z" fill="#ae3c19" stroke="#ae3c19" stroke-width="1.51"/><path d="M1067,385L1118,364L1094,338Z" fill="#b3400f" stroke="#b3400f" stroke-width="1.51"/><path d="M-20,242L40,253L8,203Z" fill="#7f1d47" stroke="#7f1d47" stroke-width="1.51"/><path d="M-20,242L8,203L-3,184Z" fill="#7c1a4a" stroke="#7c1a4a" stroke-width="1.51"/><path d="M1150,159L1224,115L1153,131Z" fill="#9e312d" stroke="#9e312d" stroke-width="1.51"/><path d="M1170,277L1114,249L1114,331Z" fill="#b24011" stroke="#b24011" stroke-width="1.51"/><path d="M1153,131L1157,93L1106,80Z" fill="#982d33" stroke="#982d33" stroke-width="1.51"/><path d="M1130,35L1129,-40L1098,-29Z" fill="#872241" stroke="#872241" stroke-width="1.51"/><path d="M1224,115L1157,93L1153,131Z" fill="#9b2f30" stroke="#9b2f30" stroke-width="1.51"/><path d="M1133,-53L1129,-40L1165,-70Z" fill="#882241" stroke="#882241" stroke-width="1.51"/><path d="M28,-33L-30,-10L41,26Z" fill="#530663" stroke="#530663" stroke-width="1.51"/><path d="M206,-89L19,-70L169,-71Z" fill="#5a0960" stroke="#5a0960" stroke-width="1.51"/><path d="M-58,225L-20,242L-3,184Z" fill="#7d1b4a" stroke="#7d1b4a" stroke-width="1.51"/><path d="M-8,51L-22,64L16,100Z" fill="#620d5c" stroke="#620d5c" stroke-width="1.51"/><path d="M-57,56L-22,64L-53,21Z" fill="#5c0a5f" stroke="#5c0a5f" stroke-width="1.51"/><path d="M1129,-40L1133,-53L1098,-29Z" fill="#872241" stroke="#872241" stroke-width="1.51"/><path d="M1174,26L1129,-40L1130,35Z" fill="#892340" stroke="#892340" stroke-width="1.51"/><path d="M-22,64L-35,134L16,100Z" fill="#680f58" stroke="#680f58" stroke-width="1.51"/><path d="M-61,332L-20,314L-96,266Z" fill="#8a243f" stroke="#8a243f" stroke-width="1.51"/><path d="M-8,277L-20,314L29,320Z" fill="#8a243f" stroke="#8a243f" stroke-width="1.51"/><path d="M-96,266L-8,277L-20,242Z" fill="#842044" stroke="#842044" stroke-width="1.51"/><path d="M1193,0L1174,26L1203,10Z" fill="#8c253d" stroke="#8c253d" stroke-width="1.51"/><path d="M1198,325L1170,277L1114,331Z" fill="#b64209" stroke="#b64209" stroke-width="1.51"/><path d="M24,350L-10,371L68,367Z" fill="#8b243e" stroke="#8b243e" stroke-width="1.51"/><path d="M68,367L-10,371L158,385Z" fill="#8d263d" stroke="#8d263d" stroke-width="1.51"/><path d="M-20,314L-10,371L24,350Z" fill="#8a243f" stroke="#8a243f" stroke-width="1.51"/><path d="M1157,93L1174,26L1130,35Z" fill="#91283a" stroke="#91283a" stroke-width="1.51"/><path d="M1224,115L1150,159L1228,183Z" fill="#a23329" stroke="#a23329" stroke-width="1.51"/><path d="M19,-70L-30,-10L28,-33Z" fill="#530664" stroke="#530664" stroke-width="1.51"/><path d="M-22,64L-77,104L-35,134Z" fill="#681058" stroke="#681058" stroke-width="1.51"/><path d="M-20,314L-61,332L-10,371Z" fill="#8a243f" stroke="#8a243f" stroke-width="1.51"/><path d="M-78,163L-58,225L-3,184Z" fill="#78184d" stroke="#78184d" stroke-width="1.51"/><path d="M-78,163L-3,184L-35,134Z" fill="#731550" stroke="#731550" stroke-width="1.51"/><path d="M-53,21L-22,64L-8,51Z" fill="#5c0a5f" stroke="#5c0a5f" stroke-width="1.51"/><path d="M1170,277L1199,222L1113,226Z" fill="#ad3c1a" stroke="#ad3c1a" stroke-width="1.51"/><path d="M-30,-10L-53,21L-8,51Z" fill="#570762" stroke="#570762" stroke-width="1.51"/><path d="M1133,-53L1165,-70L1082,-90Z" fill="#872241" stroke="#872241" stroke-width="1.51"/><path d="M1193,0L1165,-70L1129,-40Z" fill="#892340" stroke="#892340" stroke-width="1.51"/><path d="M1193,0L1129,-40L1174,26Z" fill="#892340" stroke="#892340" stroke-width="1.51"/><path d="M19,-70L-29,-84L-30,-10Z" fill="#520664" stroke="#520664" stroke-width="1.51"/><path d="M-30,-10L-69,-21L-53,21Z" fill="#520664" stroke="#520664" stroke-width="1.51"/><path d="M206,-89L-29,-84L19,-70Z" fill="#560762" stroke="#560762" stroke-width="1.51"/><path d="M1203,10L1174,26L1227,67Z" fill="#90273a" stroke="#90273a" stroke-width="1.51"/><path d="M-77,104L-22,64L-57,56Z" fill="#630d5b" stroke="#630d5b" stroke-width="1.51"/><path d="M-77,104L-78,163L-35,134Z" fill="#6e1254" stroke="#6e1254" stroke-width="1.51"/><path d="M-69,-21L-77,104L-57,56Z" fill="#5c0a5f" stroke="#5c0a5f" stroke-width="1.51"/><path d="M-69,-21L-57,56L-53,21Z" fill="#570762" stroke="#570762" stroke-width="1.51"/><path d="M1199,222L1215,210L1157,180Z" fill="#a93820" stroke="#a93820" stroke-width="1.51"/><path d="M1242,274L1215,210L1199,222Z" fill="#ae3c19" stroke="#ae3c19" stroke-width="1.51"/><path d="M1242,274L1199,222L1170,277Z" fill="#b13e14" stroke="#b13e14" stroke-width="1.51"/><path d="M1193,0L1228,-46L1165,-70Z" fill="#8a243f" stroke="#8a243f" stroke-width="1.51"/><path d="M1227,67L1174,26L1157,93Z" fill="#932a37" stroke="#932a37" stroke-width="1.51"/><path d="M1190,372L1198,325L1114,331Z" fill="#b64209" stroke="#b64209" stroke-width="1.51"/><path d="M-96,266L-20,242L-58,225Z" fill="#811e46" stroke="#811e46" stroke-width="1.51"/><path d="M-96,266L-20,314L-8,277Z" fill="#882241" stroke="#882241" stroke-width="1.51"/><path d="M1228,183L1150,159L1157,180Z" fill="#a43526" stroke="#a43526" stroke-width="1.51"/><path d="M1118,364L1190,372L1114,331Z" fill="#b5410b" stroke="#b5410b" stroke-width="1.51"/><path d="M1067,385L1190,372L1118,364Z" fill="#b5410c" stroke="#b5410c" stroke-width="1.51"/><path d="M1215,210L1228,183L1157,180Z" fill="#a73722" stroke="#a73722" stroke-width="1.51"/><path d="M1256,192L1228,183L1215,210Z" fill="#a83821" stroke="#a83821" stroke-width="1.51"/><path d="M1242,274L1170,277L1237,308Z" fill="#b5410a" stroke="#b5410a" stroke-width="1.51"/><path d="M-29,-84L-69,-21L-30,-10Z" fill="#520664" stroke="#520664" stroke-width="1.51"/><path d="M1224,115L1227,67L1157,93Z" fill="#992d32" stroke="#992d32" stroke-width="1.51"/><path d="M1284,79L1227,67L1224,115Z" fill="#982d33" stroke="#982d33" stroke-width="1.51"/><path d="M-10,371L-63,367L158,385Z" fill="#8b243e" stroke="#8b243e" stroke-width="1.51"/><path d="M-61,332L-63,367L-10,371Z" fill="#8a243f" stroke="#8a243f" stroke-width="1.51"/><path d="M-96,266L-63,367L-61,332Z" fill="#8a243f" stroke="#8a243f" stroke-width="1.51"/><path d="M1190,372L1200,374L1198,325Z" fill="#b74305" stroke="#b74305" stroke-width="1.51"/><path d="M1067,385L1200,374L1190,372Z" fill="#b6420a" stroke="#b6420a" stroke-width="1.51"/><path d="M-78,163L-96,266L-58,225Z" fill="#7d1b4a" stroke="#7d1b4a" stroke-width="1.51"/><path d="M-77,104L-96,266L-78,163Z" fill="#76184e" stroke="#76184e" stroke-width="1.51"/><path d="M-83,-67L-96,266L-77,104Z" fill="#681058" stroke="#681058" stroke-width="1.51"/><path d="M1228,183L1291,146L1224,115Z" fill="#a13329" stroke="#a13329" stroke-width="1.51"/><path d="M1237,308L1170,277L1198,325Z" fill="#b74305" stroke="#b74305" stroke-width="1.51"/><path d="M1250,357L1237,308L1198,325Z" fill="#b74305" stroke="#b74305" stroke-width="1.51"/><path d="M1263,253L1215,210L1242,274Z" fill="#af3d17" stroke="#af3d17" stroke-width="1.51"/><path d="M1263,253L1256,192L1215,210Z" fill="#ab3a1d" stroke="#ab3a1d" stroke-width="1.51"/><path d="M-29,-84L-83,-67L-69,-21Z" fill="#520664" stroke="#520664" stroke-width="1.51"/><path d="M-69,-21L-83,-67L-77,104Z" fill="#540664" stroke="#540664" stroke-width="1.51"/><path d="M1245,0L1203,10L1227,67Z" fill="#8f263b" stroke="#8f263b" stroke-width="1.51"/><path d="M1245,0L1193,0L1203,10Z" fill="#8b243e" stroke="#8b243e" stroke-width="1.51"/><path d="M1245,0L1228,-46L1193,0Z" fill="#8a243f" stroke="#8a243f" stroke-width="1.51"/><path d="M1254,2L1245,0L1227,67Z" fill="#8e263c" stroke="#8e263c" stroke-width="1.51"/><path d="M1279,28L1254,2L1227,67Z" fill="#8f273a" stroke="#8f273a" stroke-width="1.51"/><path d="M1277,297L1263,253L1242,274Z" fill="#b4400f" stroke="#b4400f" stroke-width="1.51"/><path d="M1245,0L1254,2L1228,-46Z" fill="#8a243f" stroke="#8a243f" stroke-width="1.51"/><path d="M1284,79L1224,115L1291,146Z" fill="#9c2f2f" stroke="#9c2f2f" stroke-width="1.51"/><path d="M1200,374L1250,357L1198,325Z" fill="#b74305" stroke="#b74305" stroke-width="1.51"/><path d="M1237,308L1277,297L1242,274Z" fill="#b64208" stroke="#b64208" stroke-width="1.51"/><path d="M1291,146L1228,183L1256,192Z" fill="#a53625" stroke="#a53625" stroke-width="1.51"/><path d="M1263,253L1289,199L1256,192Z" fill="#ab3a1e" stroke="#ab3a1e" stroke-width="1.51"/><path d="M1277,297L1289,199L1263,253Z" fill="#b03d16" stroke="#b03d16" stroke-width="1.51"/><path d="M1284,79L1279,28L1227,67Z" fill="#942a37" stroke="#942a37" stroke-width="1.51"/><path d="M1254,2L1264,-86L1228,-46Z" fill="#8a243f" stroke="#8a243f" stroke-width="1.51"/><path d="M1250,357L1277,297L1237,308Z" fill="#b74305" stroke="#b74305" stroke-width="1.51"/><path d="M1284,79L1291,146L1279,28Z" fill="#972c33" stroke="#972c33" stroke-width="1.51"/><path d="M1289,199L1291,146L1256,192Z" fill="#a53624" stroke="#a53624" stroke-width="1.51"/><path d="M1228,-46L1264,-86L1165,-70Z" fill="#8a243f" stroke="#8a243f" stroke-width="1.51"/><path d="M1165,-70L1264,-86L1082,-90Z" fill="#892340" stroke="#892340" stroke-width="1.51"/><path d="M1279,28L1264,-86L1254,2Z" fill="#8a243f" stroke="#8a243f" stroke-width="1.51"/></svg>