<svg xmlns="http://www.w3.org/2000/svg" width="1200" height="300"><path d="M593,153L585,138L548,171Z" fill="#37935f" stroke="#37935f" stroke-width="1.51"/><path d="M585,138L569,114L548,171Z" fill="#35905f" stroke="#35905f" stroke-width="1.51"/><path d="M569,114L489,138L548,171Z" fill="#358f60" stroke="#358f60" stroke-width="1.51"/><path d="M609,205L631,161L593,153Z" fill="#39975d" stroke="#39975d" stroke-width="1.51"/><path d="M593,153L631,161L585,138Z" fill="#37945e" stroke="#37945e" stroke-width="1.51"/><path d="M585,138L590,74L569,114Z" fill="#338c61" stroke="#338c61" stroke-width="1.51"/><path d="M569,114L590,74L557,96Z" fill="#328962" stroke="#328962" stroke-width="1.51"/><path d="M548,171L609,205L593,153Z" fill="#38975d" stroke="#38975d" stroke-width="1.51"/><path d="M489,138L513,187L548,171Z" fill="#37925e" stroke="#37925e" stroke-width="1.51"/><path d="M513,187L547,216L548,171Z" fill="#38975d" stroke="#38975d" stroke-width="1.51"/><path d="M547,216L609,205L548,171Z" fill="#399a5c" stroke="#399a5c" stroke-width="1.51"/><path d="M557,96L489,138L569,114Z" fill="#338b61" stroke="#338b61" stroke-width="1.51"/><path d="M647,95L590,74L585,138Z" fill="#338c61" stroke="#338c61" stroke-width="1.51"/><path d="M557,96L525,62L489,138Z" fill="#318762" stroke="#318762" stroke-width="1.51"/><path d="M631,161L647,95L585,138Z" fill="#36915f" stroke="#36915f" stroke-width="1.51"/><path d="M691,167L658,112L631,161Z" fill="#38955e" stroke="#38955e" stroke-width="1.51"/><path d="M631,161L658,112L647,95Z" fill="#35905f" stroke="#35905f" stroke-width="1.51"/><path d="M615,271L633,243L609,205Z" fill="#3ca359" stroke="#3ca359" stroke-width="1.51"/><path d="M513,187L527,251L547,216Z" fill="#3a9b5b" stroke="#3a9b5b" stroke-width="1.51"/><path d="M483,241L527,251L513,187Z" fill="#3a9c5c" stroke="#3a9c5c" stroke-width="1.51"/><path d="M540,48L525,62L557,96Z" fill="#2f8363" stroke="#2f8363" stroke-width="1.51"/><path d="M609,205L701,210L631,161Z" fill="#3a9c5b" stroke="#3a9c5b" stroke-width="1.51"/><path d="M615,271L609,205L547,216Z" fill="#3ba159" stroke="#3ba159" stroke-width="1.51"/><path d="M489,138L466,201L513,187Z" fill="#36935e" stroke="#36935e" stroke-width="1.51"/><path d="M577,18L540,48L590,74Z" fill="#2d8164" stroke="#2d8164" stroke-width="1.51"/><path d="M590,74L540,48L557,96Z" fill="#308563" stroke="#308563" stroke-width="1.51"/><path d="M466,201L483,241L513,187Z" fill="#39995c" stroke="#39995c" stroke-width="1.51"/><path d="M701,210L691,167L631,161Z" fill="#3a9b5c" stroke="#3a9b5c" stroke-width="1.51"/><path d="M527,251L615,271L547,216Z" fill="#3ca259" stroke="#3ca259" stroke-width="1.51"/><path d="M633,243L701,210L609,205Z" fill="#3ba15a" stroke="#3ba15a" stroke-width="1.51"/><path d="M489,138L436,185L466,201Z" fill="#36925f" stroke="#36925f" stroke-width="1.51"/><path d="M461,56L449,123L489,138Z" fill="#318663" stroke="#318663" stroke-width="1.51"/><path d="M461,56L489,138L525,62Z" fill="#308463" stroke="#308463" stroke-width="1.51"/><path d="M527,251L528,277L615,271Z" fill="#3da558" stroke="#3da558" stroke-width="1.51"/><path d="M483,241L528,277L527,251Z" fill="#3ba259" stroke="#3ba259" stroke-width="1.51"/><path d="M540,48L510,43L525,62Z" fill="#2d8064" stroke="#2d8064" stroke-width="1.51"/><path d="M691,167L694,127L658,112Z" fill="#37945e" stroke="#37945e" stroke-width="1.51"/><path d="M658,112L690,67L647,95Z" fill="#348c60" stroke="#348c60" stroke-width="1.51"/><path d="M615,271L644,266L633,243Z" fill="#3ea757" stroke="#3ea757" stroke-width="1.51"/><path d="M431,153L436,185L489,138Z" fill="#358e60" stroke="#358e60" stroke-width="1.51"/><path d="M466,201L461,265L483,241Z" fill="#3a9c5b" stroke="#3a9c5b" stroke-width="1.51"/><path d="M449,123L431,153L489,138Z" fill="#338b61" stroke="#338b61" stroke-width="1.51"/><path d="M650,7L577,18L590,74Z" fill="#2d8064" stroke="#2d8064" stroke-width="1.51"/><path d="M540,48L502,-6L510,43Z" fill="#2b7c65" stroke="#2b7c65" stroke-width="1.51"/><path d="M650,7L590,74L647,95Z" fill="#308562" stroke="#308562" stroke-width="1.51"/><path d="M644,266L701,210L633,243Z" fill="#3da558" stroke="#3da558" stroke-width="1.51"/><path d="M691,167L737,128L694,127Z" fill="#38965d" stroke="#38965d" stroke-width="1.51"/><path d="M510,43L461,56L525,62Z" fill="#2c7f64" stroke="#2c7f64" stroke-width="1.51"/><path d="M449,123L408,141L431,153Z" fill="#338a61" stroke="#338a61" stroke-width="1.51"/><path d="M456,51L461,56L510,43Z" fill="#2b7e64" stroke="#2b7e64" stroke-width="1.51"/><path d="M694,127L690,67L658,112Z" fill="#358e60" stroke="#358e60" stroke-width="1.51"/><path d="M748,97L690,67L694,127Z" fill="#358f5f" stroke="#358f5f" stroke-width="1.51"/><path d="M483,241L461,265L528,277Z" fill="#3ca159" stroke="#3ca159" stroke-width="1.51"/><path d="M436,185L461,265L466,201Z" fill="#39985d" stroke="#39985d" stroke-width="1.51"/><path d="M461,56L420,91L449,123Z" fill="#2f8363" stroke="#2f8363" stroke-width="1.51"/><path d="M502,-6L456,51L510,43Z" fill="#297b65" stroke="#297b65" stroke-width="1.51"/><path d="M420,91L408,141L449,123Z" fill="#318762" stroke="#318762" stroke-width="1.51"/><path d="M380,166L386,199L436,185Z" fill="#36915f" stroke="#36915f" stroke-width="1.51"/><path d="M436,185L386,199L461,265Z" fill="#38975d" stroke="#38975d" stroke-width="1.51"/><path d="M456,51L420,91L461,56Z" fill="#2c7f64" stroke="#2c7f64" stroke-width="1.51"/><path d="M528,277L577,321L615,271Z" fill="#3eaa56" stroke="#3eaa56" stroke-width="1.51"/><path d="M640,320L679,287L644,266Z" fill="#3fae55" stroke="#3fae55" stroke-width="1.51"/><path d="M529,332L577,321L528,277Z" fill="#3fab56" stroke="#3fab56" stroke-width="1.51"/><path d="M690,67L650,7L647,95Z" fill="#318762" stroke="#318762" stroke-width="1.51"/><path d="M767,161L737,128L691,167Z" fill="#39995c" stroke="#39995c" stroke-width="1.51"/><path d="M690,67L698,16L650,7Z" fill="#2e8363" stroke="#2e8363" stroke-width="1.51"/><path d="M644,266L679,287L701,210Z" fill="#3ea856" stroke="#3ea856" stroke-width="1.51"/><path d="M701,210L743,210L691,167Z" fill="#3ba05a" stroke="#3ba05a" stroke-width="1.51"/><path d="M640,320L644,266L615,271Z" fill="#3fac55" stroke="#3fac55" stroke-width="1.51"/><path d="M577,18L502,-6L540,48Z" fill="#2a7b65" stroke="#2a7b65" stroke-width="1.51"/><path d="M456,51L422,33L420,91Z" fill="#2b7d65" stroke="#2b7d65" stroke-width="1.51"/><path d="M562,-37L502,-6L577,18Z" fill="#287966" stroke="#287966" stroke-width="1.51"/><path d="M577,321L640,320L615,271Z" fill="#3fad55" stroke="#3fad55" stroke-width="1.51"/><path d="M461,265L475,310L528,277Z" fill="#3da558" stroke="#3da558" stroke-width="1.51"/><path d="M422,289L475,310L461,265Z" fill="#3da458" stroke="#3da458" stroke-width="1.51"/><path d="M482,316L529,332L528,277Z" fill="#3ea956" stroke="#3ea956" stroke-width="1.51"/><path d="M577,321L619,343L640,320Z" fill="#3fad55" stroke="#3fad55" stroke-width="1.51"/><path d="M475,310L482,316L528,277Z" fill="#3ea857" stroke="#3ea857" stroke-width="1.51"/><path d="M747,260L743,210L701,210Z" fill="#3da558" stroke="#3da558" stroke-width="1.51"/><path d="M650,7L580,-27L577,18Z" fill="#2a7b65" stroke="#2a7b65" stroke-width="1.51"/><path d="M380,166L436,185L431,153Z" fill="#348e60" stroke="#348e60" stroke-width="1.51"/><path d="M380,166L431,153L408,141Z" fill="#338b61" stroke="#338b61" stroke-width="1.51"/><path d="M348,102L380,166L408,141Z" fill="#328862" stroke="#328862" stroke-width="1.51"/><path d="M737,128L748,97L694,127Z" fill="#37935f" stroke="#37935f" stroke-width="1.51"/><path d="M808,108L748,97L737,128Z" fill="#37935e" stroke="#37935e" stroke-width="1.51"/><path d="M650,7L660,-26L580,-27Z" fill="#2b7c65" stroke="#2b7c65" stroke-width="1.51"/><path d="M723,44L698,16L690,67Z" fill="#308662" stroke="#308662" stroke-width="1.51"/><path d="M748,97L723,44L690,67Z" fill="#328b61" stroke="#328b61" stroke-width="1.51"/><path d="M440,1L422,33L456,51Z" fill="#287966" stroke="#287966" stroke-width="1.51"/><path d="M420,91L348,102L408,141Z" fill="#308463" stroke="#308463" stroke-width="1.51"/><path d="M729,310L747,260L679,287Z" fill="#3faf54" stroke="#3faf54" stroke-width="1.51"/><path d="M540,371L619,343L577,321Z" fill="#3fac55" stroke="#3fac55" stroke-width="1.51"/><path d="M580,-27L562,-37L577,18Z" fill="#297a66" stroke="#297a66" stroke-width="1.51"/><path d="M502,-6L440,1L456,51Z" fill="#277866" stroke="#277866" stroke-width="1.51"/><path d="M622,-65L562,-37L580,-27Z" fill="#297a65" stroke="#297a65" stroke-width="1.51"/><path d="M441,386L500,365L482,316Z" fill="#3ea757" stroke="#3ea757" stroke-width="1.51"/><path d="M386,199L422,289L461,265Z" fill="#3a9d5b" stroke="#3a9d5b" stroke-width="1.51"/><path d="M743,210L767,161L691,167Z" fill="#3b9e5b" stroke="#3b9e5b" stroke-width="1.51"/><path d="M451,-55L440,1L502,-6Z" fill="#257567" stroke="#257567" stroke-width="1.51"/><path d="M698,16L679,-13L650,7Z" fill="#2c7e64" stroke="#2c7e64" stroke-width="1.51"/><path d="M754,-18L679,-13L698,16Z" fill="#2c7f64" stroke="#2c7f64" stroke-width="1.51"/><path d="M679,-13L660,-26L650,7Z" fill="#2b7d64" stroke="#2b7d64" stroke-width="1.51"/><path d="M743,210L796,176L767,161Z" fill="#3ca05a" stroke="#3ca05a" stroke-width="1.51"/><path d="M679,287L747,260L701,210Z" fill="#3ea956" stroke="#3ea956" stroke-width="1.51"/><path d="M664,344L679,287L640,320Z" fill="#40af53" stroke="#40af53" stroke-width="1.51"/><path d="M619,343L664,344L640,320Z" fill="#3faf54" stroke="#3faf54" stroke-width="1.51"/><path d="M529,332L540,371L577,321Z" fill="#3fab56" stroke="#3fab56" stroke-width="1.51"/><path d="M619,343L694,383L664,344Z" fill="#40af54" stroke="#40af54" stroke-width="1.51"/><path d="M500,365L540,371L529,332Z" fill="#3eaa56" stroke="#3eaa56" stroke-width="1.51"/><path d="M500,365L529,332L482,316Z" fill="#3ea857" stroke="#3ea857" stroke-width="1.51"/><path d="M441,386L482,316L475,310Z" fill="#3da757" stroke="#3da757" stroke-width="1.51"/><path d="M699,339L729,310L679,287Z" fill="#40b153" stroke="#40b153" stroke-width="1.51"/><path d="M562,-37L501,-57L502,-6Z" fill="#277866" stroke="#277866" stroke-width="1.51"/><path d="M528,-88L501,-57L562,-37Z" fill="#287866" stroke="#287866" stroke-width="1.51"/><path d="M664,344L699,339L679,287Z" fill="#40b053" stroke="#40b053" stroke-width="1.51"/><path d="M728,359L699,339L694,383Z" fill="#40b153" stroke="#40b153" stroke-width="1.51"/><path d="M660,-26L635,-58L580,-27Z" fill="#2a7b65" stroke="#2a7b65" stroke-width="1.51"/><path d="M702,-68L635,-58L660,-26Z" fill="#2b7d64" stroke="#2b7d64" stroke-width="1.51"/><path d="M396,359L441,386L475,310Z" fill="#3da657" stroke="#3da657" stroke-width="1.51"/><path d="M380,303L396,304L422,289Z" fill="#3da458" stroke="#3da458" stroke-width="1.51"/><path d="M350,239L422,289L386,199Z" fill="#399a5c" stroke="#399a5c" stroke-width="1.51"/><path d="M361,37L420,91L422,33Z" fill="#2a7b65" stroke="#2a7b65" stroke-width="1.51"/><path d="M361,37L348,102L420,91Z" fill="#2c7e65" stroke="#2c7e65" stroke-width="1.51"/><path d="M311,181L350,239L386,199Z" fill="#36925e" stroke="#36925e" stroke-width="1.51"/><path d="M635,-58L622,-65L580,-27Z" fill="#2a7b65" stroke="#2a7b65" stroke-width="1.51"/><path d="M767,161L808,108L737,128Z" fill="#38975d" stroke="#38975d" stroke-width="1.51"/><path d="M748,97L787,52L723,44Z" fill="#338b61" stroke="#338b61" stroke-width="1.51"/><path d="M800,227L796,176L743,210Z" fill="#3da459" stroke="#3da459" stroke-width="1.51"/><path d="M800,227L743,210L747,260Z" fill="#3ea857" stroke="#3ea857" stroke-width="1.51"/><path d="M311,181L386,199L380,166Z" fill="#358e5f" stroke="#358e5f" stroke-width="1.51"/><path d="M350,239L380,303L422,289Z" fill="#3b9f5a" stroke="#3b9f5a" stroke-width="1.51"/><path d="M396,359L475,310L422,289Z" fill="#3da557" stroke="#3da557" stroke-width="1.51"/><path d="M399,-21L361,37L422,33Z" fill="#257567" stroke="#257567" stroke-width="1.51"/><path d="M399,-21L422,33L440,1Z" fill="#247467" stroke="#247467" stroke-width="1.51"/><path d="M348,102L328,140L380,166Z" fill="#318762" stroke="#318762" stroke-width="1.51"/><path d="M315,67L328,140L348,102Z" fill="#2d8064" stroke="#2d8064" stroke-width="1.51"/><path d="M501,-57L451,-55L502,-6Z" fill="#267666" stroke="#267666" stroke-width="1.51"/><path d="M528,-88L451,-55L501,-57Z" fill="#277666" stroke="#277666" stroke-width="1.51"/><path d="M814,281L800,227L747,260Z" fill="#3fad55" stroke="#3fad55" stroke-width="1.51"/><path d="M723,44L754,-18L698,16Z" fill="#2e8264" stroke="#2e8264" stroke-width="1.51"/><path d="M679,-13L702,-68L660,-26Z" fill="#2c7e65" stroke="#2c7e65" stroke-width="1.51"/><path d="M808,108L787,52L748,97Z" fill="#35905f" stroke="#35905f" stroke-width="1.51"/><path d="M808,108L767,161L796,176Z" fill="#399b5c" stroke="#399b5c" stroke-width="1.51"/><path d="M825,115L808,108L796,176Z" fill="#39995c" stroke="#39995c" stroke-width="1.51"/><path d="M451,-55L399,-21L440,1Z" fill="#257467" stroke="#257467" stroke-width="1.51"/><path d="M622,-65L528,-88L562,-37Z" fill="#297a66" stroke="#297a66" stroke-width="1.51"/><path d="M361,37L340,58L348,102Z" fill="#2a7b65" stroke="#2a7b65" stroke-width="1.51"/><path d="M315,67L340,58L312,9Z" fill="#277667" stroke="#277667" stroke-width="1.51"/><path d="M350,239L357,292L380,303Z" fill="#3b9f5a" stroke="#3b9f5a" stroke-width="1.51"/><path d="M396,359L422,289L396,304Z" fill="#3da458" stroke="#3da458" stroke-width="1.51"/><path d="M325,246L357,292L350,239Z" fill="#3a9b5c" stroke="#3a9b5c" stroke-width="1.51"/><path d="M787,52L754,-18L723,44Z" fill="#308563" stroke="#308563" stroke-width="1.51"/><path d="M635,-58L702,-68L622,-65Z" fill="#2b7d65" stroke="#2b7d65" stroke-width="1.51"/><path d="M728,359L772,314L729,310Z" fill="#40b352" stroke="#40b352" stroke-width="1.51"/><path d="M729,310L772,314L747,260Z" fill="#40b252" stroke="#40b252" stroke-width="1.51"/><path d="M699,339L728,359L729,310Z" fill="#40b253" stroke="#40b253" stroke-width="1.51"/><path d="M694,383L699,339L664,344Z" fill="#40b153" stroke="#40b153" stroke-width="1.51"/><path d="M328,140L311,181L380,166Z" fill="#338a61" stroke="#338a61" stroke-width="1.51"/><path d="M284,141L311,181L328,140Z" fill="#318862" stroke="#318862" stroke-width="1.51"/><path d="M540,371L694,383L619,343Z" fill="#3fae55" stroke="#3fae55" stroke-width="1.51"/><path d="M309,223L325,246L350,239Z" fill="#38975d" stroke="#38975d" stroke-width="1.51"/><path d="M808,108L813,56L787,52Z" fill="#358f60" stroke="#358f60" stroke-width="1.51"/><path d="M787,52L782,-33L754,-18Z" fill="#2e8263" stroke="#2e8263" stroke-width="1.51"/><path d="M838,154L825,115L796,176Z" fill="#3a9c5b" stroke="#3a9c5b" stroke-width="1.51"/><path d="M754,-18L702,-68L679,-13Z" fill="#2c7f64" stroke="#2c7f64" stroke-width="1.51"/><path d="M622,-65L702,-68L528,-88Z" fill="#2a7b65" stroke="#2a7b65" stroke-width="1.51"/><path d="M396,359L396,304L380,303Z" fill="#3ca458" stroke="#3ca458" stroke-width="1.51"/><path d="M500,365L441,386L540,371Z" fill="#3ea857" stroke="#3ea857" stroke-width="1.51"/><path d="M540,371L441,386L694,383Z" fill="#3eab55" stroke="#3eab55" stroke-width="1.51"/><path d="M820,60L813,56L808,108Z" fill="#35905f" stroke="#35905f" stroke-width="1.51"/><path d="M357,365L380,303L357,292Z" fill="#3ca359" stroke="#3ca359" stroke-width="1.51"/><path d="M357,365L396,359L380,303Z" fill="#3da359" stroke="#3da359" stroke-width="1.51"/><path d="M800,227L828,217L796,176Z" fill="#3da558" stroke="#3da558" stroke-width="1.51"/><path d="M834,255L828,217L800,227Z" fill="#3fab56" stroke="#3fab56" stroke-width="1.51"/><path d="M311,181L309,223L350,239Z" fill="#36935e" stroke="#36935e" stroke-width="1.51"/><path d="M319,351L357,365L357,292Z" fill="#3ca259" stroke="#3ca259" stroke-width="1.51"/><path d="M340,58L315,67L348,102Z" fill="#2b7c65" stroke="#2b7c65" stroke-width="1.51"/><path d="M311,181L277,211L309,223Z" fill="#35905f" stroke="#35905f" stroke-width="1.51"/><path d="M312,9L340,58L361,37Z" fill="#267667" stroke="#267667" stroke-width="1.51"/><path d="M782,-33L756,-57L754,-18Z" fill="#2e8163" stroke="#2e8163" stroke-width="1.51"/><path d="M825,115L820,60L808,108Z" fill="#36935f" stroke="#36935f" stroke-width="1.51"/><path d="M825,115L879,93L820,60Z" fill="#37935e" stroke="#37935e" stroke-width="1.51"/><path d="M828,217L838,154L796,176Z" fill="#3ca259" stroke="#3ca259" stroke-width="1.51"/><path d="M772,314L814,281L747,260Z" fill="#40b253" stroke="#40b253" stroke-width="1.51"/><path d="M847,329L814,281L772,314Z" fill="#41b651" stroke="#41b651" stroke-width="1.51"/><path d="M373,-43L342,-6L399,-21Z" fill="#227168" stroke="#227168" stroke-width="1.51"/><path d="M399,-21L342,-6L361,37Z" fill="#237268" stroke="#237268" stroke-width="1.51"/><path d="M388,-76L373,-43L399,-21Z" fill="#237267" stroke="#237267" stroke-width="1.51"/><path d="M388,-76L399,-21L451,-55Z" fill="#247367" stroke="#247367" stroke-width="1.51"/><path d="M814,281L834,255L800,227Z" fill="#3fae54" stroke="#3fae54" stroke-width="1.51"/><path d="M828,217L870,163L838,154Z" fill="#3ca259" stroke="#3ca259" stroke-width="1.51"/><path d="M754,-18L756,-57L702,-68Z" fill="#2d8064" stroke="#2d8064" stroke-width="1.51"/><path d="M782,-33L787,52L813,56Z" fill="#318762" stroke="#318762" stroke-width="1.51"/><path d="M260,93L284,141L315,67Z" fill="#2c7e65" stroke="#2c7e65" stroke-width="1.51"/><path d="M315,67L284,141L328,140Z" fill="#2e8164" stroke="#2e8164" stroke-width="1.51"/><path d="M787,-44L782,-33L817,-45Z" fill="#2e8363" stroke="#2e8363" stroke-width="1.51"/><path d="M289,-35L312,9L342,-6Z" fill="#206f68" stroke="#206f68" stroke-width="1.51"/><path d="M528,-88L388,-76L451,-55Z" fill="#257567" stroke="#257567" stroke-width="1.51"/><path d="M342,-6L312,9L361,37Z" fill="#237268" stroke="#237268" stroke-width="1.51"/><path d="M281,16L312,9L269,-9Z" fill="#206f69" stroke="#206f69" stroke-width="1.51"/><path d="M256,175L277,211L311,181Z" fill="#338c61" stroke="#338c61" stroke-width="1.51"/><path d="M309,223L275,258L325,246Z" fill="#38965d" stroke="#38965d" stroke-width="1.51"/><path d="M782,-33L787,-44L756,-57Z" fill="#2e8263" stroke="#2e8263" stroke-width="1.51"/><path d="M856,26L782,-33L813,56Z" fill="#318662" stroke="#318662" stroke-width="1.51"/><path d="M396,359L357,365L441,386Z" fill="#3ca458" stroke="#3ca458" stroke-width="1.51"/><path d="M308,305L357,292L325,246Z" fill="#3b9e5b" stroke="#3b9e5b" stroke-width="1.51"/><path d="M728,359L783,364L772,314Z" fill="#41b452" stroke="#41b452" stroke-width="1.51"/><path d="M814,281L867,316L834,255Z" fill="#41b451" stroke="#41b451" stroke-width="1.51"/><path d="M694,383L783,364L728,359Z" fill="#40b352" stroke="#40b352" stroke-width="1.51"/><path d="M275,258L308,305L325,246Z" fill="#399b5c" stroke="#399b5c" stroke-width="1.51"/><path d="M905,218L870,163L828,217Z" fill="#3da757" stroke="#3da757" stroke-width="1.51"/><path d="M838,154L873,116L825,115Z" fill="#399a5c" stroke="#399a5c" stroke-width="1.51"/><path d="M820,60L856,26L813,56Z" fill="#338c61" stroke="#338c61" stroke-width="1.51"/><path d="M870,163L873,116L838,154Z" fill="#3a9d5b" stroke="#3a9d5b" stroke-width="1.51"/><path d="M277,211L275,258L309,223Z" fill="#37945e" stroke="#37945e" stroke-width="1.51"/><path d="M277,211L234,244L275,258Z" fill="#37945e" stroke="#37945e" stroke-width="1.51"/><path d="M284,141L256,175L311,181Z" fill="#328961" stroke="#328961" stroke-width="1.51"/><path d="M217,100L256,175L284,141Z" fill="#2f8363" stroke="#2f8363" stroke-width="1.51"/><path d="M281,16L260,93L315,67Z" fill="#287767" stroke="#287767" stroke-width="1.51"/><path d="M879,93L856,26L820,60Z" fill="#358f60" stroke="#358f60" stroke-width="1.51"/><path d="M267,325L319,351L308,305Z" fill="#3ba05a" stroke="#3ba05a" stroke-width="1.51"/><path d="M308,305L319,351L357,292Z" fill="#3ca159" stroke="#3ca159" stroke-width="1.51"/><path d="M873,116L879,93L825,115Z" fill="#38975d" stroke="#38975d" stroke-width="1.51"/><path d="M938,103L879,93L873,116Z" fill="#38985d" stroke="#38985d" stroke-width="1.51"/><path d="M312,9L281,16L315,67Z" fill="#257467" stroke="#257467" stroke-width="1.51"/><path d="M289,-35L342,-6L311,-69Z" fill="#206f68" stroke="#206f68" stroke-width="1.51"/><path d="M787,-44L817,-45L756,-57Z" fill="#2e8263" stroke="#2e8263" stroke-width="1.51"/><path d="M756,-57L996,-90L702,-68Z" fill="#2f8463" stroke="#2f8463" stroke-width="1.51"/><path d="M847,-27L817,-45L782,-33Z" fill="#2f8463" stroke="#2f8463" stroke-width="1.51"/><path d="M834,255L905,218L828,217Z" fill="#3fac55" stroke="#3fac55" stroke-width="1.51"/><path d="M783,364L847,329L772,314Z" fill="#41b551" stroke="#41b551" stroke-width="1.51"/><path d="M856,26L847,-27L782,-33Z" fill="#2f8463" stroke="#2f8463" stroke-width="1.51"/><path d="M879,93L875,27L856,26Z" fill="#348d60" stroke="#348d60" stroke-width="1.51"/><path d="M868,-18L847,-27L856,26Z" fill="#308562" stroke="#308562" stroke-width="1.51"/><path d="M847,329L867,316L814,281Z" fill="#42b750" stroke="#42b750" stroke-width="1.51"/><path d="M870,163L938,103L873,116Z" fill="#3a9c5c" stroke="#3a9c5c" stroke-width="1.51"/><path d="M230,10L217,100L260,93Z" fill="#277767" stroke="#277767" stroke-width="1.51"/><path d="M311,-69L342,-6L373,-43Z" fill="#227068" stroke="#227068" stroke-width="1.51"/><path d="M289,-35L269,-9L312,9Z" fill="#1f6e69" stroke="#1f6e69" stroke-width="1.51"/><path d="M388,-76L311,-69L373,-43Z" fill="#227168" stroke="#227168" stroke-width="1.51"/><path d="M237,-29L230,10L269,-9Z" fill="#1e6c69" stroke="#1e6c69" stroke-width="1.51"/><path d="M892,279L905,218L834,255Z" fill="#40b054" stroke="#40b054" stroke-width="1.51"/><path d="M879,93L915,22L875,27Z" fill="#358e60" stroke="#358e60" stroke-width="1.51"/><path d="M275,258L267,325L308,305Z" fill="#3b9f5b" stroke="#3b9f5b" stroke-width="1.51"/><path d="M228,320L267,325L275,258Z" fill="#3b9e5a" stroke="#3b9e5a" stroke-width="1.51"/><path d="M210,191L234,244L277,211Z" fill="#358f60" stroke="#358f60" stroke-width="1.51"/><path d="M210,191L277,211L256,175Z" fill="#338c60" stroke="#338c60" stroke-width="1.51"/><path d="M217,100L284,141L260,93Z" fill="#2c7f64" stroke="#2c7f64" stroke-width="1.51"/><path d="M867,316L892,279L834,255Z" fill="#41b551" stroke="#41b551" stroke-width="1.51"/><path d="M234,244L235,251L275,258Z" fill="#38965d" stroke="#38965d" stroke-width="1.51"/><path d="M875,27L868,-18L856,26Z" fill="#318862" stroke="#318862" stroke-width="1.51"/><path d="M847,-27L876,-44L817,-45Z" fill="#308563" stroke="#308563" stroke-width="1.51"/><path d="M876,-44L868,-18L937,-26Z" fill="#318762" stroke="#318762" stroke-width="1.51"/><path d="M905,218L912,216L870,163Z" fill="#3ea857" stroke="#3ea857" stroke-width="1.51"/><path d="M914,271L912,216L905,218Z" fill="#40af54" stroke="#40af54" stroke-width="1.51"/><path d="M783,364L840,386L847,329Z" fill="#41b650" stroke="#41b650" stroke-width="1.51"/><path d="M847,329L896,365L867,316Z" fill="#41b850" stroke="#41b850" stroke-width="1.51"/><path d="M933,317L914,271L892,279Z" fill="#41b84f" stroke="#41b84f" stroke-width="1.51"/><path d="M694,383L840,386L783,364Z" fill="#41b451" stroke="#41b451" stroke-width="1.51"/><path d="M441,386L840,386L694,383Z" fill="#40af54" stroke="#40af54" stroke-width="1.51"/><path d="M230,10L260,93L281,16Z" fill="#247367" stroke="#247367" stroke-width="1.51"/><path d="M234,244L160,227L235,251Z" fill="#36925e" stroke="#36925e" stroke-width="1.51"/><path d="M194,136L210,191L256,175Z" fill="#318662" stroke="#318662" stroke-width="1.51"/><path d="M267,325L284,378L319,351Z" fill="#3ba05a" stroke="#3ba05a" stroke-width="1.51"/><path d="M319,351L284,378L357,365Z" fill="#3ca15a" stroke="#3ca15a" stroke-width="1.51"/><path d="M357,365L284,378L441,386Z" fill="#3ca359" stroke="#3ca359" stroke-width="1.51"/><path d="M210,351L284,378L267,325Z" fill="#3b9e5a" stroke="#3b9e5a" stroke-width="1.51"/><path d="M228,320L275,258L235,251Z" fill="#399a5c" stroke="#399a5c" stroke-width="1.51"/><path d="M892,279L914,271L905,218Z" fill="#40b253" stroke="#40b253" stroke-width="1.51"/><path d="M933,317L892,279L867,316Z" fill="#42ba4f" stroke="#42ba4f" stroke-width="1.51"/><path d="M868,-18L876,-44L847,-27Z" fill="#308662" stroke="#308662" stroke-width="1.51"/><path d="M817,-45L996,-90L756,-57Z" fill="#308562" stroke="#308562" stroke-width="1.51"/><path d="M915,22L868,-18L875,27Z" fill="#328861" stroke="#328861" stroke-width="1.51"/><path d="M269,-9L230,10L281,16Z" fill="#1f6e69" stroke="#1f6e69" stroke-width="1.51"/><path d="M237,-29L269,-9L289,-35Z" fill="#1f6d69" stroke="#1f6d69" stroke-width="1.51"/><path d="M912,216L936,197L870,163Z" fill="#3ea757" stroke="#3ea757" stroke-width="1.51"/><path d="M976,265L936,197L912,216Z" fill="#40ae54" stroke="#40ae54" stroke-width="1.51"/><path d="M938,103L915,22L879,93Z" fill="#37945e" stroke="#37945e" stroke-width="1.51"/><path d="M936,197L938,103L870,163Z" fill="#3ba159" stroke="#3ba159" stroke-width="1.51"/><path d="M311,-69L283,-85L289,-35Z" fill="#206e68" stroke="#206e68" stroke-width="1.51"/><path d="M388,-76L283,-85L311,-69Z" fill="#217068" stroke="#217068" stroke-width="1.51"/><path d="M528,-88L283,-85L388,-76Z" fill="#247367" stroke="#247367" stroke-width="1.51"/><path d="M217,100L194,136L256,175Z" fill="#2e8164" stroke="#2e8164" stroke-width="1.51"/><path d="M171,148L194,136L149,95Z" fill="#2b7d65" stroke="#2b7d65" stroke-width="1.51"/><path d="M228,320L235,251L145,252Z" fill="#38985d" stroke="#38985d" stroke-width="1.51"/><path d="M210,351L228,320L144,323Z" fill="#3a9b5b" stroke="#3a9b5b" stroke-width="1.51"/><path d="M149,95L194,136L217,100Z" fill="#2a7c65" stroke="#2a7c65" stroke-width="1.51"/><path d="M283,-85L237,-29L289,-35Z" fill="#1f6d69" stroke="#1f6d69" stroke-width="1.51"/><path d="M938,103L950,92L915,22Z" fill="#37955e" stroke="#37955e" stroke-width="1.51"/><path d="M979,130L950,92L938,103Z" fill="#399c5b" stroke="#399c5b" stroke-width="1.51"/><path d="M914,271L976,265L912,216Z" fill="#41b353" stroke="#41b353" stroke-width="1.51"/><path d="M840,386L896,365L847,329Z" fill="#41b850" stroke="#41b850" stroke-width="1.51"/><path d="M194,136L171,148L210,191Z" fill="#2f8463" stroke="#2f8463" stroke-width="1.51"/><path d="M180,25L217,100L230,10Z" fill="#237268" stroke="#237268" stroke-width="1.51"/><path d="M924,353L933,317L867,316Z" fill="#42ba4f" stroke="#42ba4f" stroke-width="1.51"/><path d="M936,197L968,167L938,103Z" fill="#3ca359" stroke="#3ca359" stroke-width="1.51"/><path d="M990,199L968,167L936,197Z" fill="#3ea956" stroke="#3ea956" stroke-width="1.51"/><path d="M896,365L924,353L867,316Z" fill="#42b94f" stroke="#42b94f" stroke-width="1.51"/><path d="M228,320L210,351L267,325Z" fill="#3b9d5b" stroke="#3b9d5b" stroke-width="1.51"/><path d="M160,227L234,244L210,191Z" fill="#358e5f" stroke="#358e5f" stroke-width="1.51"/><path d="M171,148L161,189L210,191Z" fill="#318662" stroke="#318662" stroke-width="1.51"/><path d="M171,-12L180,25L230,10Z" fill="#1d6b69" stroke="#1d6b69" stroke-width="1.51"/><path d="M171,148L140,138L161,189Z" fill="#2e8263" stroke="#2e8263" stroke-width="1.51"/><path d="M171,-12L230,10L237,-29Z" fill="#1c6b69" stroke="#1c6b69" stroke-width="1.51"/><path d="M915,22L937,-26L868,-18Z" fill="#318762" stroke="#318762" stroke-width="1.51"/><path d="M997,20L937,-26L915,22Z" fill="#328a61" stroke="#328a61" stroke-width="1.51"/><path d="M997,20L915,22L950,92Z" fill="#35905f" stroke="#35905f" stroke-width="1.51"/><path d="M968,167L979,130L938,103Z" fill="#3ba05a" stroke="#3ba05a" stroke-width="1.51"/><path d="M1049,179L979,130L968,167Z" fill="#3da558" stroke="#3da558" stroke-width="1.51"/><path d="M161,189L160,227L210,191Z" fill="#338b61" stroke="#338b61" stroke-width="1.51"/><path d="M933,317L976,265L914,271Z" fill="#42b84f" stroke="#42b84f" stroke-width="1.51"/><path d="M979,319L976,265L933,317Z" fill="#42bc4d" stroke="#42bc4d" stroke-width="1.51"/><path d="M937,-26L938,-50L876,-44Z" fill="#318762" stroke="#318762" stroke-width="1.51"/><path d="M876,-44L996,-90L817,-45Z" fill="#318762" stroke="#318762" stroke-width="1.51"/><path d="M702,-68L996,-90L528,-88Z" fill="#2d8064" stroke="#2d8064" stroke-width="1.51"/><path d="M992,-19L938,-50L937,-26Z" fill="#328961" stroke="#328961" stroke-width="1.51"/><path d="M180,25L149,95L217,100Z" fill="#267567" stroke="#267567" stroke-width="1.51"/><path d="M96,230L145,252L160,227Z" fill="#358e60" stroke="#358e60" stroke-width="1.51"/><path d="M976,265L990,199L936,197Z" fill="#40af54" stroke="#40af54" stroke-width="1.51"/><path d="M149,95L140,138L171,148Z" fill="#2b7d65" stroke="#2b7d65" stroke-width="1.51"/><path d="M180,25L122,52L149,95Z" fill="#237268" stroke="#237268" stroke-width="1.51"/><path d="M149,95L99,91L140,138Z" fill="#287966" stroke="#287966" stroke-width="1.51"/><path d="M169,-71L171,-12L237,-29Z" fill="#1b6a6a" stroke="#1b6a6a" stroke-width="1.51"/><path d="M96,230L160,227L161,189Z" fill="#338b61" stroke="#338b61" stroke-width="1.51"/><path d="M160,227L145,252L235,251Z" fill="#36915f" stroke="#36915f" stroke-width="1.51"/><path d="M528,-88L206,-89L283,-85Z" fill="#227068" stroke="#227068" stroke-width="1.51"/><path d="M283,-85L206,-89L237,-29Z" fill="#1d6c69" stroke="#1d6c69" stroke-width="1.51"/><path d="M924,353L979,319L933,317Z" fill="#42bc4e" stroke="#42bc4e" stroke-width="1.51"/><path d="M976,265L1024,214L990,199Z" fill="#40b153" stroke="#40b153" stroke-width="1.51"/><path d="M979,130L1007,77L950,92Z" fill="#399b5c" stroke="#399b5c" stroke-width="1.51"/><path d="M1021,115L1007,77L979,130Z" fill="#3a9d5b" stroke="#3a9d5b" stroke-width="1.51"/><path d="M1021,115L979,130L1049,179Z" fill="#3ca358" stroke="#3ca358" stroke-width="1.51"/><path d="M1007,77L997,20L950,92Z" fill="#37955e" stroke="#37955e" stroke-width="1.51"/><path d="M145,252L132,281L228,320Z" fill="#38975d" stroke="#38975d" stroke-width="1.51"/><path d="M96,230L132,281L145,252Z" fill="#35915f" stroke="#35915f" stroke-width="1.51"/><path d="M1007,77L1020,65L997,20Z" fill="#37945e" stroke="#37945e" stroke-width="1.51"/><path d="M1049,179L968,167L990,199Z" fill="#3eaa56" stroke="#3eaa56" stroke-width="1.51"/><path d="M132,281L144,323L228,320Z" fill="#399a5c" stroke="#399a5c" stroke-width="1.51"/><path d="M140,138L97,174L161,189Z" fill="#2f8363" stroke="#2f8363" stroke-width="1.51"/><path d="M171,-12L122,52L180,25Z" fill="#1e6c69" stroke="#1e6c69" stroke-width="1.51"/><path d="M139,-26L122,52L171,-12Z" fill="#1a696a" stroke="#1a696a" stroke-width="1.51"/><path d="M997,20L992,-19L937,-26Z" fill="#338a61" stroke="#338a61" stroke-width="1.51"/><path d="M1026,13L992,-19L997,20Z" fill="#338c61" stroke="#338c61" stroke-width="1.51"/><path d="M1032,272L1024,214L976,265Z" fill="#41b651" stroke="#41b651" stroke-width="1.51"/><path d="M206,-89L169,-71L237,-29Z" fill="#1c6b69" stroke="#1c6b69" stroke-width="1.51"/><path d="M1021,115L1020,65L1007,77Z" fill="#399a5c" stroke="#399a5c" stroke-width="1.51"/><path d="M1026,13L1020,65L1083,8Z" fill="#36915f" stroke="#36915f" stroke-width="1.51"/><path d="M169,-71L139,-26L171,-12Z" fill="#1a696a" stroke="#1a696a" stroke-width="1.51"/><path d="M979,319L1032,272L976,265Z" fill="#42bb4e" stroke="#42bb4e" stroke-width="1.51"/><path d="M924,353L995,349L979,319Z" fill="#42bc4d" stroke="#42bc4d" stroke-width="1.51"/><path d="M896,365L995,349L924,353Z" fill="#42bb4e" stroke="#42bb4e" stroke-width="1.51"/><path d="M1022,350L995,349L1067,385Z" fill="#43bf4c" stroke="#43bf4c" stroke-width="1.51"/><path d="M144,323L158,385L210,351Z" fill="#399a5c" stroke="#399a5c" stroke-width="1.51"/><path d="M210,351L158,385L284,378Z" fill="#3a9c5b" stroke="#3a9c5b" stroke-width="1.51"/><path d="M284,378L158,385L441,386Z" fill="#3ba05a" stroke="#3ba05a" stroke-width="1.51"/><path d="M133,338L158,385L144,323Z" fill="#39995c" stroke="#39995c" stroke-width="1.51"/><path d="M86,295L144,323L132,281Z" fill="#39985d" stroke="#39985d" stroke-width="1.51"/><path d="M86,295L133,338L144,323Z" fill="#39985d" stroke="#39985d" stroke-width="1.51"/><path d="M74,130L97,174L140,138Z" fill="#2c7e64" stroke="#2c7e64" stroke-width="1.51"/><path d="M122,52L99,91L149,95Z" fill="#257467" stroke="#257467" stroke-width="1.51"/><path d="M65,89L99,91L122,52Z" fill="#237267" stroke="#237267" stroke-width="1.51"/><path d="M1024,214L1049,179L990,199Z" fill="#3fad55" stroke="#3fad55" stroke-width="1.51"/><path d="M1039,325L1032,272L979,319Z" fill="#43bf4c" stroke="#43bf4c" stroke-width="1.51"/><path d="M97,174L96,230L161,189Z" fill="#318762" stroke="#318762" stroke-width="1.51"/><path d="M1068,105L1020,65L1021,115Z" fill="#3a9d5c" stroke="#3a9d5c" stroke-width="1.51"/><path d="M1020,65L1026,13L997,20Z" fill="#35915f" stroke="#35915f" stroke-width="1.51"/><path d="M1062,198L1049,179L1024,214Z" fill="#3fae54" stroke="#3fae54" stroke-width="1.51"/><path d="M139,-26L67,-23L122,52Z" fill="#18676a" stroke="#18676a" stroke-width="1.51"/><path d="M169,-71L129,-43L139,-26Z" fill="#1a686a" stroke="#1a686a" stroke-width="1.51"/><path d="M1062,198L1060,153L1049,179Z" fill="#3fab56" stroke="#3fab56" stroke-width="1.51"/><path d="M1049,179L1060,153L1021,115Z" fill="#3da657" stroke="#3da657" stroke-width="1.51"/><path d="M133,338L125,371L158,385Z" fill="#39995c" stroke="#39995c" stroke-width="1.51"/><path d="M68,367L125,371L133,338Z" fill="#39985d" stroke="#39985d" stroke-width="1.51"/><path d="M995,349L1039,325L979,319Z" fill="#43be4d" stroke="#43be4d" stroke-width="1.51"/><path d="M1032,272L1062,198L1024,214Z" fill="#41b352" stroke="#41b352" stroke-width="1.51"/><path d="M1067,385L995,349L896,365Z" fill="#43bd4d" stroke="#43bd4d" stroke-width="1.51"/><path d="M1023,-67L996,-90L992,-19Z" fill="#338b61" stroke="#338b61" stroke-width="1.51"/><path d="M992,-19L996,-90L938,-50Z" fill="#338a61" stroke="#338a61" stroke-width="1.51"/><path d="M938,-50L996,-90L876,-44Z" fill="#328861" stroke="#328861" stroke-width="1.51"/><path d="M528,-88L996,-90L206,-89Z" fill="#297a66" stroke="#297a66" stroke-width="1.51"/><path d="M99,91L74,130L140,138Z" fill="#297a65" stroke="#297a65" stroke-width="1.51"/><path d="M97,174L63,186L96,230Z" fill="#308663" stroke="#308663" stroke-width="1.51"/><path d="M96,230L86,295L132,281Z" fill="#36925e" stroke="#36925e" stroke-width="1.51"/><path d="M65,89L74,130L99,91Z" fill="#267667" stroke="#267667" stroke-width="1.51"/><path d="M1099,249L1062,198L1032,272Z" fill="#41b651" stroke="#41b651" stroke-width="1.51"/><path d="M1022,350L1039,325L995,349Z" fill="#43bf4c" stroke="#43bf4c" stroke-width="1.51"/><path d="M67,251L86,295L96,230Z" fill="#358f60" stroke="#358f60" stroke-width="1.51"/><path d="M1060,153L1068,105L1021,115Z" fill="#3ca259" stroke="#3ca259" stroke-width="1.51"/><path d="M1052,-38L1023,-67L992,-19Z" fill="#338c60" stroke="#338c60" stroke-width="1.51"/><path d="M1080,81L1068,105L1106,80Z" fill="#3a9d5a" stroke="#3a9d5a" stroke-width="1.51"/><path d="M74,130L63,186L97,174Z" fill="#2d8064" stroke="#2d8064" stroke-width="1.51"/><path d="M1052,-38L992,-19L1026,13Z" fill="#338c60" stroke="#338c60" stroke-width="1.51"/><path d="M74,130L44,165L63,186Z" fill="#2c7f64" stroke="#2c7f64" stroke-width="1.51"/><path d="M41,26L65,89L122,52Z" fill="#206e69" stroke="#206e69" stroke-width="1.51"/><path d="M53,209L67,251L96,230Z" fill="#328b61" stroke="#328b61" stroke-width="1.51"/><path d="M1068,105L1080,81L1020,65Z" fill="#3a9b5c" stroke="#3a9b5c" stroke-width="1.51"/><path d="M1106,80L1068,105L1122,147Z" fill="#3ca259" stroke="#3ca259" stroke-width="1.51"/><path d="M63,186L53,209L96,230Z" fill="#318762" stroke="#318762" stroke-width="1.51"/><path d="M44,165L53,209L63,186Z" fill="#2e8363" stroke="#2e8363" stroke-width="1.51"/><path d="M1083,8L1052,-38L1026,13Z" fill="#348d60" stroke="#348d60" stroke-width="1.51"/><path d="M16,100L45,148L74,130Z" fill="#287866" stroke="#287866" stroke-width="1.51"/><path d="M45,148L44,165L74,130Z" fill="#2b7d65" stroke="#2b7d65" stroke-width="1.51"/><path d="M129,-43L67,-23L139,-26Z" fill="#18676a" stroke="#18676a" stroke-width="1.51"/><path d="M65,89L16,100L74,130Z" fill="#267667" stroke="#267667" stroke-width="1.51"/><path d="M74,-44L67,-23L129,-43Z" fill="#17666a" stroke="#17666a" stroke-width="1.51"/><path d="M74,-44L129,-43L169,-71Z" fill="#18686a" stroke="#18686a" stroke-width="1.51"/><path d="M19,-70L74,-44L169,-71Z" fill="#17666a" stroke="#17666a" stroke-width="1.51"/><path d="M41,26L55,7L28,-33Z" fill="#14646b" stroke="#14646b" stroke-width="1.51"/><path d="M67,-23L55,7L122,52Z" fill="#19686a" stroke="#19686a" stroke-width="1.51"/><path d="M1080,81L1083,8L1020,65Z" fill="#38965d" stroke="#38965d" stroke-width="1.51"/><path d="M8,203L40,253L53,209Z" fill="#318861" stroke="#318861" stroke-width="1.51"/><path d="M53,209L40,253L67,251Z" fill="#338b61" stroke="#338b61" stroke-width="1.51"/><path d="M67,251L40,253L86,295Z" fill="#35905f" stroke="#35905f" stroke-width="1.51"/><path d="M86,295L68,367L133,338Z" fill="#38975d" stroke="#38975d" stroke-width="1.51"/><path d="M1062,198L1122,147L1060,153Z" fill="#3eab56" stroke="#3eab56" stroke-width="1.51"/><path d="M1080,81L1106,80L1083,8Z" fill="#38985d" stroke="#38985d" stroke-width="1.51"/><path d="M1094,338L1099,249L1032,272Z" fill="#43bf4d" stroke="#43bf4d" stroke-width="1.51"/><path d="M1114,249L1099,249L1114,331Z" fill="#43bf4d" stroke="#43bf4d" stroke-width="1.51"/><path d="M29,320L68,367L86,295Z" fill="#38965d" stroke="#38965d" stroke-width="1.51"/><path d="M125,371L68,367L158,385Z" fill="#38985d" stroke="#38985d" stroke-width="1.51"/><path d="M1122,147L1068,105L1060,153Z" fill="#3ca558" stroke="#3ca558" stroke-width="1.51"/><path d="M-3,184L8,203L44,165Z" fill="#2e8164" stroke="#2e8164" stroke-width="1.51"/><path d="M44,165L8,203L53,209Z" fill="#2f8363" stroke="#2f8363" stroke-width="1.51"/><path d="M55,7L41,26L122,52Z" fill="#1b6a6a" stroke="#1b6a6a" stroke-width="1.51"/><path d="M28,-33L55,7L67,-23Z" fill="#14656b" stroke="#14656b" stroke-width="1.51"/><path d="M1022,350L1067,385L1039,325Z" fill="#43c04c" stroke="#43c04c" stroke-width="1.51"/><path d="M840,386L1067,385L896,365Z" fill="#42bb4e" stroke="#42bb4e" stroke-width="1.51"/><path d="M1099,249L1113,226L1062,198Z" fill="#41b551" stroke="#41b551" stroke-width="1.51"/><path d="M1114,249L1113,226L1099,249Z" fill="#42b84f" stroke="#42b84f" stroke-width="1.51"/><path d="M1094,338L1032,272L1039,325Z" fill="#43c04c" stroke="#43c04c" stroke-width="1.51"/><path d="M1150,159L1122,147L1157,180Z" fill="#3fac55" stroke="#3fac55" stroke-width="1.51"/><path d="M1113,226L1122,147L1062,198Z" fill="#40af54" stroke="#40af54" stroke-width="1.51"/><path d="M41,26L16,100L65,89Z" fill="#217068" stroke="#217068" stroke-width="1.51"/><path d="M1067,385L1094,338L1039,325Z" fill="#43c14b" stroke="#43c14b" stroke-width="1.51"/><path d="M1083,8L1098,-29L1052,-38Z" fill="#348e60" stroke="#348e60" stroke-width="1.51"/><path d="M1052,-38L1082,-90L1023,-67Z" fill="#348d60" stroke="#348d60" stroke-width="1.51"/><path d="M1023,-67L1082,-90L996,-90Z" fill="#348c60" stroke="#348c60" stroke-width="1.51"/><path d="M1130,35L1098,-29L1083,8Z" fill="#359060" stroke="#359060" stroke-width="1.51"/><path d="M1130,35L1083,8L1106,80Z" fill="#38965d" stroke="#38965d" stroke-width="1.51"/><path d="M40,253L29,320L86,295Z" fill="#36945e" stroke="#36945e" stroke-width="1.51"/><path d="M-3,184L44,165L45,148Z" fill="#2c7e64" stroke="#2c7e64" stroke-width="1.51"/><path d="M-8,277L29,320L40,253Z" fill="#36925f" stroke="#36925f" stroke-width="1.51"/><path d="M1098,-29L1082,-90L1052,-38Z" fill="#348e60" stroke="#348e60" stroke-width="1.51"/><path d="M-20,242L-8,277L40,253Z" fill="#348c60" stroke="#348c60" stroke-width="1.51"/><path d="M-35,134L-3,184L45,148Z" fill="#2a7b65" stroke="#2a7b65" stroke-width="1.51"/><path d="M74,-44L28,-33L67,-23Z" fill="#15656b" stroke="#15656b" stroke-width="1.51"/><path d="M41,26L-8,51L16,100Z" fill="#1e6d69" stroke="#1e6d69" stroke-width="1.51"/><path d="M16,100L-35,134L45,148Z" fill="#277866" stroke="#277866" stroke-width="1.51"/><path d="M19,-70L28,-33L74,-44Z" fill="#14646b" stroke="#14646b" stroke-width="1.51"/><path d="M1118,364L1114,331L1094,338Z" fill="#44c34a" stroke="#44c34a" stroke-width="1.51"/><path d="M1094,338L1114,331L1099,249Z" fill="#44c24b" stroke="#44c24b" stroke-width="1.51"/><path d="M1157,180L1122,147L1113,226Z" fill="#40b053" stroke="#40b053" stroke-width="1.51"/><path d="M1157,93L1130,35L1106,80Z" fill="#3a9c5b" stroke="#3a9c5b" stroke-width="1.51"/><path d="M1098,-29L1133,-53L1082,-90Z" fill="#359060" stroke="#359060" stroke-width="1.51"/><path d="M1153,131L1106,80L1122,147Z" fill="#3da558" stroke="#3da558" stroke-width="1.51"/><path d="M29,320L24,350L68,367Z" fill="#37955d" stroke="#37955d" stroke-width="1.51"/><path d="M-20,314L24,350L29,320Z" fill="#37945e" stroke="#37945e" stroke-width="1.51"/><path d="M1157,180L1113,226L1199,222Z" fill="#41b551" stroke="#41b551" stroke-width="1.51"/><path d="M1150,159L1153,131L1122,147Z" fill="#3eaa56" stroke="#3eaa56" stroke-width="1.51"/><path d="M-30,-10L-8,51L41,26Z" fill="#17666a" stroke="#17666a" stroke-width="1.51"/><path d="M1170,277L1113,226L1114,249Z" fill="#42bb4e" stroke="#42bb4e" stroke-width="1.51"/><path d="M1067,385L1118,364L1094,338Z" fill="#44c24b" stroke="#44c24b" stroke-width="1.51"/><path d="M-20,242L40,253L8,203Z" fill="#328862" stroke="#328862" stroke-width="1.51"/><path d="M-20,242L8,203L-3,184Z" fill="#308563" stroke="#308563" stroke-width="1.51"/><path d="M1150,159L1224,115L1153,131Z" fill="#3ea956" stroke="#3ea956" stroke-width="1.51"/><path d="M1170,277L1114,249L1114,331Z" fill="#43c14b" stroke="#43c14b" stroke-width="1.51"/><path d="M1153,131L1157,93L1106,80Z" fill="#3ca259" stroke="#3ca259" stroke-width="1.51"/><path d="M1130,35L1129,-40L1098,-29Z" fill="#35905f" stroke="#35905f" stroke-width="1.51"/><path d="M1224,115L1157,93L1153,131Z" fill="#3da558" stroke="#3da558" stroke-width="1.51"/><path d="M1133,-53L1129,-40L1165,-70Z" fill="#35915f" stroke="#35915f" stroke-width="1.51"/><path d="M28,-33L-30,-10L41,26Z" fill="#12636b" stroke="#12636b" stroke-width="1.51"/><path d="M206,-89L19,-70L169,-71Z" fill="#18686a" stroke="#18686a" stroke-width="1.51"/><path d="M-58,225L-20,242L-3,184Z" fill="#308662" stroke="#308662" stroke-width="1.51"/><path d="M-8,51L-22,64L16,100Z" fill="#1f6e69" stroke="#1f6e69" stroke-width="1.51"/><path d="M-57,56L-22,64L-53,21Z" fill="#1b6a6a" stroke="#1b6a6a" stroke-width="1.51"/><path d="M1129,-40L1133,-53L1098,-29Z" fill="#35905f" stroke="#35905f" stroke-width="1.51"/><path d="M1174,26L1129,-40L1130,35Z" fill="#36925f" stroke="#36925f" stroke-width="1.51"/><path d="M-22,64L-35,134L16,100Z" fill="#237367" stroke="#237367" stroke-width="1.51"/><path d="M-61,332L-20,314L-96,266Z" fill="#37935e" stroke="#37935e" stroke-width="1.51"/><path d="M-8,277L-20,314L29,320Z" fill="#37935e" stroke="#37935e" stroke-width="1.51"/><path d="M-96,266L-8,277L-20,242Z" fill="#348d60" stroke="#348d60" stroke-width="1.51"/><path d="M1193,0L1174,26L1203,10Z" fill="#37955e" stroke="#37955e" stroke-width="1.51"/><path d="M1198,325L1170,277L1114,331Z" fill="#44c549" stroke="#44c549" stroke-width="1.51"/><path d="M24,350L-10,371L68,367Z" fill="#37945e" stroke="#37945e" stroke-width="1.51"/><path d="M68,367L-10,371L158,385Z" fill="#38975d" stroke="#38975d" stroke-width="1.51"/><path d="M-20,314L-10,371L24,350Z" fill="#37935e" stroke="#37935e" stroke-width="1.51"/><path d="M1157,93L1174,26L1130,35Z" fill="#399a5c" stroke="#399a5c" stroke-width="1.51"/><path d="M1224,115L1150,159L1228,183Z" fill="#3fad55" stroke="#3fad55" stroke-width="1.51"/><path d="M19,-70L-30,-10L28,-33Z" fill="#12636b" stroke="#12636b" stroke-width="1.51"/><path d="M-22,64L-77,104L-35,134Z" fill="#247367" stroke="#247367" stroke-width="1.51"/><path d="M-20,314L-61,332L-10,371Z" fill="#37935e" stroke="#37935e" stroke-width="1.51"/><path d="M-78,163L-58,225L-3,184Z" fill="#2e8163" stroke="#2e8163" stroke-width="1.51"/><path d="M-78,163L-3,184L-35,134Z" fill="#2b7c65" stroke="#2b7c65" stroke-width="1.51"/><path d="M-53,21L-22,64L-8,51Z" fill="#1b6a6a" stroke="#1b6a6a" stroke-width="1.51"/><path d="M1170,277L1199,222L1113,226Z" fill="#42bb4e" stroke="#42bb4e" stroke-width="1.51"/><path d="M-30,-10L-53,21L-8,51Z" fill="#16666b" stroke="#16666b" stroke-width="1.51"/><path d="M1133,-53L1165,-70L1082,-90Z" fill="#35905f" stroke="#35905f" stroke-width="1.51"/><path d="M1193,0L1165,-70L1129,-40Z" fill="#36925f" stroke="#36925f" stroke-width="1.51"/><path d="M1193,0L1129,-40L1174,26Z" fill="#36925f" stroke="#36925f" stroke-width="1.51"/><path d="M19,-70L-29,-84L-30,-10Z" fill="#11636b" stroke="#11636b" stroke-width="1.51"/><path d="M-30,-10L-69,-21L-53,21Z" fill="#11636b" stroke="#11636b" stroke-width="1.51"/><path d="M206,-89L-29,-84L19,-70Z" fill="#15656b" stroke="#15656b" stroke-width="1.51"/><path d="M1203,10L1174,26L1227,67Z" fill="#39995c" stroke="#39995c" stroke-width="1.51"/><path d="M-77,104L-22,64L-57,56Z" fill="#206f68" stroke="#206f68" stroke-width="1.51"/><path d="M-77,104L-78,163L-35,134Z" fill="#287866" stroke="#287866" stroke-width="1.51"/><path d="M-69,-21L-77,104L-57,56Z" fill="#1b6a6a" stroke="#1b6a6a" stroke-width="1.51"/><path d="M-69,-21L-57,56L-53,21Z" fill="#15666b" stroke="#15666b" stroke-width="1.51"/><path d="M1199,222L1215,210L1157,180Z" fill="#41b651" stroke="#41b651" stroke-width="1.51"/><path d="M1242,274L1215,210L1199,222Z" fill="#42bb4e" stroke="#42bb4e" stroke-width="1.51"/><path d="M1242,274L1199,222L1170,277Z" fill="#43bf4c" stroke="#43bf4c" stroke-width="1.51"/><path d="M1193,0L1228,-46L1165,-70Z" fill="#37935e" stroke="#37935e" stroke-width="1.51"/><path d="M1227,67L1174,26L1157,93Z" fill="#3a9e5b" stroke="#3a9e5b" stroke-width="1.51"/><path d="M1190,372L1198,325L1114,331Z" fill="#44c549" stroke="#44c549" stroke-width="1.51"/><path d="M-96,266L-20,242L-58,225Z" fill="#338a61" stroke="#338a61" stroke-width="1.51"/><path d="M-96,266L-20,314L-8,277Z" fill="#35915f" stroke="#35915f" stroke-width="1.51"/><path d="M1228,183L1150,159L1157,180Z" fill="#40b053" stroke="#40b053" stroke-width="1.51"/><path d="M1118,364L1190,372L1114,331Z" fill="#44c44a" stroke="#44c44a" stroke-width="1.51"/><path d="M1067,385L1190,372L1118,364Z" fill="#44c34a" stroke="#44c34a" stroke-width="1.51"/><path d="M1215,210L1228,183L1157,180Z" fill="#41b452" stroke="#41b452" stroke-width="1.51"/><path d="M1256,192L1228,183L1215,210Z" fill="#41b551" stroke="#41b551" stroke-width="1.51"/><path d="M1242,274L1170,277L1237,308Z" fill="#44c44a" stroke="#44c44a" stroke-width="1.51"/><path d="M-29,-84L-69,-21L-30,-10Z" fill="#11636b" stroke="#11636b" stroke-width="1.51"/><path d="M1224,115L1227,67L1157,93Z" fill="#3ca359" stroke="#3ca359" stroke-width="1.51"/><path d="M1284,79L1227,67L1224,115Z" fill="#3ca259" stroke="#3ca259" stroke-width="1.51"/><path d="M-10,371L-63,367L158,385Z" fill="#37945e" stroke="#37945e" stroke-width="1.51"/><path d="M-61,332L-63,367L-10,371Z" fill="#37935e" stroke="#37935e" stroke-width="1.51"/><path d="M-96,266L-63,367L-61,332Z" fill="#37935e" stroke="#37935e" stroke-width="1.51"/><path d="M1190,372L1200,374L1198,325Z" fill="#44c748" stroke="#44c748" stroke-width="1.51"/><path d="M1067,385L1200,374L1190,372Z" fill="#44c549" stroke="#44c549" stroke-width="1.51"/><path d="M-78,163L-96,266L-58,225Z" fill="#308662" stroke="#308662" stroke-width="1.51"/><path d="M-77,104L-96,266L-78,163Z" fill="#2c7f64" stroke="#2c7f64" stroke-width="1.51"/><path d="M-83,-67L-96,266L-77,104Z" fill="#247367" stroke="#247367" stroke-width="1.51"/><path d="M1228,183L1291,146L1224,115Z" fill="#3fad55" stroke="#3fad55" stroke-width="1.51"/><path d="M1237,308L1170,277L1198,325Z" fill="#44c748" stroke="#44c748" stroke-width="1.51"/><path d="M1250,357L1237,308L1198,325Z" fill="#44c748" stroke="#44c748" stroke-width="1.51"/><path d="M1263,253L1215,210L1242,274Z" fill="#43bd4d" stroke="#43bd4d" stroke-width="1.51"/><path d="M1263,253L1256,192L1215,210Z" fill="#41b850" stroke="#41b850" stroke-width="1.51"/><path d="M-29,-84L-83,-67L-69,-21Z" fill="#11636b" stroke="#11636b" stroke-width="1.51"/><path d="M-69,-21L-83,-67L-77,104Z" fill="#13646b" stroke="#13646b" stroke-width="1.51"/><path d="M1245,0L1203,10L1227,67Z" fill="#38985d" stroke="#38985d" stroke-width="1.51"/><path d="M1245,0L1193,0L1203,10Z" fill="#37945e" stroke="#37945e" stroke-width="1.51"/><path d="M1245,0L1228,-46L1193,0Z" fill="#37935e" stroke="#37935e" stroke-width="1.51"/><path d="M1254,2L1245,0L1227,67Z" fill="#38975d" stroke="#38975d" stroke-width="1.51"/><path d="M1279,28L1254,2L1227,67Z" fill="#39995d" stroke="#39995d" stroke-width="1.51"/><path d="M1277,297L1263,253L1242,274Z" fill="#44c24b" stroke="#44c24b" stroke-width="1.51"/><path d="M1245,0L1254,2L1228,-46Z" fill="#37935e" stroke="#37935e" stroke-width="1.51"/><path d="M1284,79L1224,115L1291,146Z" fill="#3da657" stroke="#3da657" stroke-width="1.51"/><path d="M1200,374L1250,357L1198,325Z" fill="#44c748" stroke="#44c748" stroke-width="1.51"/><path d="M1237,308L1277,297L1242,274Z" fill="#44c649" stroke="#44c649" stroke-width="1.51"/><path d="M1291,146L1228,183L1256,192Z" fill="#40b153" stroke="#40b153" stroke-width="1.51"/><path d="M1263,253L1289,199L1256,192Z" fill="#41b850" stroke="#41b850" stroke-width="1.51"/><path d="M1277,297L1289,199L1263,253Z" fill="#43be4d" stroke="#43be4d" stroke-width="1.51"/><path d="M1284,79L1279,28L1227,67Z" fill="#3b9d5b" stroke="#3b9d5b" stroke-width="1.51"/><path d="M1254,2L1264,-86L1228,-46Z" fill="#37935e" stroke="#37935e" stroke-width="1.51"/><path d="M1250,357L1277,297L1237,308Z" fill="#44c748" stroke="#44c748" stroke-width="1.51"/><path d="M1284,79L1291,146L1279,28Z" fill="#3ca259" stroke="#3ca259" stroke-width="1.51"/><path d="M1289,199L1291,146L1256,192Z" fill="#40b253" stroke="#40b253" stroke-width="1.51"/><path d="M1228,-46L1264,-86L1165,-70Z" fill="#37935e" stroke="#37935e" stroke-width="1.51"/><path d="M1165,-70L1264,-86L1082,-90Z" fill="#36925e" stroke="#36925e" stroke-width="1.51"/><path d="M1279,28L1264,-86L1254,2Z" fill="#37935e" stroke="#37935e" stroke-width="1.51"/></svg>