<svg xmlns="http://www.w3.org/2000/svg" width="1200" height="300"><path d="M593,153L585,138L548,171Z" fill="#87208e" stroke="#87208e" stroke-width="1.51"/><path d="M585,138L569,114L548,171Z" fill="#8b2190" stroke="#8b2190" stroke-width="1.51"/><path d="M569,114L489,138L548,171Z" fill="#8d2191" stroke="#8d2191" stroke-width="1.51"/><path d="M609,205L631,161L593,153Z" fill="#80208b" stroke="#80208b" stroke-width="1.51"/><path d="M593,153L631,161L585,138Z" fill="#86208e" stroke="#86208e" stroke-width="1.51"/><path d="M585,138L590,74L569,114Z" fill="#932193" stroke="#932193" stroke-width="1.51"/><path d="M569,114L590,74L557,96Z" fill="#972294" stroke="#972294" stroke-width="1.51"/><path d="M548,171L609,205L593,153Z" fill="#81208b" stroke="#81208b" stroke-width="1.51"/><path d="M489,138L513,187L548,171Z" fill="#88218e" stroke="#88218e" stroke-width="1.51"/><path d="M513,187L547,216L548,171Z" fill="#80208b" stroke="#80208b" stroke-width="1.51"/><path d="M547,216L609,205L548,171Z" fill="#7c2089" stroke="#7c2089" stroke-width="1.51"/><path d="M557,96L489,138L569,114Z" fill="#942293" stroke="#942293" stroke-width="1.51"/><path d="M647,95L590,74L585,138Z" fill="#932193" stroke="#932193" stroke-width="1.51"/><path d="M557,96L525,62L489,138Z" fill="#9a2295" stroke="#9a2295" stroke-width="1.51"/><path d="M631,161L647,95L585,138Z" fill="#8b218f" stroke="#8b218f" stroke-width="1.51"/><path d="M691,167L658,112L631,161Z" fill="#83208d" stroke="#83208d" stroke-width="1.51"/><path d="M631,161L658,112L647,95Z" fill="#8b218f" stroke="#8b218f" stroke-width="1.51"/><path d="M615,271L633,243L609,205Z" fill="#6c1e83" stroke="#6c1e83" stroke-width="1.51"/><path d="M513,187L527,251L547,216Z" fill="#791f88" stroke="#791f88" stroke-width="1.51"/><path d="M483,241L527,251L513,187Z" fill="#781f88" stroke="#781f88" stroke-width="1.51"/><path d="M540,48L525,62L557,96Z" fill="#a12298" stroke="#a12298" stroke-width="1.51"/><path d="M609,205L701,210L631,161Z" fill="#781f88" stroke="#781f88" stroke-width="1.51"/><path d="M615,271L609,205L547,216Z" fill="#711e85" stroke="#711e85" stroke-width="1.51"/><path d="M489,138L466,201L513,187Z" fill="#87208e" stroke="#87208e" stroke-width="1.51"/><path d="M577,18L540,48L590,74Z" fill="#a5239a" stroke="#a5239a" stroke-width="1.51"/><path d="M590,74L540,48L557,96Z" fill="#9e2297" stroke="#9e2297" stroke-width="1.51"/><path d="M466,201L483,241L513,187Z" fill="#7e1f8a" stroke="#7e1f8a" stroke-width="1.51"/><path d="M701,210L691,167L631,161Z" fill="#791f88" stroke="#791f88" stroke-width="1.51"/><path d="M527,251L615,271L547,216Z" fill="#6f1e84" stroke="#6f1e84" stroke-width="1.51"/><path d="M633,243L701,210L609,205Z" fill="#701f85" stroke="#701f85" stroke-width="1.51"/><path d="M489,138L436,185L466,201Z" fill="#89218f" stroke="#89218f" stroke-width="1.51"/><path d="M461,56L449,123L489,138Z" fill="#9c2296" stroke="#9c2296" stroke-width="1.51"/><path d="M461,56L489,138L525,62Z" fill="#9f2298" stroke="#9f2298" stroke-width="1.51"/><path d="M527,251L528,277L615,271Z" fill="#691e82" stroke="#691e82" stroke-width="1.51"/><path d="M483,241L528,277L527,251Z" fill="#6f1e84" stroke="#6f1e84" stroke-width="1.51"/><path d="M540,48L510,43L525,62Z" fill="#a7239b" stroke="#a7239b" stroke-width="1.51"/><path d="M691,167L694,127L658,112Z" fill="#85208d" stroke="#85208d" stroke-width="1.51"/><path d="M658,112L690,67L647,95Z" fill="#922292" stroke="#922292" stroke-width="1.51"/><path d="M615,271L644,266L633,243Z" fill="#661e81" stroke="#661e81" stroke-width="1.51"/><path d="M431,153L436,185L489,138Z" fill="#8e2191" stroke="#8e2191" stroke-width="1.51"/><path d="M466,201L461,265L483,241Z" fill="#781f88" stroke="#781f88" stroke-width="1.51"/><path d="M449,123L431,153L489,138Z" fill="#932293" stroke="#932293" stroke-width="1.51"/><path d="M650,7L577,18L590,74Z" fill="#a6229b" stroke="#a6229b" stroke-width="1.51"/><path d="M540,48L502,-6L510,43Z" fill="#ae239e" stroke="#ae239e" stroke-width="1.51"/><path d="M650,7L590,74L647,95Z" fill="#9d2297" stroke="#9d2297" stroke-width="1.51"/><path d="M644,266L701,210L633,243Z" fill="#691e82" stroke="#691e82" stroke-width="1.51"/><path d="M691,167L737,128L694,127Z" fill="#82208c" stroke="#82208c" stroke-width="1.51"/><path d="M510,43L461,56L525,62Z" fill="#a8239c" stroke="#a8239c" stroke-width="1.51"/><path d="M449,123L408,141L431,153Z" fill="#952293" stroke="#952293" stroke-width="1.51"/><path d="M456,51L461,56L510,43Z" fill="#ab239d" stroke="#ab239d" stroke-width="1.51"/><path d="M694,127L690,67L658,112Z" fill="#8e2191" stroke="#8e2191" stroke-width="1.51"/><path d="M748,97L690,67L694,127Z" fill="#8d2191" stroke="#8d2191" stroke-width="1.51"/><path d="M483,241L461,265L528,277Z" fill="#701e84" stroke="#701e84" stroke-width="1.51"/><path d="M436,185L461,265L466,201Z" fill="#7e208a" stroke="#7e208a" stroke-width="1.51"/><path d="M461,56L420,91L449,123Z" fill="#a22399" stroke="#a22399" stroke-width="1.51"/><path d="M502,-6L456,51L510,43Z" fill="#af239e" stroke="#af239e" stroke-width="1.51"/><path d="M420,91L408,141L449,123Z" fill="#9b2296" stroke="#9b2296" stroke-width="1.51"/><path d="M380,166L386,199L436,185Z" fill="#8b218f" stroke="#8b218f" stroke-width="1.51"/><path d="M436,185L386,199L461,265Z" fill="#80208b" stroke="#80208b" stroke-width="1.51"/><path d="M456,51L420,91L461,56Z" fill="#a8239c" stroke="#a8239c" stroke-width="1.51"/><path d="M528,277L577,321L615,271Z" fill="#611d7f" stroke="#611d7f" stroke-width="1.51"/><path d="M640,320L679,287L644,266Z" fill="#5b1d7d" stroke="#5b1d7d" stroke-width="1.51"/><path d="M529,332L577,321L528,277Z" fill="#611d7f" stroke="#611d7f" stroke-width="1.51"/><path d="M690,67L650,7L647,95Z" fill="#9c2296" stroke="#9c2296" stroke-width="1.51"/><path d="M767,161L737,128L691,167Z" fill="#7d208a" stroke="#7d208a" stroke-width="1.51"/><path d="M690,67L698,16L650,7Z" fill="#a22299" stroke="#a22299" stroke-width="1.51"/><path d="M644,266L679,287L701,210Z" fill="#641d80" stroke="#641d80" stroke-width="1.51"/><path d="M701,210L743,210L691,167Z" fill="#721f86" stroke="#721f86" stroke-width="1.51"/><path d="M640,320L644,266L615,271Z" fill="#5f1d7e" stroke="#5f1d7e" stroke-width="1.51"/><path d="M577,18L502,-6L540,48Z" fill="#af239e" stroke="#af239e" stroke-width="1.51"/><path d="M456,51L422,33L420,91Z" fill="#ab239d" stroke="#ab239d" stroke-width="1.51"/><path d="M562,-37L502,-6L577,18Z" fill="#b423a0" stroke="#b423a0" stroke-width="1.51"/><path d="M577,321L640,320L615,271Z" fill="#5c1c7d" stroke="#5c1c7d" stroke-width="1.51"/><path d="M461,265L475,310L528,277Z" fill="#691e82" stroke="#691e82" stroke-width="1.51"/><path d="M422,289L475,310L461,265Z" fill="#6b1e83" stroke="#6b1e83" stroke-width="1.51"/><path d="M482,316L529,332L528,277Z" fill="#631d80" stroke="#631d80" stroke-width="1.51"/><path d="M577,321L619,343L640,320Z" fill="#5c1c7d" stroke="#5c1c7d" stroke-width="1.51"/><path d="M475,310L482,316L528,277Z" fill="#641d80" stroke="#641d80" stroke-width="1.51"/><path d="M747,260L743,210L701,210Z" fill="#681e82" stroke="#681e82" stroke-width="1.51"/><path d="M650,7L580,-27L577,18Z" fill="#b0239f" stroke="#b0239f" stroke-width="1.51"/><path d="M380,166L436,185L431,153Z" fill="#8e2191" stroke="#8e2191" stroke-width="1.51"/><path d="M380,166L431,153L408,141Z" fill="#932193" stroke="#932193" stroke-width="1.51"/><path d="M348,102L380,166L408,141Z" fill="#992295" stroke="#992295" stroke-width="1.51"/><path d="M737,128L748,97L694,127Z" fill="#87218e" stroke="#87218e" stroke-width="1.51"/><path d="M808,108L748,97L737,128Z" fill="#86208e" stroke="#86208e" stroke-width="1.51"/><path d="M650,7L660,-26L580,-27Z" fill="#ae239e" stroke="#ae239e" stroke-width="1.51"/><path d="M723,44L698,16L690,67Z" fill="#9d2297" stroke="#9d2297" stroke-width="1.51"/><path d="M748,97L723,44L690,67Z" fill="#942193" stroke="#942193" stroke-width="1.51"/><path d="M440,1L422,33L456,51Z" fill="#b323a0" stroke="#b323a0" stroke-width="1.51"/><path d="M420,91L348,102L408,141Z" fill="#9f2298" stroke="#9f2298" stroke-width="1.51"/><path d="M729,310L747,260L679,287Z" fill="#591c7b" stroke="#591c7b" stroke-width="1.51"/><path d="M540,371L619,343L577,321Z" fill="#5e1c7e" stroke="#5e1c7e" stroke-width="1.51"/><path d="M580,-27L562,-37L577,18Z" fill="#b2249f" stroke="#b2249f" stroke-width="1.51"/><path d="M502,-6L440,1L456,51Z" fill="#b524a0" stroke="#b524a0" stroke-width="1.51"/><path d="M622,-65L562,-37L580,-27Z" fill="#b1239f" stroke="#b1239f" stroke-width="1.51"/><path d="M441,386L500,365L482,316Z" fill="#661e81" stroke="#661e81" stroke-width="1.51"/><path d="M386,199L422,289L461,265Z" fill="#771f88" stroke="#771f88" stroke-width="1.51"/><path d="M743,210L767,161L691,167Z" fill="#751f86" stroke="#751f86" stroke-width="1.51"/><path d="M451,-55L440,1L502,-6Z" fill="#b924a3" stroke="#b924a3" stroke-width="1.51"/><path d="M698,16L679,-13L650,7Z" fill="#aa229c" stroke="#aa229c" stroke-width="1.51"/><path d="M754,-18L679,-13L698,16Z" fill="#a8239c" stroke="#a8239c" stroke-width="1.51"/><path d="M679,-13L660,-26L650,7Z" fill="#ac239d" stroke="#ac239d" stroke-width="1.51"/><path d="M743,210L796,176L767,161Z" fill="#721e86" stroke="#721e86" stroke-width="1.51"/><path d="M679,287L747,260L701,210Z" fill="#621d7f" stroke="#621d7f" stroke-width="1.51"/><path d="M664,344L679,287L640,320Z" fill="#581c7c" stroke="#581c7c" stroke-width="1.51"/><path d="M619,343L664,344L640,320Z" fill="#5a1c7c" stroke="#5a1c7c" stroke-width="1.51"/><path d="M529,332L540,371L577,321Z" fill="#611d7f" stroke="#611d7f" stroke-width="1.51"/><path d="M619,343L694,383L664,344Z" fill="#581c7c" stroke="#581c7c" stroke-width="1.51"/><path d="M500,365L540,371L529,332Z" fill="#621d7f" stroke="#621d7f" stroke-width="1.51"/><path d="M500,365L529,332L482,316Z" fill="#641d80" stroke="#641d80" stroke-width="1.51"/><path d="M441,386L482,316L475,310Z" fill="#661e81" stroke="#661e81" stroke-width="1.51"/><path d="M699,339L729,310L679,287Z" fill="#551c7a" stroke="#551c7a" stroke-width="1.51"/><path d="M562,-37L501,-57L502,-6Z" fill="#b523a1" stroke="#b523a1" stroke-width="1.51"/><path d="M528,-88L501,-57L562,-37Z" fill="#b523a1" stroke="#b523a1" stroke-width="1.51"/><path d="M664,344L699,339L679,287Z" fill="#571c7b" stroke="#571c7b" stroke-width="1.51"/><path d="M728,359L699,339L694,383Z" fill="#551c7a" stroke="#551c7a" stroke-width="1.51"/><path d="M660,-26L635,-58L580,-27Z" fill="#ae239e" stroke="#ae239e" stroke-width="1.51"/><path d="M702,-68L635,-58L660,-26Z" fill="#ab239d" stroke="#ab239d" stroke-width="1.51"/><path d="M396,359L441,386L475,310Z" fill="#681e82" stroke="#681e82" stroke-width="1.51"/><path d="M380,303L396,304L422,289Z" fill="#6b1e83" stroke="#6b1e83" stroke-width="1.51"/><path d="M350,239L422,289L386,199Z" fill="#7c1f8a" stroke="#7c1f8a" stroke-width="1.51"/><path d="M361,37L420,91L422,33Z" fill="#af239e" stroke="#af239e" stroke-width="1.51"/><path d="M361,37L348,102L420,91Z" fill="#aa239c" stroke="#aa239c" stroke-width="1.51"/><path d="M311,181L350,239L386,199Z" fill="#88218e" stroke="#88218e" stroke-width="1.51"/><path d="M635,-58L622,-65L580,-27Z" fill="#af239e" stroke="#af239e" stroke-width="1.51"/><path d="M767,161L808,108L737,128Z" fill="#80208b" stroke="#80208b" stroke-width="1.51"/><path d="M748,97L787,52L723,44Z" fill="#932193" stroke="#932193" stroke-width="1.51"/><path d="M800,227L796,176L743,210Z" fill="#6b1e83" stroke="#6b1e83" stroke-width="1.51"/><path d="M800,227L743,210L747,260Z" fill="#651d80" stroke="#651d80" stroke-width="1.51"/><path d="M311,181L386,199L380,166Z" fill="#8e2191" stroke="#8e2191" stroke-width="1.51"/><path d="M350,239L380,303L422,289Z" fill="#721e86" stroke="#721e86" stroke-width="1.51"/><path d="M396,359L475,310L422,289Z" fill="#691e82" stroke="#691e82" stroke-width="1.51"/><path d="M399,-21L361,37L422,33Z" fill="#ba24a2" stroke="#ba24a2" stroke-width="1.51"/><path d="M399,-21L422,33L440,1Z" fill="#bb24a3" stroke="#bb24a3" stroke-width="1.51"/><path d="M348,102L328,140L380,166Z" fill="#9b2296" stroke="#9b2296" stroke-width="1.51"/><path d="M315,67L328,140L348,102Z" fill="#a6239a" stroke="#a6239a" stroke-width="1.51"/><path d="M501,-57L451,-55L502,-6Z" fill="#b823a2" stroke="#b823a2" stroke-width="1.51"/><path d="M528,-88L451,-55L501,-57Z" fill="#b723a2" stroke="#b723a2" stroke-width="1.51"/><path d="M814,281L800,227L747,260Z" fill="#5c1d7d" stroke="#5c1d7d" stroke-width="1.51"/><path d="M723,44L754,-18L698,16Z" fill="#a3239a" stroke="#a3239a" stroke-width="1.51"/><path d="M679,-13L702,-68L660,-26Z" fill="#aa239c" stroke="#aa239c" stroke-width="1.51"/><path d="M808,108L787,52L748,97Z" fill="#8c2190" stroke="#8c2190" stroke-width="1.51"/><path d="M808,108L767,161L796,176Z" fill="#7a1f88" stroke="#7a1f88" stroke-width="1.51"/><path d="M825,115L808,108L796,176Z" fill="#7d208a" stroke="#7d208a" stroke-width="1.51"/><path d="M451,-55L399,-21L440,1Z" fill="#bc24a3" stroke="#bc24a3" stroke-width="1.51"/><path d="M622,-65L528,-88L562,-37Z" fill="#b223a0" stroke="#b223a0" stroke-width="1.51"/><path d="M361,37L340,58L348,102Z" fill="#af239e" stroke="#af239e" stroke-width="1.51"/><path d="M315,67L340,58L312,9Z" fill="#b724a2" stroke="#b724a2" stroke-width="1.51"/><path d="M350,239L357,292L380,303Z" fill="#741e86" stroke="#741e86" stroke-width="1.51"/><path d="M396,359L422,289L396,304Z" fill="#6a1e83" stroke="#6a1e83" stroke-width="1.51"/><path d="M325,246L357,292L350,239Z" fill="#7a2089" stroke="#7a2089" stroke-width="1.51"/><path d="M787,52L754,-18L723,44Z" fill="#9e2297" stroke="#9e2297" stroke-width="1.51"/><path d="M635,-58L702,-68L622,-65Z" fill="#ac239d" stroke="#ac239d" stroke-width="1.51"/><path d="M728,359L772,314L729,310Z" fill="#531c79" stroke="#531c79" stroke-width="1.51"/><path d="M729,310L772,314L747,260Z" fill="#541b7a" stroke="#541b7a" stroke-width="1.51"/><path d="M699,339L728,359L729,310Z" fill="#541c7a" stroke="#541c7a" stroke-width="1.51"/><path d="M694,383L699,339L664,344Z" fill="#571c7b" stroke="#571c7b" stroke-width="1.51"/><path d="M328,140L311,181L380,166Z" fill="#952294" stroke="#952294" stroke-width="1.51"/><path d="M284,141L311,181L328,140Z" fill="#992295" stroke="#992295" stroke-width="1.51"/><path d="M540,371L694,383L619,343Z" fill="#5b1c7d" stroke="#5b1c7d" stroke-width="1.51"/><path d="M309,223L325,246L350,239Z" fill="#81208c" stroke="#81208c" stroke-width="1.51"/><path d="M808,108L813,56L787,52Z" fill="#8e2191" stroke="#8e2191" stroke-width="1.51"/><path d="M787,52L782,-33L754,-18Z" fill="#a4229a" stroke="#a4229a" stroke-width="1.51"/><path d="M838,154L825,115L796,176Z" fill="#781f88" stroke="#781f88" stroke-width="1.51"/><path d="M754,-18L702,-68L679,-13Z" fill="#a8239c" stroke="#a8239c" stroke-width="1.51"/><path d="M622,-65L702,-68L528,-88Z" fill="#af239e" stroke="#af239e" stroke-width="1.51"/><path d="M396,359L396,304L380,303Z" fill="#6b1e83" stroke="#6b1e83" stroke-width="1.51"/><path d="M500,365L441,386L540,371Z" fill="#641d80" stroke="#641d80" stroke-width="1.51"/><path d="M540,371L441,386L694,383Z" fill="#601d7e" stroke="#601d7e" stroke-width="1.51"/><path d="M820,60L813,56L808,108Z" fill="#8c2190" stroke="#8c2190" stroke-width="1.51"/><path d="M357,365L380,303L357,292Z" fill="#6d1e84" stroke="#6d1e84" stroke-width="1.51"/><path d="M357,365L396,359L380,303Z" fill="#6c1e83" stroke="#6c1e83" stroke-width="1.51"/><path d="M800,227L828,217L796,176Z" fill="#691e81" stroke="#691e81" stroke-width="1.51"/><path d="M834,255L828,217L800,227Z" fill="#601d7f" stroke="#601d7f" stroke-width="1.51"/><path d="M311,181L309,223L350,239Z" fill="#88208e" stroke="#88208e" stroke-width="1.51"/><path d="M319,351L357,365L357,292Z" fill="#6f1e84" stroke="#6f1e84" stroke-width="1.51"/><path d="M340,58L315,67L348,102Z" fill="#ad239e" stroke="#ad239e" stroke-width="1.51"/><path d="M311,181L277,211L309,223Z" fill="#8c2190" stroke="#8c2190" stroke-width="1.51"/><path d="M312,9L340,58L361,37Z" fill="#b824a2" stroke="#b824a2" stroke-width="1.51"/><path d="M782,-33L756,-57L754,-18Z" fill="#a5229a" stroke="#a5229a" stroke-width="1.51"/><path d="M825,115L820,60L808,108Z" fill="#87208e" stroke="#87208e" stroke-width="1.51"/><path d="M825,115L879,93L820,60Z" fill="#87208e" stroke="#87208e" stroke-width="1.51"/><path d="M828,217L838,154L796,176Z" fill="#6f1f84" stroke="#6f1f84" stroke-width="1.51"/><path d="M772,314L814,281L747,260Z" fill="#541c7a" stroke="#541c7a" stroke-width="1.51"/><path d="M847,329L814,281L772,314Z" fill="#4d1b77" stroke="#4d1b77" stroke-width="1.51"/><path d="M373,-43L342,-6L399,-21Z" fill="#c024a5" stroke="#c024a5" stroke-width="1.51"/><path d="M399,-21L342,-6L361,37Z" fill="#bf24a5" stroke="#bf24a5" stroke-width="1.51"/><path d="M388,-76L373,-43L399,-21Z" fill="#bf24a5" stroke="#bf24a5" stroke-width="1.51"/><path d="M388,-76L399,-21L451,-55Z" fill="#bd24a4" stroke="#bd24a4" stroke-width="1.51"/><path d="M814,281L834,255L800,227Z" fill="#5b1d7c" stroke="#5b1d7c" stroke-width="1.51"/><path d="M828,217L870,163L838,154Z" fill="#6e1e84" stroke="#6e1e84" stroke-width="1.51"/><path d="M754,-18L756,-57L702,-68Z" fill="#a6239b" stroke="#a6239b" stroke-width="1.51"/><path d="M782,-33L787,52L813,56Z" fill="#9c2296" stroke="#9c2296" stroke-width="1.51"/><path d="M260,93L284,141L315,67Z" fill="#aa239c" stroke="#aa239c" stroke-width="1.51"/><path d="M315,67L284,141L328,140Z" fill="#a4239a" stroke="#a4239a" stroke-width="1.51"/><path d="M787,-44L782,-33L817,-45Z" fill="#a22299" stroke="#a22299" stroke-width="1.51"/><path d="M289,-35L312,9L342,-6Z" fill="#c424a7" stroke="#c424a7" stroke-width="1.51"/><path d="M528,-88L388,-76L451,-55Z" fill="#ba24a3" stroke="#ba24a3" stroke-width="1.51"/><path d="M342,-6L312,9L361,37Z" fill="#be24a5" stroke="#be24a5" stroke-width="1.51"/><path d="M281,16L312,9L269,-9Z" fill="#c424a7" stroke="#c424a7" stroke-width="1.51"/><path d="M256,175L277,211L311,181Z" fill="#922192" stroke="#922192" stroke-width="1.51"/><path d="M309,223L275,258L325,246Z" fill="#82208c" stroke="#82208c" stroke-width="1.51"/><path d="M782,-33L787,-44L756,-57Z" fill="#a4229a" stroke="#a4229a" stroke-width="1.51"/><path d="M856,26L782,-33L813,56Z" fill="#9c2297" stroke="#9c2297" stroke-width="1.51"/><path d="M396,359L357,365L441,386Z" fill="#6b1e83" stroke="#6b1e83" stroke-width="1.51"/><path d="M308,305L357,292L325,246Z" fill="#751f87" stroke="#751f87" stroke-width="1.51"/><path d="M728,359L783,364L772,314Z" fill="#511b79" stroke="#511b79" stroke-width="1.51"/><path d="M814,281L867,316L834,255Z" fill="#501b78" stroke="#501b78" stroke-width="1.51"/><path d="M694,383L783,364L728,359Z" fill="#531c79" stroke="#531c79" stroke-width="1.51"/><path d="M275,258L308,305L325,246Z" fill="#7a1f89" stroke="#7a1f89" stroke-width="1.51"/><path d="M905,218L870,163L828,217Z" fill="#661e81" stroke="#661e81" stroke-width="1.51"/><path d="M838,154L873,116L825,115Z" fill="#7b1f89" stroke="#7b1f89" stroke-width="1.51"/><path d="M820,60L856,26L813,56Z" fill="#932193" stroke="#932193" stroke-width="1.51"/><path d="M870,163L873,116L838,154Z" fill="#761f87" stroke="#761f87" stroke-width="1.51"/><path d="M277,211L275,258L309,223Z" fill="#86208e" stroke="#86208e" stroke-width="1.51"/><path d="M277,211L234,244L275,258Z" fill="#86208e" stroke="#86208e" stroke-width="1.51"/><path d="M284,141L256,175L311,181Z" fill="#982295" stroke="#982295" stroke-width="1.51"/><path d="M217,100L256,175L284,141Z" fill="#a22299" stroke="#a22299" stroke-width="1.51"/><path d="M281,16L260,93L315,67Z" fill="#b523a1" stroke="#b523a1" stroke-width="1.51"/><path d="M879,93L856,26L820,60Z" fill="#8e2191" stroke="#8e2191" stroke-width="1.51"/><path d="M267,325L319,351L308,305Z" fill="#721e86" stroke="#721e86" stroke-width="1.51"/><path d="M308,305L319,351L357,292Z" fill="#701e85" stroke="#701e85" stroke-width="1.51"/><path d="M873,116L879,93L825,115Z" fill="#81208b" stroke="#81208b" stroke-width="1.51"/><path d="M938,103L879,93L873,116Z" fill="#7f208a" stroke="#7f208a" stroke-width="1.51"/><path d="M312,9L281,16L315,67Z" fill="#bc24a4" stroke="#bc24a4" stroke-width="1.51"/><path d="M289,-35L342,-6L311,-69Z" fill="#c424a7" stroke="#c424a7" stroke-width="1.51"/><path d="M787,-44L817,-45L756,-57Z" fill="#a3229a" stroke="#a3229a" stroke-width="1.51"/><path d="M756,-57L996,-90L702,-68Z" fill="#a12299" stroke="#a12299" stroke-width="1.51"/><path d="M847,-27L817,-45L782,-33Z" fill="#a12299" stroke="#a12299" stroke-width="1.51"/><path d="M834,255L905,218L828,217Z" fill="#5f1d7e" stroke="#5f1d7e" stroke-width="1.51"/><path d="M783,364L847,329L772,314Z" fill="#4e1b78" stroke="#4e1b78" stroke-width="1.51"/><path d="M856,26L847,-27L782,-33Z" fill="#a02298" stroke="#a02298" stroke-width="1.51"/><path d="M879,93L875,27L856,26Z" fill="#902192" stroke="#902192" stroke-width="1.51"/><path d="M868,-18L847,-27L856,26Z" fill="#9e2298" stroke="#9e2298" stroke-width="1.51"/><path d="M847,329L867,316L814,281Z" fill="#4b1b76" stroke="#4b1b76" stroke-width="1.51"/><path d="M870,163L938,103L873,116Z" fill="#791f88" stroke="#791f88" stroke-width="1.51"/><path d="M230,10L217,100L260,93Z" fill="#b623a1" stroke="#b623a1" stroke-width="1.51"/><path d="M311,-69L342,-6L373,-43Z" fill="#c224a6" stroke="#c224a6" stroke-width="1.51"/><path d="M289,-35L269,-9L312,9Z" fill="#c524a7" stroke="#c524a7" stroke-width="1.51"/><path d="M388,-76L311,-69L373,-43Z" fill="#c124a6" stroke="#c124a6" stroke-width="1.51"/><path d="M237,-29L230,10L269,-9Z" fill="#c925a9" stroke="#c925a9" stroke-width="1.51"/><path d="M892,279L905,218L834,255Z" fill="#571c7b" stroke="#571c7b" stroke-width="1.51"/><path d="M879,93L915,22L875,27Z" fill="#8f2191" stroke="#8f2191" stroke-width="1.51"/><path d="M275,258L267,325L308,305Z" fill="#741e87" stroke="#741e87" stroke-width="1.51"/><path d="M228,320L267,325L275,258Z" fill="#751f87" stroke="#751f87" stroke-width="1.51"/><path d="M210,191L234,244L277,211Z" fill="#8d2190" stroke="#8d2190" stroke-width="1.51"/><path d="M210,191L277,211L256,175Z" fill="#932193" stroke="#932193" stroke-width="1.51"/><path d="M217,100L284,141L260,93Z" fill="#a9239c" stroke="#a9239c" stroke-width="1.51"/><path d="M867,316L892,279L834,255Z" fill="#4f1b78" stroke="#4f1b78" stroke-width="1.51"/><path d="M234,244L235,251L275,258Z" fill="#83208d" stroke="#83208d" stroke-width="1.51"/><path d="M875,27L868,-18L856,26Z" fill="#9a2296" stroke="#9a2296" stroke-width="1.51"/><path d="M847,-27L876,-44L817,-45Z" fill="#9f2298" stroke="#9f2298" stroke-width="1.51"/><path d="M876,-44L868,-18L937,-26Z" fill="#9c2297" stroke="#9c2297" stroke-width="1.51"/><path d="M905,218L912,216L870,163Z" fill="#641e80" stroke="#641e80" stroke-width="1.51"/><path d="M914,271L912,216L905,218Z" fill="#591c7c" stroke="#591c7c" stroke-width="1.51"/><path d="M783,364L840,386L847,329Z" fill="#4d1b77" stroke="#4d1b77" stroke-width="1.51"/><path d="M847,329L896,365L867,316Z" fill="#491b76" stroke="#491b76" stroke-width="1.51"/><path d="M933,317L914,271L892,279Z" fill="#491b76" stroke="#491b76" stroke-width="1.51"/><path d="M694,383L840,386L783,364Z" fill="#511b78" stroke="#511b78" stroke-width="1.51"/><path d="M441,386L840,386L694,383Z" fill="#581c7c" stroke="#581c7c" stroke-width="1.51"/><path d="M230,10L260,93L281,16Z" fill="#bd24a4" stroke="#bd24a4" stroke-width="1.51"/><path d="M234,244L160,227L235,251Z" fill="#89218f" stroke="#89218f" stroke-width="1.51"/><path d="M194,136L210,191L256,175Z" fill="#9c2296" stroke="#9c2296" stroke-width="1.51"/><path d="M267,325L284,378L319,351Z" fill="#721e86" stroke="#721e86" stroke-width="1.51"/><path d="M319,351L284,378L357,365Z" fill="#701e85" stroke="#701e85" stroke-width="1.51"/><path d="M357,365L284,378L441,386Z" fill="#6e1e84" stroke="#6e1e84" stroke-width="1.51"/><path d="M210,351L284,378L267,325Z" fill="#751f87" stroke="#751f87" stroke-width="1.51"/><path d="M228,320L275,258L235,251Z" fill="#7c208a" stroke="#7c208a" stroke-width="1.51"/><path d="M892,279L914,271L905,218Z" fill="#541c7a" stroke="#541c7a" stroke-width="1.51"/><path d="M933,317L892,279L867,316Z" fill="#471b75" stroke="#471b75" stroke-width="1.51"/><path d="M868,-18L876,-44L847,-27Z" fill="#9e2297" stroke="#9e2297" stroke-width="1.51"/><path d="M817,-45L996,-90L756,-57Z" fill="#9e2298" stroke="#9e2298" stroke-width="1.51"/><path d="M915,22L868,-18L875,27Z" fill="#992296" stroke="#992296" stroke-width="1.51"/><path d="M269,-9L230,10L281,16Z" fill="#c624a8" stroke="#c624a8" stroke-width="1.51"/><path d="M237,-29L269,-9L289,-35Z" fill="#c724a8" stroke="#c724a8" stroke-width="1.51"/><path d="M912,216L936,197L870,163Z" fill="#661d81" stroke="#661d81" stroke-width="1.51"/><path d="M976,265L936,197L912,216Z" fill="#5a1c7c" stroke="#5a1c7c" stroke-width="1.51"/><path d="M938,103L915,22L879,93Z" fill="#86208e" stroke="#86208e" stroke-width="1.51"/><path d="M936,197L938,103L870,163Z" fill="#701e84" stroke="#701e84" stroke-width="1.51"/><path d="M311,-69L283,-85L289,-35Z" fill="#c524a7" stroke="#c524a7" stroke-width="1.51"/><path d="M388,-76L283,-85L311,-69Z" fill="#c324a6" stroke="#c324a6" stroke-width="1.51"/><path d="M528,-88L283,-85L388,-76Z" fill="#be24a4" stroke="#be24a4" stroke-width="1.51"/><path d="M217,100L194,136L256,175Z" fill="#a4239a" stroke="#a4239a" stroke-width="1.51"/><path d="M171,148L194,136L149,95Z" fill="#ab239c" stroke="#ab239c" stroke-width="1.51"/><path d="M228,320L235,251L145,252Z" fill="#7f208b" stroke="#7f208b" stroke-width="1.51"/><path d="M210,351L228,320L144,323Z" fill="#791f89" stroke="#791f89" stroke-width="1.51"/><path d="M149,95L194,136L217,100Z" fill="#ae239e" stroke="#ae239e" stroke-width="1.51"/><path d="M283,-85L237,-29L289,-35Z" fill="#c724a8" stroke="#c724a8" stroke-width="1.51"/><path d="M938,103L950,92L915,22Z" fill="#85208d" stroke="#85208d" stroke-width="1.51"/><path d="M979,130L950,92L938,103Z" fill="#791f88" stroke="#791f88" stroke-width="1.51"/><path d="M914,271L976,265L912,216Z" fill="#531c79" stroke="#531c79" stroke-width="1.51"/><path d="M840,386L896,365L847,329Z" fill="#4a1b76" stroke="#4a1b76" stroke-width="1.51"/><path d="M194,136L171,148L210,191Z" fill="#a02298" stroke="#a02298" stroke-width="1.51"/><path d="M180,25L217,100L230,10Z" fill="#bf24a5" stroke="#bf24a5" stroke-width="1.51"/><path d="M924,353L933,317L867,316Z" fill="#471a75" stroke="#471a75" stroke-width="1.51"/><path d="M936,197L968,167L938,103Z" fill="#6d1e84" stroke="#6d1e84" stroke-width="1.51"/><path d="M990,199L968,167L936,197Z" fill="#631d80" stroke="#631d80" stroke-width="1.51"/><path d="M896,365L924,353L867,316Z" fill="#471b75" stroke="#471b75" stroke-width="1.51"/><path d="M228,320L210,351L267,325Z" fill="#761f88" stroke="#761f88" stroke-width="1.51"/><path d="M160,227L234,244L210,191Z" fill="#8f2191" stroke="#8f2191" stroke-width="1.51"/><path d="M171,148L161,189L210,191Z" fill="#9c2297" stroke="#9c2297" stroke-width="1.51"/><path d="M171,-12L180,25L230,10Z" fill="#ca25a9" stroke="#ca25a9" stroke-width="1.51"/><path d="M171,148L140,138L161,189Z" fill="#a32299" stroke="#a32299" stroke-width="1.51"/><path d="M171,-12L230,10L237,-29Z" fill="#cb25aa" stroke="#cb25aa" stroke-width="1.51"/><path d="M915,22L937,-26L868,-18Z" fill="#9b2196" stroke="#9b2196" stroke-width="1.51"/><path d="M997,20L937,-26L915,22Z" fill="#962295" stroke="#962295" stroke-width="1.51"/><path d="M997,20L915,22L950,92Z" fill="#8b2190" stroke="#8b2190" stroke-width="1.51"/><path d="M968,167L979,130L938,103Z" fill="#721f86" stroke="#721f86" stroke-width="1.51"/><path d="M1049,179L979,130L968,167Z" fill="#691e82" stroke="#691e82" stroke-width="1.51"/><path d="M161,189L160,227L210,191Z" fill="#952294" stroke="#952294" stroke-width="1.51"/><path d="M933,317L976,265L914,271Z" fill="#481b75" stroke="#481b75" stroke-width="1.51"/><path d="M979,319L976,265L933,317Z" fill="#421a73" stroke="#421a73" stroke-width="1.51"/><path d="M937,-26L938,-50L876,-44Z" fill="#9a2296" stroke="#9a2296" stroke-width="1.51"/><path d="M876,-44L996,-90L817,-45Z" fill="#9b2297" stroke="#9b2297" stroke-width="1.51"/><path d="M702,-68L996,-90L528,-88Z" fill="#a6239b" stroke="#a6239b" stroke-width="1.51"/><path d="M992,-19L938,-50L937,-26Z" fill="#972295" stroke="#972295" stroke-width="1.51"/><path d="M180,25L149,95L217,100Z" fill="#b824a2" stroke="#b824a2" stroke-width="1.51"/><path d="M96,230L145,252L160,227Z" fill="#8f2191" stroke="#8f2191" stroke-width="1.51"/><path d="M976,265L990,199L936,197Z" fill="#591d7c" stroke="#591d7c" stroke-width="1.51"/><path d="M149,95L140,138L171,148Z" fill="#ab239d" stroke="#ab239d" stroke-width="1.51"/><path d="M180,25L122,52L149,95Z" fill="#bf24a5" stroke="#bf24a5" stroke-width="1.51"/><path d="M149,95L99,91L140,138Z" fill="#b323a0" stroke="#b323a0" stroke-width="1.51"/><path d="M169,-71L171,-12L237,-29Z" fill="#cc25aa" stroke="#cc25aa" stroke-width="1.51"/><path d="M96,230L160,227L161,189Z" fill="#942193" stroke="#942193" stroke-width="1.51"/><path d="M160,227L145,252L235,251Z" fill="#8a208f" stroke="#8a208f" stroke-width="1.51"/><path d="M528,-88L206,-89L283,-85Z" fill="#c224a6" stroke="#c224a6" stroke-width="1.51"/><path d="M283,-85L206,-89L237,-29Z" fill="#c925a9" stroke="#c925a9" stroke-width="1.51"/><path d="M924,353L979,319L933,317Z" fill="#431a74" stroke="#431a74" stroke-width="1.51"/><path d="M976,265L1024,214L990,199Z" fill="#561c7a" stroke="#561c7a" stroke-width="1.51"/><path d="M979,130L1007,77L950,92Z" fill="#7a1f89" stroke="#7a1f89" stroke-width="1.51"/><path d="M1021,115L1007,77L979,130Z" fill="#761f87" stroke="#761f87" stroke-width="1.51"/><path d="M1021,115L979,130L1049,179Z" fill="#6c1e83" stroke="#6c1e83" stroke-width="1.51"/><path d="M1007,77L997,20L950,92Z" fill="#84208d" stroke="#84208d" stroke-width="1.51"/><path d="M145,252L132,281L228,320Z" fill="#7f208b" stroke="#7f208b" stroke-width="1.51"/><path d="M96,230L132,281L145,252Z" fill="#8a2190" stroke="#8a2190" stroke-width="1.51"/><path d="M1007,77L1020,65L997,20Z" fill="#85208d" stroke="#85208d" stroke-width="1.51"/><path d="M1049,179L968,167L990,199Z" fill="#621d7f" stroke="#621d7f" stroke-width="1.51"/><path d="M132,281L144,323L228,320Z" fill="#7b1f89" stroke="#7b1f89" stroke-width="1.51"/><path d="M140,138L97,174L161,189Z" fill="#a22299" stroke="#a22299" stroke-width="1.51"/><path d="M171,-12L122,52L180,25Z" fill="#c925a9" stroke="#c925a9" stroke-width="1.51"/><path d="M139,-26L122,52L171,-12Z" fill="#ce25ab" stroke="#ce25ab" stroke-width="1.51"/><path d="M997,20L992,-19L937,-26Z" fill="#962194" stroke="#962194" stroke-width="1.51"/><path d="M1026,13L992,-19L997,20Z" fill="#932193" stroke="#932193" stroke-width="1.51"/><path d="M1032,272L1024,214L976,265Z" fill="#4d1b77" stroke="#4d1b77" stroke-width="1.51"/><path d="M206,-89L169,-71L237,-29Z" fill="#cb25aa" stroke="#cb25aa" stroke-width="1.51"/><path d="M1021,115L1020,65L1007,77Z" fill="#7c2089" stroke="#7c2089" stroke-width="1.51"/><path d="M1026,13L1020,65L1083,8Z" fill="#89208f" stroke="#89208f" stroke-width="1.51"/><path d="M169,-71L139,-26L171,-12Z" fill="#cf25ab" stroke="#cf25ab" stroke-width="1.51"/><path d="M979,319L1032,272L976,265Z" fill="#441a74" stroke="#441a74" stroke-width="1.51"/><path d="M924,353L995,349L979,319Z" fill="#421a73" stroke="#421a73" stroke-width="1.51"/><path d="M896,365L995,349L924,353Z" fill="#441a74" stroke="#441a74" stroke-width="1.51"/><path d="M1022,350L995,349L1067,385Z" fill="#3d1a71" stroke="#3d1a71" stroke-width="1.51"/><path d="M144,323L158,385L210,351Z" fill="#7b1f89" stroke="#7b1f89" stroke-width="1.51"/><path d="M210,351L158,385L284,378Z" fill="#771f88" stroke="#771f88" stroke-width="1.51"/><path d="M284,378L158,385L441,386Z" fill="#721e86" stroke="#721e86" stroke-width="1.51"/><path d="M133,338L158,385L144,323Z" fill="#7d1f8a" stroke="#7d1f8a" stroke-width="1.51"/><path d="M86,295L144,323L132,281Z" fill="#7e1f8b" stroke="#7e1f8b" stroke-width="1.51"/><path d="M86,295L133,338L144,323Z" fill="#7e1f8b" stroke="#7e1f8b" stroke-width="1.51"/><path d="M74,130L97,174L140,138Z" fill="#a9229c" stroke="#a9229c" stroke-width="1.51"/><path d="M122,52L99,91L149,95Z" fill="#bb24a3" stroke="#bb24a3" stroke-width="1.51"/><path d="M65,89L99,91L122,52Z" fill="#be24a4" stroke="#be24a4" stroke-width="1.51"/><path d="M1024,214L1049,179L990,199Z" fill="#5c1d7d" stroke="#5c1d7d" stroke-width="1.51"/><path d="M1039,325L1032,272L979,319Z" fill="#3e1a72" stroke="#3e1a72" stroke-width="1.51"/><path d="M97,174L96,230L161,189Z" fill="#9a2296" stroke="#9a2296" stroke-width="1.51"/><path d="M1068,105L1020,65L1021,115Z" fill="#781f88" stroke="#781f88" stroke-width="1.51"/><path d="M1020,65L1026,13L997,20Z" fill="#8a218f" stroke="#8a218f" stroke-width="1.51"/><path d="M1062,198L1049,179L1024,214Z" fill="#5a1c7c" stroke="#5a1c7c" stroke-width="1.51"/><path d="M139,-26L67,-23L122,52Z" fill="#d225ad" stroke="#d225ad" stroke-width="1.51"/><path d="M169,-71L129,-43L139,-26Z" fill="#cf25ac" stroke="#cf25ac" stroke-width="1.51"/><path d="M1062,198L1060,153L1049,179Z" fill="#601d7e" stroke="#601d7e" stroke-width="1.51"/><path d="M1049,179L1060,153L1021,115Z" fill="#681d81" stroke="#681d81" stroke-width="1.51"/><path d="M133,338L125,371L158,385Z" fill="#7d1f8a" stroke="#7d1f8a" stroke-width="1.51"/><path d="M68,367L125,371L133,338Z" fill="#7f1f8b" stroke="#7f1f8b" stroke-width="1.51"/><path d="M995,349L1039,325L979,319Z" fill="#3f1a72" stroke="#3f1a72" stroke-width="1.51"/><path d="M1032,272L1062,198L1024,214Z" fill="#521c79" stroke="#521c79" stroke-width="1.51"/><path d="M1067,385L995,349L896,365Z" fill="#401a73" stroke="#401a73" stroke-width="1.51"/><path d="M1023,-67L996,-90L992,-19Z" fill="#942194" stroke="#942194" stroke-width="1.51"/><path d="M992,-19L996,-90L938,-50Z" fill="#962194" stroke="#962194" stroke-width="1.51"/><path d="M938,-50L996,-90L876,-44Z" fill="#992295" stroke="#992295" stroke-width="1.51"/><path d="M528,-88L996,-90L206,-89Z" fill="#b2239f" stroke="#b2239f" stroke-width="1.51"/><path d="M99,91L74,130L140,138Z" fill="#b1239f" stroke="#b1239f" stroke-width="1.51"/><path d="M97,174L63,186L96,230Z" fill="#9d2297" stroke="#9d2297" stroke-width="1.51"/><path d="M96,230L86,295L132,281Z" fill="#88208f" stroke="#88208f" stroke-width="1.51"/><path d="M65,89L74,130L99,91Z" fill="#b724a1" stroke="#b724a1" stroke-width="1.51"/><path d="M1099,249L1062,198L1032,272Z" fill="#4d1b77" stroke="#4d1b77" stroke-width="1.51"/><path d="M1022,350L1039,325L995,349Z" fill="#3e1a72" stroke="#3e1a72" stroke-width="1.51"/><path d="M67,251L86,295L96,230Z" fill="#8c2190" stroke="#8c2190" stroke-width="1.51"/><path d="M1060,153L1068,105L1021,115Z" fill="#6f1e84" stroke="#6f1e84" stroke-width="1.51"/><path d="M1052,-38L1023,-67L992,-19Z" fill="#932193" stroke="#932193" stroke-width="1.51"/><path d="M1080,81L1068,105L1106,80Z" fill="#761f87" stroke="#761f87" stroke-width="1.51"/><path d="M74,130L63,186L97,174Z" fill="#a7239b" stroke="#a7239b" stroke-width="1.51"/><path d="M1052,-38L992,-19L1026,13Z" fill="#932193" stroke="#932193" stroke-width="1.51"/><path d="M74,130L44,165L63,186Z" fill="#a9239c" stroke="#a9239c" stroke-width="1.51"/><path d="M41,26L65,89L122,52Z" fill="#c525a7" stroke="#c525a7" stroke-width="1.51"/><path d="M53,209L67,251L96,230Z" fill="#952194" stroke="#952194" stroke-width="1.51"/><path d="M1068,105L1080,81L1020,65Z" fill="#791f89" stroke="#791f89" stroke-width="1.51"/><path d="M1106,80L1068,105L1122,147Z" fill="#6f1f84" stroke="#6f1f84" stroke-width="1.51"/><path d="M63,186L53,209L96,230Z" fill="#9b2296" stroke="#9b2296" stroke-width="1.51"/><path d="M44,165L53,209L63,186Z" fill="#a22399" stroke="#a22399" stroke-width="1.51"/><path d="M1083,8L1052,-38L1026,13Z" fill="#902192" stroke="#902192" stroke-width="1.51"/><path d="M16,100L45,148L74,130Z" fill="#b423a0" stroke="#b423a0" stroke-width="1.51"/><path d="M45,148L44,165L74,130Z" fill="#ad239d" stroke="#ad239d" stroke-width="1.51"/><path d="M129,-43L67,-23L139,-26Z" fill="#d225ad" stroke="#d225ad" stroke-width="1.51"/><path d="M65,89L16,100L74,130Z" fill="#b924a2" stroke="#b924a2" stroke-width="1.51"/><path d="M74,-44L67,-23L129,-43Z" fill="#d325ad" stroke="#d325ad" stroke-width="1.51"/><path d="M74,-44L129,-43L169,-71Z" fill="#d125ac" stroke="#d125ac" stroke-width="1.51"/><path d="M19,-70L74,-44L169,-71Z" fill="#d425ad" stroke="#d425ad" stroke-width="1.51"/><path d="M41,26L55,7L28,-33Z" fill="#d725af" stroke="#d725af" stroke-width="1.51"/><path d="M67,-23L55,7L122,52Z" fill="#d125ac" stroke="#d125ac" stroke-width="1.51"/><path d="M1080,81L1083,8L1020,65Z" fill="#82208c" stroke="#82208c" stroke-width="1.51"/><path d="M8,203L40,253L53,209Z" fill="#9a2296" stroke="#9a2296" stroke-width="1.51"/><path d="M53,209L40,253L67,251Z" fill="#942194" stroke="#942194" stroke-width="1.51"/><path d="M67,251L40,253L86,295Z" fill="#8b2190" stroke="#8b2190" stroke-width="1.51"/><path d="M86,295L68,367L133,338Z" fill="#80208b" stroke="#80208b" stroke-width="1.51"/><path d="M1062,198L1122,147L1060,153Z" fill="#611d7e" stroke="#611d7e" stroke-width="1.51"/><path d="M1080,81L1106,80L1083,8Z" fill="#7e208b" stroke="#7e208b" stroke-width="1.51"/><path d="M1094,338L1099,249L1032,272Z" fill="#3e1a72" stroke="#3e1a72" stroke-width="1.51"/><path d="M1114,249L1099,249L1114,331Z" fill="#3f1a72" stroke="#3f1a72" stroke-width="1.51"/><path d="M29,320L68,367L86,295Z" fill="#82208c" stroke="#82208c" stroke-width="1.51"/><path d="M125,371L68,367L158,385Z" fill="#7e1f8b" stroke="#7e1f8b" stroke-width="1.51"/><path d="M1122,147L1068,105L1060,153Z" fill="#691e82" stroke="#691e82" stroke-width="1.51"/><path d="M-3,184L8,203L44,165Z" fill="#a6239a" stroke="#a6239a" stroke-width="1.51"/><path d="M44,165L8,203L53,209Z" fill="#a22299" stroke="#a22299" stroke-width="1.51"/><path d="M55,7L41,26L122,52Z" fill="#cd24aa" stroke="#cd24aa" stroke-width="1.51"/><path d="M28,-33L55,7L67,-23Z" fill="#d625ae" stroke="#d625ae" stroke-width="1.51"/><path d="M1022,350L1067,385L1039,325Z" fill="#3c1971" stroke="#3c1971" stroke-width="1.51"/><path d="M840,386L1067,385L896,365Z" fill="#451a74" stroke="#451a74" stroke-width="1.51"/><path d="M1099,249L1113,226L1062,198Z" fill="#4f1c78" stroke="#4f1c78" stroke-width="1.51"/><path d="M1114,249L1113,226L1099,249Z" fill="#491a76" stroke="#491a76" stroke-width="1.51"/><path d="M1094,338L1032,272L1039,325Z" fill="#3b1971" stroke="#3b1971" stroke-width="1.51"/><path d="M1150,159L1122,147L1157,180Z" fill="#5e1d7d" stroke="#5e1d7d" stroke-width="1.51"/><path d="M1113,226L1122,147L1062,198Z" fill="#591c7b" stroke="#591c7b" stroke-width="1.51"/><path d="M41,26L16,100L65,89Z" fill="#c324a7" stroke="#c324a7" stroke-width="1.51"/><path d="M1067,385L1094,338L1039,325Z" fill="#3a1970" stroke="#3a1970" stroke-width="1.51"/><path d="M1083,8L1098,-29L1052,-38Z" fill="#8f2192" stroke="#8f2192" stroke-width="1.51"/><path d="M1052,-38L1082,-90L1023,-67Z" fill="#912192" stroke="#912192" stroke-width="1.51"/><path d="M1023,-67L1082,-90L996,-90Z" fill="#922193" stroke="#922193" stroke-width="1.51"/><path d="M1130,35L1098,-29L1083,8Z" fill="#8c2190" stroke="#8c2190" stroke-width="1.51"/><path d="M1130,35L1083,8L1106,80Z" fill="#811f8c" stroke="#811f8c" stroke-width="1.51"/><path d="M40,253L29,320L86,295Z" fill="#86218d" stroke="#86218d" stroke-width="1.51"/><path d="M-3,184L44,165L45,148Z" fill="#aa239c" stroke="#aa239c" stroke-width="1.51"/><path d="M-8,277L29,320L40,253Z" fill="#8a2090" stroke="#8a2090" stroke-width="1.51"/><path d="M1098,-29L1082,-90L1052,-38Z" fill="#8f2192" stroke="#8f2192" stroke-width="1.51"/><path d="M-20,242L-8,277L40,253Z" fill="#922193" stroke="#922193" stroke-width="1.51"/><path d="M-35,134L-3,184L45,148Z" fill="#af239e" stroke="#af239e" stroke-width="1.51"/><path d="M74,-44L28,-33L67,-23Z" fill="#d625ae" stroke="#d625ae" stroke-width="1.51"/><path d="M41,26L-8,51L16,100Z" fill="#c825a8" stroke="#c825a8" stroke-width="1.51"/><path d="M16,100L-35,134L45,148Z" fill="#b623a1" stroke="#b623a1" stroke-width="1.51"/><path d="M19,-70L28,-33L74,-44Z" fill="#d725af" stroke="#d725af" stroke-width="1.51"/><path d="M1118,364L1114,331L1094,338Z" fill="#37196f" stroke="#37196f" stroke-width="1.51"/><path d="M1094,338L1114,331L1099,249Z" fill="#37196f" stroke="#37196f" stroke-width="1.51"/><path d="M1157,180L1122,147L1113,226Z" fill="#581c7b" stroke="#581c7b" stroke-width="1.51"/><path d="M1157,93L1130,35L1106,80Z" fill="#781f88" stroke="#781f88" stroke-width="1.51"/><path d="M1098,-29L1133,-53L1082,-90Z" fill="#8d2190" stroke="#8d2190" stroke-width="1.51"/><path d="M1153,131L1106,80L1122,147Z" fill="#6a1e83" stroke="#6a1e83" stroke-width="1.51"/><path d="M29,320L24,350L68,367Z" fill="#84208d" stroke="#84208d" stroke-width="1.51"/><path d="M-20,314L24,350L29,320Z" fill="#85208d" stroke="#85208d" stroke-width="1.51"/><path d="M1157,180L1113,226L1199,222Z" fill="#4f1b78" stroke="#4f1b78" stroke-width="1.51"/><path d="M1150,159L1153,131L1122,147Z" fill="#621d7f" stroke="#621d7f" stroke-width="1.51"/><path d="M-30,-10L-8,51L41,26Z" fill="#d325ad" stroke="#d325ad" stroke-width="1.51"/><path d="M1170,277L1113,226L1114,249Z" fill="#441a74" stroke="#441a74" stroke-width="1.51"/><path d="M1067,385L1118,364L1094,338Z" fill="#381970" stroke="#381970" stroke-width="1.51"/><path d="M-20,242L40,253L8,203Z" fill="#982295" stroke="#982295" stroke-width="1.51"/><path d="M-20,242L8,203L-3,184Z" fill="#9f2298" stroke="#9f2298" stroke-width="1.51"/><path d="M1150,159L1224,115L1153,131Z" fill="#631d7f" stroke="#631d7f" stroke-width="1.51"/><path d="M1170,277L1114,249L1114,331Z" fill="#3a1970" stroke="#3a1970" stroke-width="1.51"/><path d="M1153,131L1157,93L1106,80Z" fill="#6e1e84" stroke="#6e1e84" stroke-width="1.51"/><path d="M1130,35L1129,-40L1098,-29Z" fill="#8c2090" stroke="#8c2090" stroke-width="1.51"/><path d="M1224,115L1157,93L1153,131Z" fill="#691d82" stroke="#691d82" stroke-width="1.51"/><path d="M1133,-53L1129,-40L1165,-70Z" fill="#8b218f" stroke="#8b218f" stroke-width="1.51"/><path d="M28,-33L-30,-10L41,26Z" fill="#d925af" stroke="#d925af" stroke-width="1.51"/><path d="M206,-89L19,-70L169,-71Z" fill="#d025ac" stroke="#d025ac" stroke-width="1.51"/><path d="M-58,225L-20,242L-3,184Z" fill="#9d2297" stroke="#9d2297" stroke-width="1.51"/><path d="M-8,51L-22,64L16,100Z" fill="#c624a8" stroke="#c624a8" stroke-width="1.51"/><path d="M-57,56L-22,64L-53,21Z" fill="#cd25aa" stroke="#cd25aa" stroke-width="1.51"/><path d="M1129,-40L1133,-53L1098,-29Z" fill="#8c2090" stroke="#8c2090" stroke-width="1.51"/><path d="M1174,26L1129,-40L1130,35Z" fill="#88218e" stroke="#88218e" stroke-width="1.51"/><path d="M-22,64L-35,134L16,100Z" fill="#be24a4" stroke="#be24a4" stroke-width="1.51"/><path d="M-61,332L-20,314L-96,266Z" fill="#86208e" stroke="#86208e" stroke-width="1.51"/><path d="M-8,277L-20,314L29,320Z" fill="#86208e" stroke="#86208e" stroke-width="1.51"/><path d="M-96,266L-8,277L-20,242Z" fill="#912192" stroke="#912192" stroke-width="1.51"/><path d="M1193,0L1174,26L1203,10Z" fill="#84208d" stroke="#84208d" stroke-width="1.51"/><path d="M1198,325L1170,277L1114,331Z" fill="#33186e" stroke="#33186e" stroke-width="1.51"/><path d="M24,350L-10,371L68,367Z" fill="#85208d" stroke="#85208d" stroke-width="1.51"/><path d="M68,367L-10,371L158,385Z" fill="#82208c" stroke="#82208c" stroke-width="1.51"/><path d="M-20,314L-10,371L24,350Z" fill="#86208e" stroke="#86208e" stroke-width="1.51"/><path d="M1157,93L1174,26L1130,35Z" fill="#7b2089" stroke="#7b2089" stroke-width="1.51"/><path d="M1224,115L1150,159L1228,183Z" fill="#5c1c7d" stroke="#5c1c7d" stroke-width="1.51"/><path d="M19,-70L-30,-10L28,-33Z" fill="#da25b0" stroke="#da25b0" stroke-width="1.51"/><path d="M-22,64L-77,104L-35,134Z" fill="#be24a4" stroke="#be24a4" stroke-width="1.51"/><path d="M-20,314L-61,332L-10,371Z" fill="#86208e" stroke="#86208e" stroke-width="1.51"/><path d="M-78,163L-58,225L-3,184Z" fill="#a5229a" stroke="#a5229a" stroke-width="1.51"/><path d="M-78,163L-3,184L-35,134Z" fill="#ad239e" stroke="#ad239e" stroke-width="1.51"/><path d="M-53,21L-22,64L-8,51Z" fill="#cd25ab" stroke="#cd25ab" stroke-width="1.51"/><path d="M1170,277L1199,222L1113,226Z" fill="#451b74" stroke="#451b74" stroke-width="1.51"/><path d="M-30,-10L-53,21L-8,51Z" fill="#d425ad" stroke="#d425ad" stroke-width="1.51"/><path d="M1133,-53L1165,-70L1082,-90Z" fill="#8b2090" stroke="#8b2090" stroke-width="1.51"/><path d="M1193,0L1165,-70L1129,-40Z" fill="#89218f" stroke="#89218f" stroke-width="1.51"/><path d="M1193,0L1129,-40L1174,26Z" fill="#89218f" stroke="#89218f" stroke-width="1.51"/><path d="M19,-70L-29,-84L-30,-10Z" fill="#da25b0" stroke="#da25b0" stroke-width="1.51"/><path d="M-30,-10L-69,-21L-53,21Z" fill="#da25b0" stroke="#da25b0" stroke-width="1.51"/><path d="M206,-89L-29,-84L19,-70Z" fill="#d525ae" stroke="#d525ae" stroke-width="1.51"/><path d="M1203,10L1174,26L1227,67Z" fill="#7d1f8a" stroke="#7d1f8a" stroke-width="1.51"/><path d="M-77,104L-22,64L-57,56Z" fill="#c524a7" stroke="#c524a7" stroke-width="1.51"/><path d="M-77,104L-78,163L-35,134Z" fill="#b423a1" stroke="#b423a1" stroke-width="1.51"/><path d="M-69,-21L-77,104L-57,56Z" fill="#cd25aa" stroke="#cd25aa" stroke-width="1.51"/><path d="M-69,-21L-57,56L-53,21Z" fill="#d425ae" stroke="#d425ae" stroke-width="1.51"/><path d="M1199,222L1215,210L1157,180Z" fill="#4e1b78" stroke="#4e1b78" stroke-width="1.51"/><path d="M1242,274L1215,210L1199,222Z" fill="#441a74" stroke="#441a74" stroke-width="1.51"/><path d="M1242,274L1199,222L1170,277Z" fill="#3d1a71" stroke="#3d1a71" stroke-width="1.51"/><path d="M1193,0L1228,-46L1165,-70Z" fill="#87208e" stroke="#87208e" stroke-width="1.51"/><path d="M1227,67L1174,26L1157,93Z" fill="#761f88" stroke="#761f88" stroke-width="1.51"/><path d="M1190,372L1198,325L1114,331Z" fill="#32186e" stroke="#32186e" stroke-width="1.51"/><path d="M-96,266L-20,242L-58,225Z" fill="#962194" stroke="#962194" stroke-width="1.51"/><path d="M-96,266L-20,314L-8,277Z" fill="#8b218f" stroke="#8b218f" stroke-width="1.51"/><path d="M1228,183L1150,159L1157,180Z" fill="#571c7b" stroke="#571c7b" stroke-width="1.51"/><path d="M1118,364L1190,372L1114,331Z" fill="#34196e" stroke="#34196e" stroke-width="1.51"/><path d="M1067,385L1190,372L1118,364Z" fill="#35196f" stroke="#35196f" stroke-width="1.51"/><path d="M1215,210L1228,183L1157,180Z" fill="#511b79" stroke="#511b79" stroke-width="1.51"/><path d="M1256,192L1228,183L1215,210Z" fill="#501b78" stroke="#501b78" stroke-width="1.51"/><path d="M1242,274L1170,277L1237,308Z" fill="#34196e" stroke="#34196e" stroke-width="1.51"/><path d="M-29,-84L-69,-21L-30,-10Z" fill="#da25b0" stroke="#da25b0" stroke-width="1.51"/><path d="M1224,115L1227,67L1157,93Z" fill="#6d1e84" stroke="#6d1e84" stroke-width="1.51"/><path d="M1284,79L1227,67L1224,115Z" fill="#6e1e84" stroke="#6e1e84" stroke-width="1.51"/><path d="M-10,371L-63,367L158,385Z" fill="#85208d" stroke="#85208d" stroke-width="1.51"/><path d="M-61,332L-63,367L-10,371Z" fill="#86208e" stroke="#86208e" stroke-width="1.51"/><path d="M-96,266L-63,367L-61,332Z" fill="#86208e" stroke="#86208e" stroke-width="1.51"/><path d="M1190,372L1200,374L1198,325Z" fill="#30186d" stroke="#30186d" stroke-width="1.51"/><path d="M1067,385L1200,374L1190,372Z" fill="#33196e" stroke="#33196e" stroke-width="1.51"/><path d="M-78,163L-96,266L-58,225Z" fill="#9d2297" stroke="#9d2297" stroke-width="1.51"/><path d="M-77,104L-96,266L-78,163Z" fill="#a8239c" stroke="#a8239c" stroke-width="1.51"/><path d="M-83,-67L-96,266L-77,104Z" fill="#be24a4" stroke="#be24a4" stroke-width="1.51"/><path d="M1228,183L1291,146L1224,115Z" fill="#5e1c7d" stroke="#5e1c7d" stroke-width="1.51"/><path d="M1237,308L1170,277L1198,325Z" fill="#2f186d" stroke="#2f186d" stroke-width="1.51"/><path d="M1250,357L1237,308L1198,325Z" fill="#2f186d" stroke="#2f186d" stroke-width="1.51"/><path d="M1263,253L1215,210L1242,274Z" fill="#411a73" stroke="#411a73" stroke-width="1.51"/><path d="M1263,253L1256,192L1215,210Z" fill="#491b76" stroke="#491b76" stroke-width="1.51"/><path d="M-29,-84L-83,-67L-69,-21Z" fill="#da25b0" stroke="#da25b0" stroke-width="1.51"/><path d="M-69,-21L-83,-67L-77,104Z" fill="#d825af" stroke="#d825af" stroke-width="1.51"/><path d="M1245,0L1203,10L1227,67Z" fill="#80208b" stroke="#80208b" stroke-width="1.51"/><path d="M1245,0L1193,0L1203,10Z" fill="#85208d" stroke="#85208d" stroke-width="1.51"/><path d="M1245,0L1228,-46L1193,0Z" fill="#86208e" stroke="#86208e" stroke-width="1.51"/><path d="M1254,2L1245,0L1227,67Z" fill="#80208b" stroke="#80208b" stroke-width="1.51"/><path d="M1279,28L1254,2L1227,67Z" fill="#7e1f8b" stroke="#7e1f8b" stroke-width="1.51"/><path d="M1277,297L1263,253L1242,274Z" fill="#38196f" stroke="#38196f" stroke-width="1.51"/><path d="M1245,0L1254,2L1228,-46Z" fill="#86208e" stroke="#86208e" stroke-width="1.51"/><path d="M1284,79L1224,115L1291,146Z" fill="#671e81" stroke="#671e81" stroke-width="1.51"/><path d="M1200,374L1250,357L1198,325Z" fill="#2f186d" stroke="#2f186d" stroke-width="1.51"/><path d="M1237,308L1277,297L1242,274Z" fill="#32186e" stroke="#32186e" stroke-width="1.51"/><path d="M1291,146L1228,183L1256,192Z" fill="#561c7b" stroke="#561c7b" stroke-width="1.51"/><path d="M1263,253L1289,199L1256,192Z" fill="#4a1b76" stroke="#4a1b76" stroke-width="1.51"/><path d="M1277,297L1289,199L1263,253Z" fill="#401a72" stroke="#401a72" stroke-width="1.51"/><path d="M1284,79L1279,28L1227,67Z" fill="#761f88" stroke="#761f88" stroke-width="1.51"/><path d="M1254,2L1264,-86L1228,-46Z" fill="#86208e" stroke="#86208e" stroke-width="1.51"/><path d="M1250,357L1277,297L1237,308Z" fill="#2f186d" stroke="#2f186d" stroke-width="1.51"/><path d="M1284,79L1291,146L1279,28Z" fill="#6f1e85" stroke="#6f1e85" stroke-width="1.51"/><path d="M1289,199L1291,146L1256,192Z" fill="#541c7a" stroke="#541c7a" stroke-width="1.51"/><path d="M1228,-46L1264,-86L1165,-70Z" fill="#86208e" stroke="#86208e" stroke-width="1.51"/><path d="M1165,-70L1264,-86L1082,-90Z" fill="#89208f" stroke="#89208f" stroke-width="1.51"/><path d="M1279,28L1264,-86L1254,2Z" fill="#86208e" stroke="#86208e" stroke-width="1.51"/></svg>